<ttFont>
    <TTGlyph name="A" xMin="-39" yMin="-114" xMax="644" yMax="750">
      <contour>
        <pt x="343" y="0" on="1"/>
        <pt x="420" y="363" on="1"/>
        <pt x="382" y="380" on="0"/>
        <pt x="319" y="396" on="0"/>
        <pt x="286" y="399" on="1"/>
        <pt x="258" y="338" on="0"/>
        <pt x="210" y="209" on="0"/>
        <pt x="176" y="89" on="0"/>
        <pt x="156" y="-16" on="0"/>
        <pt x="156" y="-54" on="1"/>
        <pt x="156" y="-83" on="0"/>
        <pt x="165" y="-107" on="0"/>
        <pt x="170" y="-114" on="1"/>
        <pt x="150" y="-114" on="0"/>
        <pt x="103" y="-110" on="0"/>
        <pt x="63" y="-90" on="0"/>
        <pt x="36" y="-47" on="0"/>
        <pt x="36" y="-8" on="1"/>
        <pt x="36" y="26" on="0"/>
        <pt x="57" y="118" on="0"/>
        <pt x="96" y="225" on="0"/>
        <pt x="150" y="342" on="0"/>
        <pt x="183" y="399" on="1"/>
        <pt x="136" y="396" on="0"/>
        <pt x="76" y="373" on="0"/>
        <pt x="66" y="347" on="1"/>
        <pt x="70" y="347" on="0"/>
        <pt x="79" y="327" on="0"/>
        <pt x="79" y="316" on="1"/>
        <pt x="79" y="298" on="0"/>
        <pt x="46" y="277" on="0"/>
        <pt x="23" y="277" on="1"/>
        <pt x="-3" y="277" on="0"/>
        <pt x="-39" y="306" on="0"/>
        <pt x="-39" y="335" on="1"/>
        <pt x="-39" y="360" on="0"/>
        <pt x="-8" y="405" on="0"/>
        <pt x="46" y="439" on="0"/>
        <pt x="120" y="458" on="0"/>
        <pt x="163" y="458" on="1"/>
        <pt x="185" y="458" on="0"/>
        <pt x="217" y="455" on="1"/>
        <pt x="255" y="515" on="0"/>
        <pt x="340" y="622" on="0"/>
        <pt x="430" y="703" on="0"/>
        <pt x="522" y="750" on="0"/>
        <pt x="567" y="750" on="1"/>
        <pt x="582" y="750" on="0"/>
        <pt x="626" y="744" on="0"/>
        <pt x="644" y="736" on="1"/>
        <pt x="487" y="0" on="1"/>
      </contour>
      <contour>
        <pt x="487" y="679" on="1"/>
        <pt x="442" y="655" on="0"/>
        <pt x="349" y="526" on="0"/>
        <pt x="307" y="442" on="1"/>
        <pt x="338" y="436" on="0"/>
        <pt x="400" y="419" on="0"/>
        <pt x="429" y="407" on="1"/>
      </contour>
    </TTGlyph>
    <TTGlyph name="A.salt" xMin="-32" yMin="-113" xMax="576" yMax="751">
      <contour>
        <pt x="275" y="0" on="1"/>
        <pt x="352" y="366" on="1"/>
        <pt x="194" y="366" on="1"/>
        <pt x="170" y="308" on="0"/>
        <pt x="131" y="189" on="0"/>
        <pt x="103" y="77" on="0"/>
        <pt x="88" y="-21" on="0"/>
        <pt x="88" y="-57" on="1"/>
        <pt x="88" y="-74" on="0"/>
        <pt x="92" y="-94" on="0"/>
        <pt x="96" y="-106" on="0"/>
        <pt x="101" y="-111" on="0"/>
        <pt x="102" y="-113" on="1"/>
        <pt x="76" y="-112" on="0"/>
        <pt x="28" y="-106" on="0"/>
        <pt x="-10" y="-85" on="0"/>
        <pt x="-32" y="-41" on="0"/>
        <pt x="-32" y="-1" on="1"/>
        <pt x="-32" y="34" on="0"/>
        <pt x="-6" y="137" on="0"/>
        <pt x="40" y="256" on="0"/>
        <pt x="104" y="384" on="0"/>
        <pt x="181" y="508" on="0"/>
        <pt x="268" y="618" on="0"/>
        <pt x="359" y="702" on="0"/>
        <pt x="451" y="751" on="0"/>
        <pt x="496" y="751" on="1"/>
        <pt x="514" y="751" on="0"/>
        <pt x="558" y="744" on="0"/>
        <pt x="576" y="736" on="1"/>
        <pt x="419" y="0" on="1"/>
      </contour>
      <contour>
        <pt x="363" y="418" on="1"/>
        <pt x="419" y="682" on="1"/>
        <pt x="392" y="670" on="0"/>
        <pt x="338" y="620" on="0"/>
        <pt x="286" y="551" on="0"/>
        <pt x="238" y="465" on="0"/>
        <pt x="216" y="418" on="1"/>
      </contour>
    </TTGlyph>
    <TTGlyph name="AE" xMin="15" yMin="-113" xMax="915" yMax="751">
      <contour>
        <pt x="397" y="0" on="1"/>
        <pt x="474" y="363" on="1"/>
        <pt x="436" y="380" on="0"/>
        <pt x="371" y="397" on="0"/>
        <pt x="339" y="399" on="1"/>
        <pt x="311" y="338" on="0"/>
        <pt x="264" y="210" on="0"/>
        <pt x="229" y="89" on="0"/>
        <pt x="210" y="-18" on="0"/>
        <pt x="210" y="-57" on="1"/>
        <pt x="210" y="-76" on="0"/>
        <pt x="214" y="-96" on="0"/>
        <pt x="219" y="-106" on="0"/>
        <pt x="224" y="-110" on="0"/>
        <pt x="224" y="-113" on="1"/>
        <pt x="198" y="-112" on="0"/>
        <pt x="150" y="-106" on="0"/>
        <pt x="112" y="-85" on="0"/>
        <pt x="90" y="-41" on="0"/>
        <pt x="90" y="-1" on="1"/>
        <pt x="90" y="31" on="0"/>
        <pt x="111" y="121" on="0"/>
        <pt x="150" y="227" on="0"/>
        <pt x="204" y="342" on="0"/>
        <pt x="237" y="399" on="1"/>
        <pt x="192" y="396" on="0"/>
        <pt x="131" y="374" on="0"/>
        <pt x="120" y="347" on="1"/>
        <pt x="124" y="347" on="0"/>
        <pt x="133" y="327" on="0"/>
        <pt x="133" y="316" on="1"/>
        <pt x="133" y="300" on="0"/>
        <pt x="104" y="277" on="0"/>
        <pt x="72" y="277" on="1"/>
        <pt x="50" y="277" on="0"/>
        <pt x="15" y="306" on="0"/>
        <pt x="15" y="340" on="1"/>
        <pt x="15" y="363" on="0"/>
        <pt x="47" y="405" on="0"/>
        <pt x="101" y="436" on="0"/>
        <pt x="171" y="455" on="0"/>
        <pt x="210" y="455" on="1"/>
        <pt x="236" y="455" on="0"/>
        <pt x="269" y="452" on="1"/>
        <pt x="307" y="513" on="0"/>
        <pt x="392" y="621" on="0"/>
        <pt x="482" y="703" on="0"/>
        <pt x="574" y="751" on="0"/>
        <pt x="618" y="751" on="1"/>
        <pt x="639" y="751" on="0"/>
        <pt x="680" y="745" on="0"/>
        <pt x="724" y="737" on="0"/>
        <pt x="772" y="731" on="0"/>
        <pt x="798" y="731" on="1"/>
        <pt x="824" y="731" on="0"/>
        <pt x="882" y="739" on="0"/>
        <pt x="915" y="750" on="1"/>
        <pt x="910" y="734" on="0"/>
        <pt x="898" y="695" on="0"/>
        <pt x="876" y="662" on="0"/>
        <pt x="839" y="640" on="0"/>
        <pt x="808" y="640" on="1"/>
        <pt x="770" y="640" on="0"/>
        <pt x="713" y="661" on="0"/>
        <pt x="684" y="672" on="1"/>
        <pt x="630" y="419" on="1"/>
        <pt x="785" y="419" on="1"/>
        <pt x="765" y="345" on="1"/>
        <pt x="614" y="345" on="1"/>
        <pt x="563" y="106" on="1"/>
        <pt x="787" y="106" on="1"/>
        <pt x="766" y="0" on="1"/>
      </contour>
      <contour>
        <pt x="541" y="679" on="1"/>
        <pt x="495" y="654" on="0"/>
        <pt x="401" y="526" on="0"/>
        <pt x="359" y="441" on="1"/>
        <pt x="391" y="435" on="0"/>
        <pt x="454" y="418" on="0"/>
        <pt x="483" y="407" on="1"/>
      </contour>
    </TTGlyph>
    <TTGlyph name="Aacute" xMin="-39" yMin="-114" xMax="644" yMax="1000">
      <contour>
        <pt x="343" y="0" on="1"/>
        <pt x="420" y="363" on="1"/>
        <pt x="382" y="380" on="0"/>
        <pt x="319" y="396" on="0"/>
        <pt x="286" y="399" on="1"/>
        <pt x="258" y="338" on="0"/>
        <pt x="210" y="209" on="0"/>
        <pt x="176" y="89" on="0"/>
        <pt x="156" y="-16" on="0"/>
        <pt x="156" y="-54" on="1"/>
        <pt x="156" y="-83" on="0"/>
        <pt x="165" y="-107" on="0"/>
        <pt x="170" y="-114" on="1"/>
        <pt x="150" y="-114" on="0"/>
        <pt x="103" y="-110" on="0"/>
        <pt x="63" y="-90" on="0"/>
        <pt x="36" y="-47" on="0"/>
        <pt x="36" y="-8" on="1"/>
        <pt x="36" y="26" on="0"/>
        <pt x="57" y="118" on="0"/>
        <pt x="96" y="225" on="0"/>
        <pt x="150" y="342" on="0"/>
        <pt x="183" y="399" on="1"/>
        <pt x="136" y="396" on="0"/>
        <pt x="76" y="373" on="0"/>
        <pt x="66" y="347" on="1"/>
        <pt x="70" y="347" on="0"/>
        <pt x="79" y="327" on="0"/>
        <pt x="79" y="316" on="1"/>
        <pt x="79" y="298" on="0"/>
        <pt x="46" y="277" on="0"/>
        <pt x="23" y="277" on="1"/>
        <pt x="-3" y="277" on="0"/>
        <pt x="-39" y="306" on="0"/>
        <pt x="-39" y="335" on="1"/>
        <pt x="-39" y="360" on="0"/>
        <pt x="-8" y="405" on="0"/>
        <pt x="46" y="439" on="0"/>
        <pt x="120" y="458" on="0"/>
        <pt x="163" y="458" on="1"/>
        <pt x="185" y="458" on="0"/>
        <pt x="217" y="455" on="1"/>
        <pt x="255" y="515" on="0"/>
        <pt x="340" y="622" on="0"/>
        <pt x="430" y="703" on="0"/>
        <pt x="522" y="750" on="0"/>
        <pt x="567" y="750" on="1"/>
        <pt x="582" y="750" on="0"/>
        <pt x="626" y="744" on="0"/>
        <pt x="644" y="736" on="1"/>
        <pt x="487" y="0" on="1"/>
      </contour>
      <contour>
        <pt x="487" y="679" on="1"/>
        <pt x="442" y="655" on="0"/>
        <pt x="349" y="526" on="0"/>
        <pt x="307" y="442" on="1"/>
        <pt x="338" y="436" on="0"/>
        <pt x="400" y="419" on="0"/>
        <pt x="429" y="407" on="1"/>
      </contour>
      <contour>
        <pt x="529" y="1000" on="1"/>
        <pt x="634" y="1000" on="1"/>
        <pt x="513" y="811" on="1"/>
        <pt x="438" y="811" on="1"/>
      </contour>
    </TTGlyph>
    <TTGlyph name="Acircumflex" xMin="-39" yMin="-114" xMax="652" yMax="1000">
      <contour>
        <pt x="343" y="0" on="1"/>
        <pt x="420" y="363" on="1"/>
        <pt x="382" y="380" on="0"/>
        <pt x="319" y="396" on="0"/>
        <pt x="286" y="399" on="1"/>
        <pt x="258" y="338" on="0"/>
        <pt x="210" y="209" on="0"/>
        <pt x="176" y="89" on="0"/>
        <pt x="156" y="-16" on="0"/>
        <pt x="156" y="-54" on="1"/>
        <pt x="156" y="-83" on="0"/>
        <pt x="165" y="-107" on="0"/>
        <pt x="170" y="-114" on="1"/>
        <pt x="150" y="-114" on="0"/>
        <pt x="103" y="-110" on="0"/>
        <pt x="63" y="-90" on="0"/>
        <pt x="36" y="-47" on="0"/>
        <pt x="36" y="-8" on="1"/>
        <pt x="36" y="26" on="0"/>
        <pt x="57" y="118" on="0"/>
        <pt x="96" y="225" on="0"/>
        <pt x="150" y="342" on="0"/>
        <pt x="183" y="399" on="1"/>
        <pt x="136" y="396" on="0"/>
        <pt x="76" y="373" on="0"/>
        <pt x="66" y="347" on="1"/>
        <pt x="70" y="347" on="0"/>
        <pt x="79" y="327" on="0"/>
        <pt x="79" y="316" on="1"/>
        <pt x="79" y="298" on="0"/>
        <pt x="46" y="277" on="0"/>
        <pt x="23" y="277" on="1"/>
        <pt x="-3" y="277" on="0"/>
        <pt x="-39" y="306" on="0"/>
        <pt x="-39" y="335" on="1"/>
        <pt x="-39" y="360" on="0"/>
        <pt x="-8" y="405" on="0"/>
        <pt x="46" y="439" on="0"/>
        <pt x="120" y="458" on="0"/>
        <pt x="163" y="458" on="1"/>
        <pt x="185" y="458" on="0"/>
        <pt x="217" y="455" on="1"/>
        <pt x="255" y="515" on="0"/>
        <pt x="340" y="622" on="0"/>
        <pt x="430" y="703" on="0"/>
        <pt x="522" y="750" on="0"/>
        <pt x="567" y="750" on="1"/>
        <pt x="582" y="750" on="0"/>
        <pt x="626" y="744" on="0"/>
        <pt x="644" y="736" on="1"/>
        <pt x="487" y="0" on="1"/>
      </contour>
      <contour>
        <pt x="487" y="679" on="1"/>
        <pt x="442" y="655" on="0"/>
        <pt x="349" y="526" on="0"/>
        <pt x="307" y="442" on="1"/>
        <pt x="338" y="436" on="0"/>
        <pt x="400" y="419" on="0"/>
        <pt x="429" y="407" on="1"/>
      </contour>
      <contour>
        <pt x="620" y="811" on="1"/>
        <pt x="560" y="891" on="1"/>
        <pt x="403" y="811" on="1"/>
        <pt x="359" y="811" on="1"/>
        <pt x="571" y="1000" on="1"/>
        <pt x="592" y="1000" on="1"/>
        <pt x="652" y="811" on="1"/>
      </contour>
    </TTGlyph>
    <TTGlyph name="Adieresis" xMin="-39" yMin="-114" xMax="684" yMax="945">
      <contour>
        <pt x="343" y="0" on="1"/>
        <pt x="420" y="363" on="1"/>
        <pt x="382" y="380" on="0"/>
        <pt x="319" y="396" on="0"/>
        <pt x="286" y="399" on="1"/>
        <pt x="258" y="338" on="0"/>
        <pt x="210" y="209" on="0"/>
        <pt x="176" y="89" on="0"/>
        <pt x="156" y="-16" on="0"/>
        <pt x="156" y="-54" on="1"/>
        <pt x="156" y="-83" on="0"/>
        <pt x="165" y="-107" on="0"/>
        <pt x="170" y="-114" on="1"/>
        <pt x="150" y="-114" on="0"/>
        <pt x="103" y="-110" on="0"/>
        <pt x="63" y="-90" on="0"/>
        <pt x="36" y="-47" on="0"/>
        <pt x="36" y="-8" on="1"/>
        <pt x="36" y="26" on="0"/>
        <pt x="57" y="118" on="0"/>
        <pt x="96" y="225" on="0"/>
        <pt x="150" y="342" on="0"/>
        <pt x="183" y="399" on="1"/>
        <pt x="136" y="396" on="0"/>
        <pt x="76" y="373" on="0"/>
        <pt x="66" y="347" on="1"/>
        <pt x="70" y="347" on="0"/>
        <pt x="79" y="327" on="0"/>
        <pt x="79" y="316" on="1"/>
        <pt x="79" y="298" on="0"/>
        <pt x="46" y="277" on="0"/>
        <pt x="23" y="277" on="1"/>
        <pt x="-3" y="277" on="0"/>
        <pt x="-39" y="306" on="0"/>
        <pt x="-39" y="335" on="1"/>
        <pt x="-39" y="360" on="0"/>
        <pt x="-8" y="405" on="0"/>
        <pt x="46" y="439" on="0"/>
        <pt x="120" y="458" on="0"/>
        <pt x="163" y="458" on="1"/>
        <pt x="185" y="458" on="0"/>
        <pt x="217" y="455" on="1"/>
        <pt x="255" y="515" on="0"/>
        <pt x="340" y="622" on="0"/>
        <pt x="430" y="703" on="0"/>
        <pt x="522" y="750" on="0"/>
        <pt x="567" y="750" on="1"/>
        <pt x="582" y="750" on="0"/>
        <pt x="626" y="744" on="0"/>
        <pt x="644" y="736" on="1"/>
        <pt x="487" y="0" on="1"/>
      </contour>
      <contour>
        <pt x="487" y="679" on="1"/>
        <pt x="442" y="655" on="0"/>
        <pt x="349" y="526" on="0"/>
        <pt x="307" y="442" on="1"/>
        <pt x="338" y="436" on="0"/>
        <pt x="400" y="419" on="0"/>
        <pt x="429" y="407" on="1"/>
      </contour>
      <contour>
        <pt x="562" y="884" on="1"/>
        <pt x="562" y="909" on="0"/>
        <pt x="597" y="945" on="0"/>
        <pt x="623" y="945" on="1"/>
        <pt x="648" y="945" on="0"/>
        <pt x="684" y="909" on="0"/>
        <pt x="684" y="884" on="1"/>
        <pt x="684" y="858" on="0"/>
        <pt x="648" y="823" on="0"/>
        <pt x="623" y="823" on="1"/>
        <pt x="597" y="823" on="0"/>
        <pt x="562" y="858" on="0"/>
      </contour>
      <contour>
        <pt x="382" y="884" on="1"/>
        <pt x="382" y="909" on="0"/>
        <pt x="417" y="945" on="0"/>
        <pt x="443" y="945" on="1"/>
        <pt x="468" y="945" on="0"/>
        <pt x="504" y="909" on="0"/>
        <pt x="504" y="884" on="1"/>
        <pt x="504" y="858" on="0"/>
        <pt x="468" y="823" on="0"/>
        <pt x="443" y="823" on="1"/>
        <pt x="417" y="823" on="0"/>
        <pt x="382" y="858" on="0"/>
      </contour>
    </TTGlyph>
    <TTGlyph name="Agrave" xMin="-39" yMin="-114" xMax="644" yMax="1000">
      <contour>
        <pt x="343" y="0" on="1"/>
        <pt x="420" y="363" on="1"/>
        <pt x="382" y="380" on="0"/>
        <pt x="319" y="396" on="0"/>
        <pt x="286" y="399" on="1"/>
        <pt x="258" y="338" on="0"/>
        <pt x="210" y="209" on="0"/>
        <pt x="176" y="89" on="0"/>
        <pt x="156" y="-16" on="0"/>
        <pt x="156" y="-54" on="1"/>
        <pt x="156" y="-83" on="0"/>
        <pt x="165" y="-107" on="0"/>
        <pt x="170" y="-114" on="1"/>
        <pt x="150" y="-114" on="0"/>
        <pt x="103" y="-110" on="0"/>
        <pt x="63" y="-90" on="0"/>
        <pt x="36" y="-47" on="0"/>
        <pt x="36" y="-8" on="1"/>
        <pt x="36" y="26" on="0"/>
        <pt x="57" y="118" on="0"/>
        <pt x="96" y="225" on="0"/>
        <pt x="150" y="342" on="0"/>
        <pt x="183" y="399" on="1"/>
        <pt x="136" y="396" on="0"/>
        <pt x="76" y="373" on="0"/>
        <pt x="66" y="347" on="1"/>
        <pt x="70" y="347" on="0"/>
        <pt x="79" y="327" on="0"/>
        <pt x="79" y="316" on="1"/>
        <pt x="79" y="298" on="0"/>
        <pt x="46" y="277" on="0"/>
        <pt x="23" y="277" on="1"/>
        <pt x="-3" y="277" on="0"/>
        <pt x="-39" y="306" on="0"/>
        <pt x="-39" y="335" on="1"/>
        <pt x="-39" y="360" on="0"/>
        <pt x="-8" y="405" on="0"/>
        <pt x="46" y="439" on="0"/>
        <pt x="120" y="458" on="0"/>
        <pt x="163" y="458" on="1"/>
        <pt x="185" y="458" on="0"/>
        <pt x="217" y="455" on="1"/>
        <pt x="255" y="515" on="0"/>
        <pt x="340" y="622" on="0"/>
        <pt x="430" y="703" on="0"/>
        <pt x="522" y="750" on="0"/>
        <pt x="567" y="750" on="1"/>
        <pt x="582" y="750" on="0"/>
        <pt x="626" y="744" on="0"/>
        <pt x="644" y="736" on="1"/>
        <pt x="487" y="0" on="1"/>
      </contour>
      <contour>
        <pt x="487" y="679" on="1"/>
        <pt x="442" y="655" on="0"/>
        <pt x="349" y="526" on="0"/>
        <pt x="307" y="442" on="1"/>
        <pt x="338" y="436" on="0"/>
        <pt x="400" y="419" on="0"/>
        <pt x="429" y="407" on="1"/>
      </contour>
      <contour>
        <pt x="389" y="1000" on="1"/>
        <pt x="494" y="1000" on="1"/>
        <pt x="523" y="811" on="1"/>
        <pt x="448" y="811" on="1"/>
      </contour>
    </TTGlyph>
    <TTGlyph name="Aogonek" xMin="-39" yMin="-193" xMax="644" yMax="750">
      <contour>
        <pt x="390" y="5" on="1"/>
        <pt x="383" y="0" on="1"/>
        <pt x="343" y="0" on="1"/>
        <pt x="420" y="363" on="1"/>
        <pt x="382" y="380" on="0"/>
        <pt x="319" y="396" on="0"/>
        <pt x="286" y="399" on="1"/>
        <pt x="258" y="338" on="0"/>
        <pt x="210" y="209" on="0"/>
        <pt x="176" y="89" on="0"/>
        <pt x="156" y="-16" on="0"/>
        <pt x="156" y="-54" on="1"/>
        <pt x="156" y="-83" on="0"/>
        <pt x="165" y="-107" on="0"/>
        <pt x="170" y="-114" on="1"/>
        <pt x="150" y="-114" on="0"/>
        <pt x="103" y="-110" on="0"/>
        <pt x="63" y="-90" on="0"/>
        <pt x="36" y="-47" on="0"/>
        <pt x="36" y="-8" on="1"/>
        <pt x="36" y="26" on="0"/>
        <pt x="57" y="118" on="0"/>
        <pt x="96" y="225" on="0"/>
        <pt x="150" y="342" on="0"/>
        <pt x="183" y="399" on="1"/>
        <pt x="136" y="396" on="0"/>
        <pt x="76" y="373" on="0"/>
        <pt x="66" y="347" on="1"/>
        <pt x="70" y="347" on="0"/>
        <pt x="79" y="327" on="0"/>
        <pt x="79" y="316" on="1"/>
        <pt x="79" y="298" on="0"/>
        <pt x="46" y="277" on="0"/>
        <pt x="23" y="277" on="1"/>
        <pt x="-3" y="277" on="0"/>
        <pt x="-39" y="306" on="0"/>
        <pt x="-39" y="335" on="1"/>
        <pt x="-39" y="360" on="0"/>
        <pt x="-8" y="405" on="0"/>
        <pt x="46" y="439" on="0"/>
        <pt x="120" y="458" on="0"/>
        <pt x="163" y="458" on="1"/>
        <pt x="185" y="458" on="0"/>
        <pt x="217" y="455" on="1"/>
        <pt x="255" y="515" on="0"/>
        <pt x="340" y="622" on="0"/>
        <pt x="430" y="703" on="0"/>
        <pt x="522" y="750" on="0"/>
        <pt x="567" y="750" on="1"/>
        <pt x="582" y="750" on="0"/>
        <pt x="626" y="744" on="0"/>
        <pt x="644" y="736" on="1"/>
        <pt x="487" y="0" on="1"/>
        <pt x="449" y="0" on="1"/>
        <pt x="451" y="2" on="0"/>
        <pt x="457" y="3" on="0"/>
        <pt x="460" y="5" on="1"/>
      </contour>
      <contour>
        <pt x="487" y="679" on="1"/>
        <pt x="442" y="655" on="0"/>
        <pt x="349" y="526" on="0"/>
        <pt x="307" y="442" on="1"/>
        <pt x="338" y="436" on="0"/>
        <pt x="400" y="419" on="0"/>
        <pt x="429" y="407" on="1"/>
      </contour>
      <contour>
        <pt x="313" y="-115" on="1"/>
        <pt x="313" y="-88" on="0"/>
        <pt x="348" y="-28" on="0"/>
        <pt x="383" y="0" on="1"/>
        <pt x="449" y="0" on="1"/>
        <pt x="429" y="-11" on="0"/>
        <pt x="396" y="-58" on="0"/>
        <pt x="396" y="-84" on="1"/>
        <pt x="396" y="-101" on="0"/>
        <pt x="414" y="-134" on="0"/>
        <pt x="435" y="-134" on="1"/>
        <pt x="453" y="-134" on="0"/>
        <pt x="488" y="-110" on="0"/>
        <pt x="503" y="-100" on="1"/>
        <pt x="502" y="-109" on="0"/>
        <pt x="501" y="-122" on="0"/>
        <pt x="501" y="-131" on="1"/>
        <pt x="492" y="-140" on="0"/>
        <pt x="470" y="-161" on="0"/>
        <pt x="443" y="-180" on="0"/>
        <pt x="411" y="-193" on="0"/>
        <pt x="392" y="-193" on="1"/>
        <pt x="371" y="-193" on="0"/>
        <pt x="342" y="-178" on="0"/>
        <pt x="322" y="-156" on="0"/>
        <pt x="313" y="-128" on="0"/>
      </contour>
    </TTGlyph>
    <TTGlyph name="Aring" xMin="-39" yMin="-114" xMax="644" yMax="963">
      <contour>
        <pt x="343" y="0" on="1"/>
        <pt x="420" y="363" on="1"/>
        <pt x="382" y="380" on="0"/>
        <pt x="319" y="396" on="0"/>
        <pt x="286" y="399" on="1"/>
        <pt x="258" y="338" on="0"/>
        <pt x="210" y="209" on="0"/>
        <pt x="176" y="89" on="0"/>
        <pt x="156" y="-16" on="0"/>
        <pt x="156" y="-54" on="1"/>
        <pt x="156" y="-83" on="0"/>
        <pt x="165" y="-107" on="0"/>
        <pt x="170" y="-114" on="1"/>
        <pt x="150" y="-114" on="0"/>
        <pt x="103" y="-110" on="0"/>
        <pt x="63" y="-90" on="0"/>
        <pt x="36" y="-47" on="0"/>
        <pt x="36" y="-8" on="1"/>
        <pt x="36" y="26" on="0"/>
        <pt x="57" y="118" on="0"/>
        <pt x="96" y="225" on="0"/>
        <pt x="150" y="342" on="0"/>
        <pt x="183" y="399" on="1"/>
        <pt x="136" y="396" on="0"/>
        <pt x="76" y="373" on="0"/>
        <pt x="66" y="347" on="1"/>
        <pt x="70" y="347" on="0"/>
        <pt x="79" y="327" on="0"/>
        <pt x="79" y="316" on="1"/>
        <pt x="79" y="298" on="0"/>
        <pt x="46" y="277" on="0"/>
        <pt x="23" y="277" on="1"/>
        <pt x="-3" y="277" on="0"/>
        <pt x="-39" y="306" on="0"/>
        <pt x="-39" y="335" on="1"/>
        <pt x="-39" y="360" on="0"/>
        <pt x="-8" y="405" on="0"/>
        <pt x="46" y="439" on="0"/>
        <pt x="120" y="458" on="0"/>
        <pt x="163" y="458" on="1"/>
        <pt x="185" y="458" on="0"/>
        <pt x="217" y="455" on="1"/>
        <pt x="255" y="515" on="0"/>
        <pt x="340" y="622" on="0"/>
        <pt x="430" y="703" on="0"/>
        <pt x="522" y="750" on="0"/>
        <pt x="567" y="750" on="1"/>
        <pt x="582" y="750" on="0"/>
        <pt x="626" y="744" on="0"/>
        <pt x="644" y="736" on="1"/>
        <pt x="487" y="0" on="1"/>
      </contour>
      <contour>
        <pt x="487" y="679" on="1"/>
        <pt x="442" y="655" on="0"/>
        <pt x="349" y="526" on="0"/>
        <pt x="307" y="442" on="1"/>
        <pt x="338" y="436" on="0"/>
        <pt x="400" y="419" on="0"/>
        <pt x="429" y="407" on="1"/>
      </contour>
      <contour>
        <pt x="522" y="963" on="1"/>
        <pt x="559" y="963" on="0"/>
        <pt x="594" y="918" on="0"/>
        <pt x="594" y="886" on="1"/>
        <pt x="594" y="853" on="0"/>
        <pt x="554" y="802" on="0"/>
        <pt x="507" y="802" on="1"/>
        <pt x="475" y="802" on="0"/>
        <pt x="437" y="843" on="0"/>
        <pt x="437" y="872" on="1"/>
        <pt x="437" y="885" on="0"/>
        <pt x="447" y="917" on="0"/>
        <pt x="467" y="945" on="0"/>
        <pt x="499" y="963" on="0"/>
      </contour>
      <contour>
        <pt x="557" y="883" on="1"/>
        <pt x="557" y="890" on="0"/>
        <pt x="556" y="907" on="0"/>
        <pt x="549" y="921" on="0"/>
        <pt x="536" y="930" on="0"/>
        <pt x="524" y="930" on="1"/>
        <pt x="498" y="930" on="0"/>
        <pt x="477" y="893" on="0"/>
        <pt x="477" y="874" on="1"/>
        <pt x="477" y="857" on="0"/>
        <pt x="493" y="837" on="0"/>
        <pt x="511" y="837" on="1"/>
        <pt x="534" y="837" on="0"/>
        <pt x="557" y="862" on="0"/>
      </contour>
    </TTGlyph>
    <TTGlyph name="Atilde" xMin="-39" yMin="-114" xMax="762" yMax="930">
      <contour>
        <pt x="343" y="0" on="1"/>
        <pt x="420" y="363" on="1"/>
        <pt x="382" y="380" on="0"/>
        <pt x="319" y="396" on="0"/>
        <pt x="286" y="399" on="1"/>
        <pt x="258" y="338" on="0"/>
        <pt x="210" y="209" on="0"/>
        <pt x="176" y="89" on="0"/>
        <pt x="156" y="-16" on="0"/>
        <pt x="156" y="-54" on="1"/>
        <pt x="156" y="-83" on="0"/>
        <pt x="165" y="-107" on="0"/>
        <pt x="170" y="-114" on="1"/>
        <pt x="150" y="-114" on="0"/>
        <pt x="103" y="-110" on="0"/>
        <pt x="63" y="-90" on="0"/>
        <pt x="36" y="-47" on="0"/>
        <pt x="36" y="-8" on="1"/>
        <pt x="36" y="26" on="0"/>
        <pt x="57" y="118" on="0"/>
        <pt x="96" y="225" on="0"/>
        <pt x="150" y="342" on="0"/>
        <pt x="183" y="399" on="1"/>
        <pt x="136" y="396" on="0"/>
        <pt x="76" y="373" on="0"/>
        <pt x="66" y="347" on="1"/>
        <pt x="70" y="347" on="0"/>
        <pt x="79" y="327" on="0"/>
        <pt x="79" y="316" on="1"/>
        <pt x="79" y="298" on="0"/>
        <pt x="46" y="277" on="0"/>
        <pt x="23" y="277" on="1"/>
        <pt x="-3" y="277" on="0"/>
        <pt x="-39" y="306" on="0"/>
        <pt x="-39" y="335" on="1"/>
        <pt x="-39" y="360" on="0"/>
        <pt x="-8" y="405" on="0"/>
        <pt x="46" y="439" on="0"/>
        <pt x="120" y="458" on="0"/>
        <pt x="163" y="458" on="1"/>
        <pt x="185" y="458" on="0"/>
        <pt x="217" y="455" on="1"/>
        <pt x="255" y="515" on="0"/>
        <pt x="340" y="622" on="0"/>
        <pt x="430" y="703" on="0"/>
        <pt x="522" y="750" on="0"/>
        <pt x="567" y="750" on="1"/>
        <pt x="582" y="750" on="0"/>
        <pt x="626" y="744" on="0"/>
        <pt x="644" y="736" on="1"/>
        <pt x="487" y="0" on="1"/>
      </contour>
      <contour>
        <pt x="762" y="919" on="1"/>
        <pt x="758" y="901" on="0"/>
        <pt x="728" y="866" on="0"/>
        <pt x="684" y="837" on="0"/>
        <pt x="629" y="819" on="0"/>
        <pt x="601" y="819" on="1"/>
        <pt x="576" y="819" on="0"/>
        <pt x="533" y="831" on="0"/>
        <pt x="493" y="844" on="0"/>
        <pt x="454" y="856" on="0"/>
        <pt x="433" y="856" on="1"/>
        <pt x="395" y="856" on="0"/>
        <pt x="367" y="830" on="1"/>
        <pt x="361" y="832" on="1"/>
        <pt x="385" y="880" on="0"/>
        <pt x="471" y="930" on="0"/>
        <pt x="528" y="930" on="1"/>
        <pt x="555" y="930" on="0"/>
        <pt x="597" y="920" on="0"/>
        <pt x="635" y="907" on="0"/>
        <pt x="671" y="897" on="0"/>
        <pt x="693" y="897" on="1"/>
        <pt x="712" y="897" on="0"/>
        <pt x="745" y="909" on="0"/>
        <pt x="756" y="920" on="1"/>
      </contour>
      <contour>
        <pt x="487" y="679" on="1"/>
        <pt x="442" y="655" on="0"/>
        <pt x="349" y="526" on="0"/>
        <pt x="307" y="442" on="1"/>
        <pt x="338" y="436" on="0"/>
        <pt x="400" y="419" on="0"/>
        <pt x="429" y="407" on="1"/>
      </contour>
    </TTGlyph>
    <TTGlyph name="B" xMin="57" yMin="-17" xMax="651" yMax="750">
      <contour>
        <pt x="429" y="656" on="1"/>
        <pt x="382" y="434" on="1"/>
        <pt x="388" y="434" on="1"/>
        <pt x="418" y="434" on="0"/>
        <pt x="470" y="464" on="0"/>
        <pt x="509" y="510" on="0"/>
        <pt x="532" y="568" on="0"/>
        <pt x="532" y="596" on="1"/>
        <pt x="532" y="617" on="0"/>
        <pt x="517" y="656" on="0"/>
        <pt x="486" y="686" on="0"/>
        <pt x="436" y="704" on="0"/>
        <pt x="400" y="704" on="1"/>
        <pt x="356" y="704" on="0"/>
        <pt x="267" y="674" on="0"/>
        <pt x="195" y="614" on="0"/>
        <pt x="150" y="523" on="0"/>
        <pt x="150" y="461" on="1"/>
        <pt x="150" y="443" on="0"/>
        <pt x="154" y="420" on="0"/>
        <pt x="158" y="405" on="0"/>
        <pt x="163" y="396" on="0"/>
        <pt x="164" y="393" on="1"/>
        <pt x="114" y="393" on="0"/>
        <pt x="57" y="434" on="0"/>
        <pt x="57" y="485" on="1"/>
        <pt x="57" y="537" on="0"/>
        <pt x="117" y="632" on="0"/>
        <pt x="218" y="706" on="0"/>
        <pt x="349" y="750" on="0"/>
        <pt x="420" y="750" on="1"/>
        <pt x="475" y="750" on="0"/>
        <pt x="555" y="723" on="0"/>
        <pt x="608" y="679" on="0"/>
        <pt x="633" y="622" on="0"/>
        <pt x="633" y="591" on="1"/>
        <pt x="633" y="546" on="0"/>
        <pt x="582" y="460" on="0"/>
        <pt x="533" y="432" on="1"/>
        <pt x="565" y="426" on="0"/>
        <pt x="610" y="395" on="0"/>
        <pt x="638" y="352" on="0"/>
        <pt x="651" y="299" on="0"/>
        <pt x="651" y="271" on="1"/>
        <pt x="651" y="235" on="0"/>
        <pt x="630" y="136" on="0"/>
        <pt x="579" y="46" on="0"/>
        <pt x="495" y="-17" on="0"/>
        <pt x="432" y="-17" on="1"/>
        <pt x="416" y="-17" on="0"/>
        <pt x="381" y="-11" on="0"/>
        <pt x="352" y="5" on="0"/>
        <pt x="333" y="34" on="0"/>
        <pt x="333" y="57" on="1"/>
        <pt x="333" y="82" on="0"/>
        <pt x="346" y="115" on="1"/>
        <pt x="365" y="95" on="0"/>
        <pt x="396" y="79" on="0"/>
        <pt x="413" y="79" on="1"/>
        <pt x="440" y="79" on="0"/>
        <pt x="478" y="114" on="0"/>
        <pt x="502" y="167" on="0"/>
        <pt x="512" y="230" on="0"/>
        <pt x="512" y="259" on="1"/>
        <pt x="512" y="285" on="0"/>
        <pt x="503" y="331" on="0"/>
        <pt x="481" y="366" on="0"/>
        <pt x="444" y="386" on="0"/>
        <pt x="417" y="386" on="1"/>
        <pt x="411" y="386" on="0"/>
        <pt x="385" y="385" on="0"/>
        <pt x="371" y="383" on="1"/>
        <pt x="289" y="0" on="1"/>
        <pt x="145" y="0" on="1"/>
        <pt x="281" y="636" on="1"/>
      </contour>
    </TTGlyph>
    <TTGlyph name="B.salt" xMin="57" yMin="-28" xMax="649" yMax="750">
      <contour>
        <pt x="429" y="656" on="1"/>
        <pt x="382" y="434" on="1"/>
        <pt x="388" y="434" on="1"/>
        <pt x="419" y="434" on="0"/>
        <pt x="471" y="464" on="0"/>
        <pt x="509" y="512" on="0"/>
        <pt x="530" y="572" on="0"/>
        <pt x="530" y="602" on="1"/>
        <pt x="530" y="622" on="0"/>
        <pt x="519" y="659" on="0"/>
        <pt x="491" y="687" on="0"/>
        <pt x="442" y="704" on="0"/>
        <pt x="404" y="704" on="1"/>
        <pt x="352" y="704" on="0"/>
        <pt x="260" y="671" on="0"/>
        <pt x="191" y="608" on="0"/>
        <pt x="150" y="518" on="0"/>
        <pt x="150" y="461" on="1"/>
        <pt x="150" y="442" on="0"/>
        <pt x="154" y="418" on="0"/>
        <pt x="159" y="404" on="0"/>
        <pt x="164" y="396" on="0"/>
        <pt x="164" y="393" on="1"/>
        <pt x="114" y="393" on="0"/>
        <pt x="57" y="434" on="0"/>
        <pt x="57" y="485" on="1"/>
        <pt x="57" y="537" on="0"/>
        <pt x="118" y="633" on="0"/>
        <pt x="219" y="706" on="0"/>
        <pt x="348" y="750" on="0"/>
        <pt x="417" y="750" on="1"/>
        <pt x="471" y="750" on="0"/>
        <pt x="553" y="723" on="0"/>
        <pt x="607" y="678" on="0"/>
        <pt x="635" y="620" on="0"/>
        <pt x="635" y="589" on="1"/>
        <pt x="635" y="545" on="0"/>
        <pt x="583" y="461" on="0"/>
        <pt x="535" y="432" on="1"/>
        <pt x="596" y="421" on="0"/>
        <pt x="649" y="337" on="0"/>
        <pt x="649" y="283" on="1"/>
        <pt x="649" y="232" on="0"/>
        <pt x="611" y="122" on="0"/>
        <pt x="546" y="31" on="0"/>
        <pt x="461" y="-28" on="0"/>
        <pt x="414" y="-28" on="1"/>
        <pt x="385" y="-28" on="0"/>
        <pt x="324" y="-1" on="0"/>
        <pt x="295" y="30" on="1"/>
        <pt x="289" y="0" on="1"/>
        <pt x="145" y="0" on="1"/>
        <pt x="281" y="636" on="1"/>
      </contour>
      <contour>
        <pt x="370" y="64" on="1"/>
        <pt x="397" y="64" on="0"/>
        <pt x="444" y="104" on="0"/>
        <pt x="480" y="167" on="0"/>
        <pt x="500" y="244" on="0"/>
        <pt x="500" y="280" on="1"/>
        <pt x="500" y="301" on="0"/>
        <pt x="491" y="340" on="0"/>
        <pt x="472" y="369" on="0"/>
        <pt x="440" y="386" on="0"/>
        <pt x="416" y="386" on="1"/>
        <pt x="411" y="386" on="0"/>
        <pt x="385" y="385" on="0"/>
        <pt x="371" y="383" on="1"/>
        <pt x="309" y="93" on="1"/>
        <pt x="324" y="77" on="0"/>
        <pt x="355" y="64" on="0"/>
      </contour>
    </TTGlyph>
    <TTGlyph name="C" xMin="45" yMin="-16" xMax="561" yMax="750">
      <contour>
        <pt x="549" y="170" on="1"/>
        <pt x="529" y="125" on="0"/>
        <pt x="465" y="56" on="0"/>
        <pt x="387" y="8" on="0"/>
        <pt x="297" y="-16" on="0"/>
        <pt x="251" y="-16" on="1"/>
        <pt x="153" y="-16" on="0"/>
        <pt x="45" y="101" on="0"/>
        <pt x="45" y="229" on="1"/>
        <pt x="45" y="274" on="0"/>
        <pt x="60" y="387" on="0"/>
        <pt x="94" y="502" on="0"/>
        <pt x="148" y="612" on="0"/>
        <pt x="226" y="698" on="0"/>
        <pt x="331" y="750" on="0"/>
        <pt x="398" y="750" on="1"/>
        <pt x="431" y="750" on="0"/>
        <pt x="491" y="735" on="0"/>
        <pt x="535" y="703" on="0"/>
        <pt x="561" y="651" on="0"/>
        <pt x="561" y="614" on="1"/>
        <pt x="561" y="576" on="0"/>
        <pt x="529" y="524" on="0"/>
        <pt x="491" y="524" on="1"/>
        <pt x="479" y="524" on="0"/>
        <pt x="448" y="533" on="0"/>
        <pt x="434" y="550" on="1"/>
        <pt x="452" y="559" on="0"/>
        <pt x="480" y="614" on="0"/>
        <pt x="480" y="641" on="1"/>
        <pt x="480" y="666" on="0"/>
        <pt x="452" y="703" on="0"/>
        <pt x="423" y="703" on="1"/>
        <pt x="394" y="703" on="0"/>
        <pt x="340" y="662" on="0"/>
        <pt x="293" y="593" on="0"/>
        <pt x="254" y="500" on="0"/>
        <pt x="226" y="397" on="0"/>
        <pt x="211" y="289" on="0"/>
        <pt x="211" y="239" on="1"/>
        <pt x="211" y="203" on="0"/>
        <pt x="221" y="143" on="0"/>
        <pt x="247" y="99" on="0"/>
        <pt x="294" y="75" on="0"/>
        <pt x="330" y="75" on="1"/>
        <pt x="387" y="75" on="0"/>
        <pt x="491" y="132" on="0"/>
        <pt x="526" y="180" on="1"/>
      </contour>
    </TTGlyph>
    <TTGlyph name="Cacute" xMin="45" yMin="-16" xMax="561" yMax="1000">
      <contour>
        <pt x="549" y="170" on="1"/>
        <pt x="529" y="125" on="0"/>
        <pt x="465" y="56" on="0"/>
        <pt x="387" y="8" on="0"/>
        <pt x="297" y="-16" on="0"/>
        <pt x="251" y="-16" on="1"/>
        <pt x="153" y="-16" on="0"/>
        <pt x="45" y="101" on="0"/>
        <pt x="45" y="229" on="1"/>
        <pt x="45" y="274" on="0"/>
        <pt x="60" y="387" on="0"/>
        <pt x="94" y="502" on="0"/>
        <pt x="148" y="612" on="0"/>
        <pt x="226" y="698" on="0"/>
        <pt x="331" y="750" on="0"/>
        <pt x="398" y="750" on="1"/>
        <pt x="431" y="750" on="0"/>
        <pt x="491" y="735" on="0"/>
        <pt x="535" y="703" on="0"/>
        <pt x="561" y="651" on="0"/>
        <pt x="561" y="614" on="1"/>
        <pt x="561" y="576" on="0"/>
        <pt x="529" y="524" on="0"/>
        <pt x="491" y="524" on="1"/>
        <pt x="479" y="524" on="0"/>
        <pt x="448" y="533" on="0"/>
        <pt x="434" y="550" on="1"/>
        <pt x="452" y="559" on="0"/>
        <pt x="480" y="614" on="0"/>
        <pt x="480" y="641" on="1"/>
        <pt x="480" y="666" on="0"/>
        <pt x="452" y="703" on="0"/>
        <pt x="423" y="703" on="1"/>
        <pt x="394" y="703" on="0"/>
        <pt x="340" y="662" on="0"/>
        <pt x="293" y="593" on="0"/>
        <pt x="254" y="500" on="0"/>
        <pt x="226" y="397" on="0"/>
        <pt x="211" y="289" on="0"/>
        <pt x="211" y="239" on="1"/>
        <pt x="211" y="203" on="0"/>
        <pt x="221" y="143" on="0"/>
        <pt x="247" y="99" on="0"/>
        <pt x="294" y="75" on="0"/>
        <pt x="330" y="75" on="1"/>
        <pt x="387" y="75" on="0"/>
        <pt x="491" y="132" on="0"/>
        <pt x="526" y="180" on="1"/>
      </contour>
      <contour>
        <pt x="454" y="1000" on="1"/>
        <pt x="559" y="1000" on="1"/>
        <pt x="438" y="811" on="1"/>
        <pt x="363" y="811" on="1"/>
      </contour>
    </TTGlyph>
    <TTGlyph name="Ccaron" xMin="45" yMin="-16" xMax="611" yMax="1000">
      <contour>
        <pt x="549" y="170" on="1"/>
        <pt x="529" y="125" on="0"/>
        <pt x="465" y="56" on="0"/>
        <pt x="387" y="8" on="0"/>
        <pt x="297" y="-16" on="0"/>
        <pt x="251" y="-16" on="1"/>
        <pt x="153" y="-16" on="0"/>
        <pt x="45" y="101" on="0"/>
        <pt x="45" y="229" on="1"/>
        <pt x="45" y="274" on="0"/>
        <pt x="60" y="387" on="0"/>
        <pt x="94" y="502" on="0"/>
        <pt x="148" y="612" on="0"/>
        <pt x="226" y="698" on="0"/>
        <pt x="331" y="750" on="0"/>
        <pt x="398" y="750" on="1"/>
        <pt x="431" y="750" on="0"/>
        <pt x="491" y="735" on="0"/>
        <pt x="535" y="703" on="0"/>
        <pt x="561" y="651" on="0"/>
        <pt x="561" y="614" on="1"/>
        <pt x="561" y="576" on="0"/>
        <pt x="529" y="524" on="0"/>
        <pt x="491" y="524" on="1"/>
        <pt x="479" y="524" on="0"/>
        <pt x="448" y="533" on="0"/>
        <pt x="434" y="550" on="1"/>
        <pt x="452" y="559" on="0"/>
        <pt x="480" y="614" on="0"/>
        <pt x="480" y="641" on="1"/>
        <pt x="480" y="666" on="0"/>
        <pt x="452" y="703" on="0"/>
        <pt x="423" y="703" on="1"/>
        <pt x="394" y="703" on="0"/>
        <pt x="340" y="662" on="0"/>
        <pt x="293" y="593" on="0"/>
        <pt x="254" y="500" on="0"/>
        <pt x="226" y="397" on="0"/>
        <pt x="211" y="289" on="0"/>
        <pt x="211" y="239" on="1"/>
        <pt x="211" y="203" on="0"/>
        <pt x="221" y="143" on="0"/>
        <pt x="247" y="99" on="0"/>
        <pt x="294" y="75" on="0"/>
        <pt x="330" y="75" on="1"/>
        <pt x="387" y="75" on="0"/>
        <pt x="491" y="132" on="0"/>
        <pt x="526" y="180" on="1"/>
      </contour>
      <contour>
        <pt x="350" y="1000" on="1"/>
        <pt x="410" y="920" on="1"/>
        <pt x="567" y="1000" on="1"/>
        <pt x="611" y="1000" on="1"/>
        <pt x="399" y="811" on="1"/>
        <pt x="378" y="811" on="1"/>
        <pt x="318" y="1000" on="1"/>
      </contour>
    </TTGlyph>
    <TTGlyph name="Ccedilla" xMin="45" yMin="-218" xMax="561" yMax="750">
      <contour>
        <pt x="388" y="-108" on="1"/>
        <pt x="388" y="-135" on="0"/>
        <pt x="367" y="-176" on="0"/>
        <pt x="333" y="-204" on="0"/>
        <pt x="290" y="-218" on="0"/>
        <pt x="268" y="-218" on="1"/>
        <pt x="230" y="-218" on="0"/>
        <pt x="183" y="-201" on="0"/>
        <pt x="161" y="-190" on="1"/>
        <pt x="168" y="-178" on="0"/>
        <pt x="187" y="-158" on="0"/>
        <pt x="201" y="-158" on="1"/>
        <pt x="216" y="-158" on="0"/>
        <pt x="235" y="-166" on="0"/>
        <pt x="250" y="-177" on="0"/>
        <pt x="264" y="-185" on="0"/>
        <pt x="275" y="-185" on="1"/>
        <pt x="288" y="-185" on="0"/>
        <pt x="305" y="-159" on="0"/>
        <pt x="305" y="-143" on="1"/>
        <pt x="305" y="-129" on="0"/>
        <pt x="287" y="-107" on="0"/>
        <pt x="266" y="-107" on="1"/>
        <pt x="246" y="-107" on="0"/>
        <pt x="222" y="-115" on="0"/>
        <pt x="214" y="-119" on="1"/>
        <pt x="251" y="-16" on="1"/>
        <pt x="153" y="-16" on="0"/>
        <pt x="45" y="101" on="0"/>
        <pt x="45" y="229" on="1"/>
        <pt x="45" y="274" on="0"/>
        <pt x="60" y="387" on="0"/>
        <pt x="94" y="502" on="0"/>
        <pt x="148" y="612" on="0"/>
        <pt x="226" y="698" on="0"/>
        <pt x="331" y="750" on="0"/>
        <pt x="398" y="750" on="1"/>
        <pt x="431" y="750" on="0"/>
        <pt x="491" y="735" on="0"/>
        <pt x="535" y="703" on="0"/>
        <pt x="561" y="651" on="0"/>
        <pt x="561" y="614" on="1"/>
        <pt x="561" y="576" on="0"/>
        <pt x="529" y="524" on="0"/>
        <pt x="491" y="524" on="1"/>
        <pt x="479" y="524" on="0"/>
        <pt x="448" y="533" on="0"/>
        <pt x="434" y="550" on="1"/>
        <pt x="452" y="559" on="0"/>
        <pt x="480" y="614" on="0"/>
        <pt x="480" y="641" on="1"/>
        <pt x="480" y="666" on="0"/>
        <pt x="452" y="703" on="0"/>
        <pt x="423" y="703" on="1"/>
        <pt x="394" y="703" on="0"/>
        <pt x="340" y="662" on="0"/>
        <pt x="293" y="593" on="0"/>
        <pt x="254" y="500" on="0"/>
        <pt x="226" y="397" on="0"/>
        <pt x="211" y="289" on="0"/>
        <pt x="211" y="239" on="1"/>
        <pt x="211" y="203" on="0"/>
        <pt x="221" y="143" on="0"/>
        <pt x="247" y="99" on="0"/>
        <pt x="294" y="75" on="0"/>
        <pt x="330" y="75" on="1"/>
        <pt x="387" y="75" on="0"/>
        <pt x="491" y="132" on="0"/>
        <pt x="526" y="180" on="1"/>
        <pt x="549" y="170" on="1"/>
        <pt x="531" y="130" on="0"/>
        <pt x="477" y="67" on="0"/>
        <pt x="410" y="20" on="0"/>
        <pt x="334" y="-8" on="0"/>
        <pt x="294" y="-13" on="1"/>
        <pt x="273" y="-66" on="1"/>
        <pt x="305" y="-58" on="0"/>
        <pt x="326" y="-58" on="1"/>
        <pt x="358" y="-58" on="0"/>
        <pt x="388" y="-85" on="0"/>
      </contour>
    </TTGlyph>
    <TTGlyph name="Ccircumflex" xMin="45" yMin="-16" xMax="561" yMax="1000">
      <contour>
        <pt x="549" y="170" on="1"/>
        <pt x="529" y="125" on="0"/>
        <pt x="465" y="56" on="0"/>
        <pt x="387" y="8" on="0"/>
        <pt x="297" y="-16" on="0"/>
        <pt x="251" y="-16" on="1"/>
        <pt x="153" y="-16" on="0"/>
        <pt x="45" y="101" on="0"/>
        <pt x="45" y="229" on="1"/>
        <pt x="45" y="274" on="0"/>
        <pt x="60" y="387" on="0"/>
        <pt x="94" y="502" on="0"/>
        <pt x="148" y="612" on="0"/>
        <pt x="226" y="698" on="0"/>
        <pt x="331" y="750" on="0"/>
        <pt x="398" y="750" on="1"/>
        <pt x="431" y="750" on="0"/>
        <pt x="491" y="735" on="0"/>
        <pt x="535" y="703" on="0"/>
        <pt x="561" y="651" on="0"/>
        <pt x="561" y="614" on="1"/>
        <pt x="561" y="576" on="0"/>
        <pt x="529" y="524" on="0"/>
        <pt x="491" y="524" on="1"/>
        <pt x="479" y="524" on="0"/>
        <pt x="448" y="533" on="0"/>
        <pt x="434" y="550" on="1"/>
        <pt x="452" y="559" on="0"/>
        <pt x="480" y="614" on="0"/>
        <pt x="480" y="641" on="1"/>
        <pt x="480" y="666" on="0"/>
        <pt x="452" y="703" on="0"/>
        <pt x="423" y="703" on="1"/>
        <pt x="394" y="703" on="0"/>
        <pt x="340" y="662" on="0"/>
        <pt x="293" y="593" on="0"/>
        <pt x="254" y="500" on="0"/>
        <pt x="226" y="397" on="0"/>
        <pt x="211" y="289" on="0"/>
        <pt x="211" y="239" on="1"/>
        <pt x="211" y="203" on="0"/>
        <pt x="221" y="143" on="0"/>
        <pt x="247" y="99" on="0"/>
        <pt x="294" y="75" on="0"/>
        <pt x="330" y="75" on="1"/>
        <pt x="387" y="75" on="0"/>
        <pt x="491" y="132" on="0"/>
        <pt x="526" y="180" on="1"/>
      </contour>
      <contour>
        <pt x="489" y="811" on="1"/>
        <pt x="429" y="891" on="1"/>
        <pt x="272" y="811" on="1"/>
        <pt x="228" y="811" on="1"/>
        <pt x="440" y="1000" on="1"/>
        <pt x="461" y="1000" on="1"/>
        <pt x="521" y="811" on="1"/>
      </contour>
    </TTGlyph>
    <TTGlyph name="D" xMin="57" yMin="-13" xMax="696" yMax="750">
      <contour>
        <pt x="429" y="656" on="1"/>
        <pt x="309" y="95" on="1"/>
        <pt x="336" y="75" on="0"/>
        <pt x="366" y="75" on="1"/>
        <pt x="411" y="75" on="0"/>
        <pt x="482" y="157" on="0"/>
        <pt x="531" y="283" on="0"/>
        <pt x="558" y="434" on="0"/>
        <pt x="558" y="502" on="1"/>
        <pt x="558" y="558" on="0"/>
        <pt x="539" y="635" on="0"/>
        <pt x="501" y="683" on="0"/>
        <pt x="443" y="704" on="0"/>
        <pt x="404" y="704" on="1"/>
        <pt x="353" y="704" on="0"/>
        <pt x="260" y="671" on="0"/>
        <pt x="191" y="608" on="0"/>
        <pt x="150" y="518" on="0"/>
        <pt x="150" y="461" on="1"/>
        <pt x="150" y="443" on="0"/>
        <pt x="154" y="420" on="0"/>
        <pt x="158" y="405" on="0"/>
        <pt x="163" y="396" on="0"/>
        <pt x="164" y="393" on="1"/>
        <pt x="114" y="393" on="0"/>
        <pt x="57" y="435" on="0"/>
        <pt x="57" y="486" on="1"/>
        <pt x="57" y="537" on="0"/>
        <pt x="117" y="633" on="0"/>
        <pt x="218" y="706" on="0"/>
        <pt x="351" y="750" on="0"/>
        <pt x="425" y="750" on="1"/>
        <pt x="499" y="750" on="0"/>
        <pt x="602" y="705" on="0"/>
        <pt x="667" y="625" on="0"/>
        <pt x="696" y="518" on="0"/>
        <pt x="696" y="456" on="1"/>
        <pt x="696" y="401" on="0"/>
        <pt x="676" y="289" on="0"/>
        <pt x="639" y="185" on="0"/>
        <pt x="587" y="93" on="0"/>
        <pt x="526" y="26" on="0"/>
        <pt x="456" y="-13" on="0"/>
        <pt x="419" y="-13" on="1"/>
        <pt x="390" y="-13" on="0"/>
        <pt x="329" y="12" on="0"/>
        <pt x="297" y="40" on="1"/>
        <pt x="289" y="0" on="1"/>
        <pt x="145" y="0" on="1"/>
        <pt x="281" y="636" on="1"/>
      </contour>
    </TTGlyph>
    <TTGlyph name="E" xMin="13" yMin="-18" xMax="499" yMax="752">
      <contour>
        <pt x="490" y="170" on="1"/>
        <pt x="470" y="126" on="0"/>
        <pt x="408" y="56" on="0"/>
        <pt x="330" y="8" on="0"/>
        <pt x="242" y="-18" on="0"/>
        <pt x="197" y="-18" on="1"/>
        <pt x="149" y="-18" on="0"/>
        <pt x="79" y="11" on="0"/>
        <pt x="34" y="59" on="0"/>
        <pt x="13" y="123" on="0"/>
        <pt x="13" y="158" on="1"/>
        <pt x="13" y="197" on="0"/>
        <pt x="38" y="280" on="0"/>
        <pt x="86" y="352" on="0"/>
        <pt x="155" y="406" on="0"/>
        <pt x="198" y="417" on="1"/>
        <pt x="166" y="440" on="0"/>
        <pt x="137" y="503" on="0"/>
        <pt x="137" y="537" on="1"/>
        <pt x="137" y="576" on="0"/>
        <pt x="169" y="652" on="0"/>
        <pt x="228" y="714" on="0"/>
        <pt x="308" y="752" on="0"/>
        <pt x="356" y="752" on="1"/>
        <pt x="386" y="752" on="0"/>
        <pt x="438" y="736" on="0"/>
        <pt x="477" y="704" on="0"/>
        <pt x="499" y="658" on="0"/>
        <pt x="499" y="627" on="1"/>
        <pt x="499" y="582" on="0"/>
        <pt x="455" y="523" on="0"/>
        <pt x="425" y="523" on="1"/>
        <pt x="398" y="523" on="0"/>
        <pt x="378" y="550" on="1"/>
        <pt x="387" y="553" on="0"/>
        <pt x="403" y="571" on="0"/>
        <pt x="415" y="596" on="0"/>
        <pt x="422" y="624" on="0"/>
        <pt x="422" y="637" on="1"/>
        <pt x="422" y="668" on="0"/>
        <pt x="387" y="693" on="0"/>
        <pt x="367" y="693" on="1"/>
        <pt x="345" y="693" on="0"/>
        <pt x="307" y="669" on="0"/>
        <pt x="280" y="629" on="0"/>
        <pt x="265" y="578" on="0"/>
        <pt x="265" y="552" on="1"/>
        <pt x="265" y="530" on="0"/>
        <pt x="276" y="488" on="0"/>
        <pt x="301" y="452" on="0"/>
        <pt x="339" y="425" on="0"/>
        <pt x="366" y="418" on="1"/>
        <pt x="326" y="409" on="0"/>
        <pt x="260" y="358" on="0"/>
        <pt x="213" y="290" on="0"/>
        <pt x="187" y="213" on="0"/>
        <pt x="187" y="179" on="1"/>
        <pt x="187" y="137" on="0"/>
        <pt x="231" y="78" on="0"/>
        <pt x="282" y="78" on="1"/>
        <pt x="305" y="78" on="0"/>
        <pt x="358" y="91" on="0"/>
        <pt x="409" y="117" on="0"/>
        <pt x="453" y="155" on="0"/>
        <pt x="467" y="180" on="1"/>
      </contour>
    </TTGlyph>
    <TTGlyph name="E.salt" xMin="63" yMin="0" xMax="660" yMax="750">
      <contour>
        <pt x="530" y="419" on="1"/>
        <pt x="510" y="345" on="1"/>
        <pt x="360" y="345" on="1"/>
        <pt x="307" y="101" on="1"/>
        <pt x="531" y="101" on="1"/>
        <pt x="511" y="0" on="1"/>
        <pt x="142" y="0" on="1"/>
        <pt x="286" y="668" on="1"/>
        <pt x="257" y="667" on="0"/>
        <pt x="209" y="647" on="0"/>
        <pt x="175" y="600" on="0"/>
        <pt x="156" y="521" on="0"/>
        <pt x="156" y="461" on="1"/>
        <pt x="156" y="442" on="0"/>
        <pt x="160" y="418" on="0"/>
        <pt x="165" y="404" on="0"/>
        <pt x="170" y="396" on="0"/>
        <pt x="170" y="393" on="1"/>
        <pt x="118" y="393" on="0"/>
        <pt x="63" y="436" on="0"/>
        <pt x="63" y="490" on="1"/>
        <pt x="63" y="540" on="0"/>
        <pt x="100" y="634" on="0"/>
        <pt x="182" y="706" on="0"/>
        <pt x="311" y="750" on="0"/>
        <pt x="404" y="750" on="1"/>
        <pt x="434" y="750" on="0"/>
        <pt x="522" y="738" on="0"/>
        <pt x="570" y="738" on="1"/>
        <pt x="593" y="738" on="0"/>
        <pt x="639" y="743" on="0"/>
        <pt x="660" y="750" on="1"/>
        <pt x="655" y="734" on="0"/>
        <pt x="646" y="698" on="0"/>
        <pt x="627" y="664" on="0"/>
        <pt x="594" y="636" on="0"/>
        <pt x="565" y="630" on="1"/>
        <pt x="530" y="630" on="0"/>
        <pt x="460" y="641" on="0"/>
        <pt x="425" y="649" on="1"/>
        <pt x="376" y="419" on="1"/>
      </contour>
    </TTGlyph>
    <TTGlyph name="E_x" xMin="13" yMin="-16" xMax="845" yMax="752">
      <contour>
        <pt x="602" y="462" on="1"/>
        <pt x="634" y="284" on="1"/>
        <pt x="679" y="332" on="0"/>
        <pt x="729" y="416" on="0"/>
        <pt x="729" y="443" on="1"/>
        <pt x="729" y="451" on="0"/>
        <pt x="728" y="455" on="1"/>
        <pt x="723" y="454" on="0"/>
        <pt x="715" y="453" on="0"/>
        <pt x="711" y="453" on="1"/>
        <pt x="685" y="453" on="0"/>
        <pt x="664" y="486" on="0"/>
        <pt x="664" y="509" on="1"/>
        <pt x="664" y="532" on="0"/>
        <pt x="697" y="556" on="0"/>
        <pt x="720" y="556" on="1"/>
        <pt x="754" y="556" on="0"/>
        <pt x="788" y="504" on="0"/>
        <pt x="788" y="467" on="1"/>
        <pt x="788" y="418" on="0"/>
        <pt x="719" y="307" on="0"/>
        <pt x="645" y="229" on="1"/>
        <pt x="654" y="179" on="1"/>
        <pt x="657" y="165" on="0"/>
        <pt x="663" y="134" on="0"/>
        <pt x="676" y="108" on="0"/>
        <pt x="696" y="91" on="0"/>
        <pt x="713" y="91" on="1"/>
        <pt x="742" y="91" on="0"/>
        <pt x="792" y="141" on="0"/>
        <pt x="803" y="179" on="1"/>
        <pt x="845" y="179" on="1"/>
        <pt x="824" y="118" on="0"/>
        <pt x="769" y="45" on="0"/>
        <pt x="713" y="6" on="0"/>
        <pt x="659" y="-6" on="0"/>
        <pt x="639" y="-6" on="1"/>
        <pt x="591" y="-6" on="0"/>
        <pt x="541" y="56" on="0"/>
        <pt x="524" y="126" on="1"/>
        <pt x="497" y="94" on="0"/>
        <pt x="421" y="42" on="0"/>
        <pt x="336" y="5" on="0"/>
        <pt x="245" y="-16" on="0"/>
        <pt x="203" y="-16" on="1"/>
        <pt x="164" y="-16" on="0"/>
        <pt x="95" y="3" on="0"/>
        <pt x="43" y="45" on="0"/>
        <pt x="13" y="111" on="0"/>
        <pt x="13" y="158" on="1"/>
        <pt x="13" y="197" on="0"/>
        <pt x="38" y="280" on="0"/>
        <pt x="86" y="352" on="0"/>
        <pt x="155" y="406" on="0"/>
        <pt x="198" y="417" on="1"/>
        <pt x="166" y="440" on="0"/>
        <pt x="137" y="503" on="0"/>
        <pt x="137" y="537" on="1"/>
        <pt x="137" y="576" on="0"/>
        <pt x="169" y="652" on="0"/>
        <pt x="228" y="714" on="0"/>
        <pt x="308" y="752" on="0"/>
        <pt x="356" y="752" on="1"/>
        <pt x="386" y="752" on="0"/>
        <pt x="438" y="736" on="0"/>
        <pt x="477" y="704" on="0"/>
        <pt x="499" y="658" on="0"/>
        <pt x="499" y="627" on="1"/>
        <pt x="499" y="582" on="0"/>
        <pt x="455" y="523" on="0"/>
        <pt x="425" y="523" on="1"/>
        <pt x="398" y="523" on="0"/>
        <pt x="378" y="550" on="1"/>
        <pt x="387" y="553" on="0"/>
        <pt x="403" y="571" on="0"/>
        <pt x="415" y="596" on="0"/>
        <pt x="422" y="624" on="0"/>
        <pt x="422" y="637" on="1"/>
        <pt x="422" y="668" on="0"/>
        <pt x="387" y="693" on="0"/>
        <pt x="367" y="693" on="1"/>
        <pt x="345" y="693" on="0"/>
        <pt x="307" y="669" on="0"/>
        <pt x="280" y="629" on="0"/>
        <pt x="265" y="578" on="0"/>
        <pt x="265" y="552" on="1"/>
        <pt x="265" y="530" on="0"/>
        <pt x="276" y="488" on="0"/>
        <pt x="301" y="452" on="0"/>
        <pt x="339" y="425" on="0"/>
        <pt x="366" y="418" on="1"/>
        <pt x="326" y="409" on="0"/>
        <pt x="260" y="358" on="0"/>
        <pt x="213" y="290" on="0"/>
        <pt x="187" y="213" on="0"/>
        <pt x="187" y="179" on="1"/>
        <pt x="187" y="125" on="0"/>
        <pt x="245" y="77" on="0"/>
        <pt x="289" y="77" on="1"/>
        <pt x="316" y="77" on="0"/>
        <pt x="376" y="93" on="0"/>
        <pt x="435" y="122" on="0"/>
        <pt x="489" y="163" on="0"/>
        <pt x="511" y="188" on="1"/>
        <pt x="461" y="462" on="1"/>
      </contour>
    </TTGlyph>
    <TTGlyph name="Eacute" xMin="13" yMin="-18" xMax="551" yMax="1000">
      <contour>
        <pt x="490" y="170" on="1"/>
        <pt x="470" y="126" on="0"/>
        <pt x="408" y="56" on="0"/>
        <pt x="330" y="8" on="0"/>
        <pt x="242" y="-18" on="0"/>
        <pt x="197" y="-18" on="1"/>
        <pt x="149" y="-18" on="0"/>
        <pt x="79" y="11" on="0"/>
        <pt x="34" y="59" on="0"/>
        <pt x="13" y="123" on="0"/>
        <pt x="13" y="158" on="1"/>
        <pt x="13" y="197" on="0"/>
        <pt x="38" y="280" on="0"/>
        <pt x="86" y="352" on="0"/>
        <pt x="155" y="406" on="0"/>
        <pt x="198" y="417" on="1"/>
        <pt x="166" y="440" on="0"/>
        <pt x="137" y="503" on="0"/>
        <pt x="137" y="537" on="1"/>
        <pt x="137" y="576" on="0"/>
        <pt x="169" y="652" on="0"/>
        <pt x="228" y="714" on="0"/>
        <pt x="308" y="752" on="0"/>
        <pt x="356" y="752" on="1"/>
        <pt x="386" y="752" on="0"/>
        <pt x="438" y="736" on="0"/>
        <pt x="477" y="704" on="0"/>
        <pt x="499" y="658" on="0"/>
        <pt x="499" y="627" on="1"/>
        <pt x="499" y="582" on="0"/>
        <pt x="455" y="523" on="0"/>
        <pt x="425" y="523" on="1"/>
        <pt x="398" y="523" on="0"/>
        <pt x="378" y="550" on="1"/>
        <pt x="387" y="553" on="0"/>
        <pt x="403" y="571" on="0"/>
        <pt x="415" y="596" on="0"/>
        <pt x="422" y="624" on="0"/>
        <pt x="422" y="637" on="1"/>
        <pt x="422" y="668" on="0"/>
        <pt x="387" y="693" on="0"/>
        <pt x="367" y="693" on="1"/>
        <pt x="345" y="693" on="0"/>
        <pt x="307" y="669" on="0"/>
        <pt x="280" y="629" on="0"/>
        <pt x="265" y="578" on="0"/>
        <pt x="265" y="552" on="1"/>
        <pt x="265" y="530" on="0"/>
        <pt x="276" y="488" on="0"/>
        <pt x="301" y="452" on="0"/>
        <pt x="339" y="425" on="0"/>
        <pt x="366" y="418" on="1"/>
        <pt x="326" y="409" on="0"/>
        <pt x="260" y="358" on="0"/>
        <pt x="213" y="290" on="0"/>
        <pt x="187" y="213" on="0"/>
        <pt x="187" y="179" on="1"/>
        <pt x="187" y="137" on="0"/>
        <pt x="231" y="78" on="0"/>
        <pt x="282" y="78" on="1"/>
        <pt x="305" y="78" on="0"/>
        <pt x="358" y="91" on="0"/>
        <pt x="409" y="117" on="0"/>
        <pt x="453" y="155" on="0"/>
        <pt x="467" y="180" on="1"/>
      </contour>
      <contour>
        <pt x="446" y="1000" on="1"/>
        <pt x="551" y="1000" on="1"/>
        <pt x="430" y="811" on="1"/>
        <pt x="355" y="811" on="1"/>
      </contour>
    </TTGlyph>
    <TTGlyph name="Ecircumflex" xMin="13" yMin="-18" xMax="501" yMax="1000">
      <contour>
        <pt x="490" y="170" on="1"/>
        <pt x="470" y="126" on="0"/>
        <pt x="408" y="56" on="0"/>
        <pt x="330" y="8" on="0"/>
        <pt x="242" y="-18" on="0"/>
        <pt x="197" y="-18" on="1"/>
        <pt x="149" y="-18" on="0"/>
        <pt x="79" y="11" on="0"/>
        <pt x="34" y="59" on="0"/>
        <pt x="13" y="123" on="0"/>
        <pt x="13" y="158" on="1"/>
        <pt x="13" y="197" on="0"/>
        <pt x="38" y="280" on="0"/>
        <pt x="86" y="352" on="0"/>
        <pt x="155" y="406" on="0"/>
        <pt x="198" y="417" on="1"/>
        <pt x="166" y="440" on="0"/>
        <pt x="137" y="503" on="0"/>
        <pt x="137" y="537" on="1"/>
        <pt x="137" y="576" on="0"/>
        <pt x="169" y="652" on="0"/>
        <pt x="228" y="714" on="0"/>
        <pt x="308" y="752" on="0"/>
        <pt x="356" y="752" on="1"/>
        <pt x="386" y="752" on="0"/>
        <pt x="438" y="736" on="0"/>
        <pt x="477" y="704" on="0"/>
        <pt x="499" y="658" on="0"/>
        <pt x="499" y="627" on="1"/>
        <pt x="499" y="582" on="0"/>
        <pt x="455" y="523" on="0"/>
        <pt x="425" y="523" on="1"/>
        <pt x="398" y="523" on="0"/>
        <pt x="378" y="550" on="1"/>
        <pt x="387" y="553" on="0"/>
        <pt x="403" y="571" on="0"/>
        <pt x="415" y="596" on="0"/>
        <pt x="422" y="624" on="0"/>
        <pt x="422" y="637" on="1"/>
        <pt x="422" y="668" on="0"/>
        <pt x="387" y="693" on="0"/>
        <pt x="367" y="693" on="1"/>
        <pt x="345" y="693" on="0"/>
        <pt x="307" y="669" on="0"/>
        <pt x="280" y="629" on="0"/>
        <pt x="265" y="578" on="0"/>
        <pt x="265" y="552" on="1"/>
        <pt x="265" y="530" on="0"/>
        <pt x="276" y="488" on="0"/>
        <pt x="301" y="452" on="0"/>
        <pt x="339" y="425" on="0"/>
        <pt x="366" y="418" on="1"/>
        <pt x="326" y="409" on="0"/>
        <pt x="260" y="358" on="0"/>
        <pt x="213" y="290" on="0"/>
        <pt x="187" y="213" on="0"/>
        <pt x="187" y="179" on="1"/>
        <pt x="187" y="137" on="0"/>
        <pt x="231" y="78" on="0"/>
        <pt x="282" y="78" on="1"/>
        <pt x="305" y="78" on="0"/>
        <pt x="358" y="91" on="0"/>
        <pt x="409" y="117" on="0"/>
        <pt x="453" y="155" on="0"/>
        <pt x="467" y="180" on="1"/>
      </contour>
      <contour>
        <pt x="469" y="811" on="1"/>
        <pt x="409" y="891" on="1"/>
        <pt x="252" y="811" on="1"/>
        <pt x="208" y="811" on="1"/>
        <pt x="420" y="1000" on="1"/>
        <pt x="441" y="1000" on="1"/>
        <pt x="501" y="811" on="1"/>
      </contour>
    </TTGlyph>
    <TTGlyph name="Edieresis" xMin="13" yMin="-18" xMax="546" yMax="945">
      <contour>
        <pt x="490" y="170" on="1"/>
        <pt x="470" y="126" on="0"/>
        <pt x="408" y="56" on="0"/>
        <pt x="330" y="8" on="0"/>
        <pt x="242" y="-18" on="0"/>
        <pt x="197" y="-18" on="1"/>
        <pt x="149" y="-18" on="0"/>
        <pt x="79" y="11" on="0"/>
        <pt x="34" y="59" on="0"/>
        <pt x="13" y="123" on="0"/>
        <pt x="13" y="158" on="1"/>
        <pt x="13" y="197" on="0"/>
        <pt x="38" y="280" on="0"/>
        <pt x="86" y="352" on="0"/>
        <pt x="155" y="406" on="0"/>
        <pt x="198" y="417" on="1"/>
        <pt x="166" y="440" on="0"/>
        <pt x="137" y="503" on="0"/>
        <pt x="137" y="537" on="1"/>
        <pt x="137" y="576" on="0"/>
        <pt x="169" y="652" on="0"/>
        <pt x="228" y="714" on="0"/>
        <pt x="308" y="752" on="0"/>
        <pt x="356" y="752" on="1"/>
        <pt x="386" y="752" on="0"/>
        <pt x="438" y="736" on="0"/>
        <pt x="477" y="704" on="0"/>
        <pt x="499" y="658" on="0"/>
        <pt x="499" y="627" on="1"/>
        <pt x="499" y="582" on="0"/>
        <pt x="455" y="523" on="0"/>
        <pt x="425" y="523" on="1"/>
        <pt x="398" y="523" on="0"/>
        <pt x="378" y="550" on="1"/>
        <pt x="387" y="553" on="0"/>
        <pt x="403" y="571" on="0"/>
        <pt x="415" y="596" on="0"/>
        <pt x="422" y="624" on="0"/>
        <pt x="422" y="637" on="1"/>
        <pt x="422" y="668" on="0"/>
        <pt x="387" y="693" on="0"/>
        <pt x="367" y="693" on="1"/>
        <pt x="345" y="693" on="0"/>
        <pt x="307" y="669" on="0"/>
        <pt x="280" y="629" on="0"/>
        <pt x="265" y="578" on="0"/>
        <pt x="265" y="552" on="1"/>
        <pt x="265" y="530" on="0"/>
        <pt x="276" y="488" on="0"/>
        <pt x="301" y="452" on="0"/>
        <pt x="339" y="425" on="0"/>
        <pt x="366" y="418" on="1"/>
        <pt x="326" y="409" on="0"/>
        <pt x="260" y="358" on="0"/>
        <pt x="213" y="290" on="0"/>
        <pt x="187" y="213" on="0"/>
        <pt x="187" y="179" on="1"/>
        <pt x="187" y="137" on="0"/>
        <pt x="231" y="78" on="0"/>
        <pt x="282" y="78" on="1"/>
        <pt x="305" y="78" on="0"/>
        <pt x="358" y="91" on="0"/>
        <pt x="409" y="117" on="0"/>
        <pt x="453" y="155" on="0"/>
        <pt x="467" y="180" on="1"/>
      </contour>
      <contour>
        <pt x="244" y="884" on="1"/>
        <pt x="244" y="909" on="0"/>
        <pt x="279" y="945" on="0"/>
        <pt x="305" y="945" on="1"/>
        <pt x="330" y="945" on="0"/>
        <pt x="366" y="909" on="0"/>
        <pt x="366" y="884" on="1"/>
        <pt x="366" y="858" on="0"/>
        <pt x="330" y="823" on="0"/>
        <pt x="305" y="823" on="1"/>
        <pt x="279" y="823" on="0"/>
        <pt x="244" y="858" on="0"/>
      </contour>
      <contour>
        <pt x="424" y="884" on="1"/>
        <pt x="424" y="909" on="0"/>
        <pt x="459" y="945" on="0"/>
        <pt x="485" y="945" on="1"/>
        <pt x="510" y="945" on="0"/>
        <pt x="546" y="909" on="0"/>
        <pt x="546" y="884" on="1"/>
        <pt x="546" y="858" on="0"/>
        <pt x="510" y="823" on="0"/>
        <pt x="485" y="823" on="1"/>
        <pt x="459" y="823" on="0"/>
        <pt x="424" y="858" on="0"/>
      </contour>
    </TTGlyph>
    <TTGlyph name="Egrave" xMin="13" yMin="-18" xMax="499" yMax="1000">
      <contour>
        <pt x="490" y="170" on="1"/>
        <pt x="470" y="126" on="0"/>
        <pt x="408" y="56" on="0"/>
        <pt x="330" y="8" on="0"/>
        <pt x="242" y="-18" on="0"/>
        <pt x="197" y="-18" on="1"/>
        <pt x="149" y="-18" on="0"/>
        <pt x="79" y="11" on="0"/>
        <pt x="34" y="59" on="0"/>
        <pt x="13" y="123" on="0"/>
        <pt x="13" y="158" on="1"/>
        <pt x="13" y="197" on="0"/>
        <pt x="38" y="280" on="0"/>
        <pt x="86" y="352" on="0"/>
        <pt x="155" y="406" on="0"/>
        <pt x="198" y="417" on="1"/>
        <pt x="166" y="440" on="0"/>
        <pt x="137" y="503" on="0"/>
        <pt x="137" y="537" on="1"/>
        <pt x="137" y="576" on="0"/>
        <pt x="169" y="652" on="0"/>
        <pt x="228" y="714" on="0"/>
        <pt x="308" y="752" on="0"/>
        <pt x="356" y="752" on="1"/>
        <pt x="386" y="752" on="0"/>
        <pt x="438" y="736" on="0"/>
        <pt x="477" y="704" on="0"/>
        <pt x="499" y="658" on="0"/>
        <pt x="499" y="627" on="1"/>
        <pt x="499" y="582" on="0"/>
        <pt x="455" y="523" on="0"/>
        <pt x="425" y="523" on="1"/>
        <pt x="398" y="523" on="0"/>
        <pt x="378" y="550" on="1"/>
        <pt x="387" y="553" on="0"/>
        <pt x="403" y="571" on="0"/>
        <pt x="415" y="596" on="0"/>
        <pt x="422" y="624" on="0"/>
        <pt x="422" y="637" on="1"/>
        <pt x="422" y="668" on="0"/>
        <pt x="387" y="693" on="0"/>
        <pt x="367" y="693" on="1"/>
        <pt x="345" y="693" on="0"/>
        <pt x="307" y="669" on="0"/>
        <pt x="280" y="629" on="0"/>
        <pt x="265" y="578" on="0"/>
        <pt x="265" y="552" on="1"/>
        <pt x="265" y="530" on="0"/>
        <pt x="276" y="488" on="0"/>
        <pt x="301" y="452" on="0"/>
        <pt x="339" y="425" on="0"/>
        <pt x="366" y="418" on="1"/>
        <pt x="326" y="409" on="0"/>
        <pt x="260" y="358" on="0"/>
        <pt x="213" y="290" on="0"/>
        <pt x="187" y="213" on="0"/>
        <pt x="187" y="179" on="1"/>
        <pt x="187" y="137" on="0"/>
        <pt x="231" y="78" on="0"/>
        <pt x="282" y="78" on="1"/>
        <pt x="305" y="78" on="0"/>
        <pt x="358" y="91" on="0"/>
        <pt x="409" y="117" on="0"/>
        <pt x="453" y="155" on="0"/>
        <pt x="467" y="180" on="1"/>
      </contour>
      <contour>
        <pt x="258" y="1000" on="1"/>
        <pt x="363" y="1000" on="1"/>
        <pt x="392" y="811" on="1"/>
        <pt x="317" y="811" on="1"/>
      </contour>
    </TTGlyph>
    <TTGlyph name="Eogonek" xMin="28" yMin="-193" xMax="516" yMax="750">
      <contour>
        <pt x="501" y="170" on="1"/>
        <pt x="490" y="134" on="0"/>
        <pt x="454" y="86" on="0"/>
        <pt x="414" y="50" on="0"/>
        <pt x="374" y="22" on="0"/>
        <pt x="341" y="-11" on="0"/>
        <pt x="321" y="-53" on="0"/>
        <pt x="321" y="-84" on="1"/>
        <pt x="321" y="-101" on="0"/>
        <pt x="339" y="-134" on="0"/>
        <pt x="360" y="-134" on="1"/>
        <pt x="378" y="-134" on="0"/>
        <pt x="413" y="-110" on="0"/>
        <pt x="428" y="-100" on="1"/>
        <pt x="427" y="-109" on="0"/>
        <pt x="426" y="-122" on="0"/>
        <pt x="426" y="-131" on="1"/>
        <pt x="417" y="-140" on="0"/>
        <pt x="395" y="-161" on="0"/>
        <pt x="368" y="-180" on="0"/>
        <pt x="336" y="-193" on="0"/>
        <pt x="317" y="-193" on="1"/>
        <pt x="296" y="-193" on="0"/>
        <pt x="267" y="-178" on="0"/>
        <pt x="247" y="-156" on="0"/>
        <pt x="238" y="-128" on="0"/>
        <pt x="238" y="-115" on="1"/>
        <pt x="238" y="-88" on="0"/>
        <pt x="275" y="-27" on="0"/>
        <pt x="310" y="1" on="1"/>
        <pt x="291" y="-3" on="0"/>
        <pt x="253" y="-6" on="0"/>
        <pt x="235" y="-6" on="1"/>
        <pt x="183" y="-6" on="0"/>
        <pt x="106" y="28" on="0"/>
        <pt x="54" y="85" on="0"/>
        <pt x="28" y="157" on="0"/>
        <pt x="28" y="196" on="1"/>
        <pt x="28" y="232" on="0"/>
        <pt x="51" y="303" on="0"/>
        <pt x="96" y="363" on="0"/>
        <pt x="164" y="408" on="0"/>
        <pt x="209" y="417" on="1"/>
        <pt x="158" y="445" on="0"/>
        <pt x="110" y="526" on="0"/>
        <pt x="110" y="569" on="1"/>
        <pt x="110" y="603" on="0"/>
        <pt x="139" y="668" on="0"/>
        <pt x="196" y="719" on="0"/>
        <pt x="279" y="750" on="0"/>
        <pt x="332" y="750" on="1"/>
        <pt x="367" y="750" on="0"/>
        <pt x="433" y="735" on="0"/>
        <pt x="485" y="703" on="0"/>
        <pt x="516" y="652" on="0"/>
        <pt x="516" y="616" on="1"/>
        <pt x="516" y="576" on="0"/>
        <pt x="484" y="524" on="0"/>
        <pt x="446" y="524" on="1"/>
        <pt x="434" y="524" on="0"/>
        <pt x="403" y="533" on="0"/>
        <pt x="389" y="550" on="1"/>
        <pt x="398" y="553" on="0"/>
        <pt x="414" y="572" on="0"/>
        <pt x="426" y="597" on="0"/>
        <pt x="433" y="623" on="0"/>
        <pt x="433" y="632" on="1"/>
        <pt x="433" y="638" on="0"/>
        <pt x="430" y="663" on="0"/>
        <pt x="418" y="687" on="0"/>
        <pt x="391" y="706" on="0"/>
        <pt x="367" y="706" on="1"/>
        <pt x="340" y="706" on="0"/>
        <pt x="295" y="686" on="0"/>
        <pt x="263" y="653" on="0"/>
        <pt x="245" y="608" on="0"/>
        <pt x="245" y="583" on="1"/>
        <pt x="245" y="539" on="0"/>
        <pt x="306" y="450" on="0"/>
        <pt x="377" y="418" on="1"/>
        <pt x="329" y="398" on="0"/>
        <pt x="263" y="350" on="0"/>
        <pt x="222" y="298" on="0"/>
        <pt x="203" y="243" on="0"/>
        <pt x="203" y="217" on="1"/>
        <pt x="203" y="190" on="0"/>
        <pt x="222" y="141" on="0"/>
        <pt x="253" y="105" on="0"/>
        <pt x="296" y="84" on="0"/>
        <pt x="320" y="84" on="1"/>
        <pt x="378" y="84" on="0"/>
        <pt x="450" y="132" on="0"/>
        <pt x="478" y="180" on="1"/>
      </contour>
    </TTGlyph>
    <TTGlyph name="Eth" xMin="57" yMin="-13" xMax="696" yMax="750">
      <contour>
        <pt x="429" y="656" on="1"/>
        <pt x="378" y="419" on="1"/>
        <pt x="457" y="419" on="1"/>
        <pt x="437" y="345" on="1"/>
        <pt x="362" y="345" on="1"/>
        <pt x="309" y="95" on="1"/>
        <pt x="336" y="75" on="0"/>
        <pt x="366" y="75" on="1"/>
        <pt x="411" y="75" on="0"/>
        <pt x="482" y="156" on="0"/>
        <pt x="531" y="283" on="0"/>
        <pt x="558" y="436" on="0"/>
        <pt x="558" y="508" on="1"/>
        <pt x="558" y="555" on="0"/>
        <pt x="547" y="628" on="0"/>
        <pt x="517" y="678" on="0"/>
        <pt x="463" y="704" on="0"/>
        <pt x="420" y="704" on="1"/>
        <pt x="359" y="704" on="0"/>
        <pt x="260" y="671" on="0"/>
        <pt x="189" y="608" on="0"/>
        <pt x="150" y="518" on="0"/>
        <pt x="150" y="461" on="1"/>
        <pt x="150" y="442" on="0"/>
        <pt x="154" y="418" on="0"/>
        <pt x="159" y="404" on="0"/>
        <pt x="164" y="396" on="0"/>
        <pt x="164" y="393" on="1"/>
        <pt x="112" y="393" on="0"/>
        <pt x="57" y="436" on="0"/>
        <pt x="57" y="490" on="1"/>
        <pt x="57" y="540" on="0"/>
        <pt x="120" y="634" on="0"/>
        <pt x="220" y="706" on="0"/>
        <pt x="345" y="750" on="0"/>
        <pt x="408" y="750" on="1"/>
        <pt x="495" y="750" on="0"/>
        <pt x="606" y="705" on="0"/>
        <pt x="671" y="630" on="0"/>
        <pt x="696" y="533" on="0"/>
        <pt x="696" y="480" on="1"/>
        <pt x="696" y="383" on="0"/>
        <pt x="651" y="205" on="0"/>
        <pt x="575" y="68" on="0"/>
        <pt x="474" y="-13" on="0"/>
        <pt x="419" y="-13" on="1"/>
        <pt x="390" y="-13" on="0"/>
        <pt x="329" y="12" on="0"/>
        <pt x="297" y="40" on="1"/>
        <pt x="289" y="0" on="1"/>
        <pt x="145" y="0" on="1"/>
        <pt x="219" y="345" on="1"/>
        <pt x="180" y="345" on="1"/>
        <pt x="200" y="419" on="1"/>
        <pt x="235" y="419" on="1"/>
        <pt x="281" y="636" on="1"/>
      </contour>
    </TTGlyph>
    <TTGlyph name="Euro" xMin="19" yMin="-6" xMax="615" yMax="750">
      <contour>
        <pt x="460" y="334" on="1"/>
        <pt x="446" y="284" on="1"/>
        <pt x="261" y="284" on="1"/>
        <pt x="261" y="271" on="1"/>
        <pt x="261" y="222" on="0"/>
        <pt x="272" y="151" on="0"/>
        <pt x="301" y="106" on="0"/>
        <pt x="352" y="84" on="0"/>
        <pt x="393" y="84" on="1"/>
        <pt x="422" y="84" on="0"/>
        <pt x="466" y="88" on="0"/>
        <pt x="502" y="97" on="0"/>
        <pt x="532" y="112" on="0"/>
        <pt x="547" y="124" on="1"/>
        <pt x="549" y="95" on="1"/>
        <pt x="504" y="36" on="0"/>
        <pt x="393" y="-6" on="0"/>
        <pt x="323" y="-6" on="1"/>
        <pt x="285" y="-6" on="0"/>
        <pt x="207" y="16" on="0"/>
        <pt x="144" y="73" on="0"/>
        <pt x="104" y="172" on="0"/>
        <pt x="104" y="249" on="1"/>
        <pt x="104" y="284" on="1"/>
        <pt x="19" y="284" on="1"/>
        <pt x="33" y="334" on="1"/>
        <pt x="107" y="334" on="1"/>
        <pt x="109" y="350" on="0"/>
        <pt x="113" y="382" on="0"/>
        <pt x="115" y="399" on="1"/>
        <pt x="44" y="399" on="1"/>
        <pt x="58" y="449" on="1"/>
        <pt x="125" y="449" on="1"/>
        <pt x="139" y="509" on="0"/>
        <pt x="188" y="618" on="0"/>
        <pt x="265" y="701" on="0"/>
        <pt x="370" y="750" on="0"/>
        <pt x="441" y="750" on="1"/>
        <pt x="476" y="750" on="0"/>
        <pt x="539" y="735" on="0"/>
        <pt x="587" y="703" on="0"/>
        <pt x="615" y="652" on="0"/>
        <pt x="615" y="616" on="1"/>
        <pt x="615" y="576" on="0"/>
        <pt x="583" y="524" on="0"/>
        <pt x="545" y="524" on="1"/>
        <pt x="533" y="524" on="0"/>
        <pt x="502" y="533" on="0"/>
        <pt x="488" y="550" on="1"/>
        <pt x="497" y="553" on="0"/>
        <pt x="513" y="572" on="0"/>
        <pt x="525" y="597" on="0"/>
        <pt x="532" y="623" on="0"/>
        <pt x="532" y="632" on="1"/>
        <pt x="532" y="638" on="0"/>
        <pt x="528" y="662" on="0"/>
        <pt x="515" y="685" on="0"/>
        <pt x="487" y="703" on="0"/>
        <pt x="463" y="703" on="1"/>
        <pt x="431" y="703" on="0"/>
        <pt x="376" y="661" on="0"/>
        <pt x="330" y="591" on="0"/>
        <pt x="295" y="499" on="0"/>
        <pt x="283" y="449" on="1"/>
        <pt x="485" y="449" on="1"/>
        <pt x="471" y="399" on="1"/>
        <pt x="272" y="399" on="1"/>
        <pt x="270" y="382" on="0"/>
        <pt x="266" y="350" on="0"/>
        <pt x="264" y="334" on="1"/>
      </contour>
    </TTGlyph>
    <TTGlyph name="F" xMin="63" yMin="0" xMax="660" yMax="750">
      <contour>
        <pt x="529" y="450" on="1"/>
        <pt x="513" y="376" on="1"/>
        <pt x="367" y="376" on="1"/>
        <pt x="286" y="0" on="1"/>
        <pt x="142" y="0" on="1"/>
        <pt x="286" y="668" on="1"/>
        <pt x="259" y="667" on="0"/>
        <pt x="211" y="647" on="0"/>
        <pt x="176" y="602" on="0"/>
        <pt x="156" y="527" on="0"/>
        <pt x="156" y="470" on="1"/>
        <pt x="156" y="450" on="0"/>
        <pt x="159" y="424" on="0"/>
        <pt x="163" y="407" on="0"/>
        <pt x="168" y="397" on="0"/>
        <pt x="170" y="393" on="1"/>
        <pt x="116" y="393" on="0"/>
        <pt x="63" y="437" on="0"/>
        <pt x="63" y="494" on="1"/>
        <pt x="63" y="542" on="0"/>
        <pt x="102" y="634" on="0"/>
        <pt x="183" y="706" on="0"/>
        <pt x="306" y="750" on="0"/>
        <pt x="390" y="750" on="1"/>
        <pt x="416" y="750" on="0"/>
        <pt x="459" y="746" on="0"/>
        <pt x="501" y="742" on="0"/>
        <pt x="544" y="738" on="0"/>
        <pt x="569" y="738" on="1"/>
        <pt x="594" y="738" on="0"/>
        <pt x="639" y="743" on="0"/>
        <pt x="660" y="750" on="1"/>
        <pt x="651" y="710" on="0"/>
        <pt x="627" y="663" on="0"/>
        <pt x="599" y="638" on="0"/>
        <pt x="566" y="630" on="0"/>
        <pt x="549" y="630" on="1"/>
        <pt x="521" y="630" on="0"/>
        <pt x="458" y="641" on="0"/>
        <pt x="425" y="648" on="1"/>
        <pt x="383" y="450" on="1"/>
      </contour>
    </TTGlyph>
    <TTGlyph name="F_i" xMin="118" yMin="-6" xMax="877" yMax="750">
      <contour>
        <pt x="584" y="450" on="1"/>
        <pt x="568" y="376" on="1"/>
        <pt x="442" y="376" on="1"/>
        <pt x="361" y="0" on="1"/>
        <pt x="217" y="0" on="1"/>
        <pt x="361" y="668" on="1"/>
        <pt x="350" y="668" on="1"/>
        <pt x="320" y="668" on="0"/>
        <pt x="269" y="650" on="0"/>
        <pt x="232" y="603" on="0"/>
        <pt x="211" y="523" on="0"/>
        <pt x="211" y="461" on="1"/>
        <pt x="211" y="442" on="0"/>
        <pt x="215" y="418" on="0"/>
        <pt x="220" y="404" on="0"/>
        <pt x="225" y="396" on="0"/>
        <pt x="225" y="393" on="1"/>
        <pt x="173" y="393" on="0"/>
        <pt x="118" y="436" on="0"/>
        <pt x="118" y="490" on="1"/>
        <pt x="118" y="540" on="0"/>
        <pt x="155" y="634" on="0"/>
        <pt x="237" y="706" on="0"/>
        <pt x="366" y="750" on="0"/>
        <pt x="459" y="750" on="1"/>
        <pt x="484" y="750" on="0"/>
        <pt x="538" y="744" on="0"/>
        <pt x="595" y="736" on="0"/>
        <pt x="656" y="730" on="0"/>
        <pt x="690" y="730" on="1"/>
        <pt x="722" y="730" on="0"/>
        <pt x="794" y="738" on="0"/>
        <pt x="835" y="749" on="1"/>
        <pt x="830" y="722" on="0"/>
        <pt x="812" y="667" on="0"/>
        <pt x="783" y="622" on="0"/>
        <pt x="741" y="594" on="0"/>
        <pt x="711" y="594" on="1"/>
        <pt x="680" y="594" on="0"/>
        <pt x="630" y="605" on="0"/>
        <pt x="582" y="622" on="0"/>
        <pt x="532" y="642" on="0"/>
        <pt x="501" y="650" on="1"/>
        <pt x="458" y="450" on="1"/>
      </contour>
      <contour>
        <pt x="780" y="500" on="1"/>
        <pt x="708" y="160" on="1"/>
        <pt x="704" y="143" on="0"/>
        <pt x="704" y="128" on="1"/>
        <pt x="704" y="107" on="0"/>
        <pt x="724" y="91" on="0"/>
        <pt x="745" y="91" on="1"/>
        <pt x="774" y="91" on="0"/>
        <pt x="824" y="141" on="0"/>
        <pt x="835" y="179" on="1"/>
        <pt x="877" y="179" on="1"/>
        <pt x="856" y="118" on="0"/>
        <pt x="800" y="45" on="0"/>
        <pt x="742" y="6" on="0"/>
        <pt x="687" y="-6" on="0"/>
        <pt x="667" y="-6" on="1"/>
        <pt x="622" y="-6" on="0"/>
        <pt x="560" y="51" on="0"/>
        <pt x="560" y="114" on="1"/>
        <pt x="560" y="141" on="0"/>
        <pt x="568" y="179" on="1"/>
        <pt x="636" y="500" on="1"/>
      </contour>
    </TTGlyph>
    <TTGlyph name="G" xMin="50" yMin="-207" xMax="597" yMax="750">
      <contour>
        <pt x="577" y="418" on="1"/>
        <pt x="495" y="42" on="1"/>
        <pt x="483" y="-15" on="0"/>
        <pt x="444" y="-108" on="0"/>
        <pt x="386" y="-172" on="0"/>
        <pt x="307" y="-207" on="0"/>
        <pt x="255" y="-207" on="1"/>
        <pt x="210" y="-207" on="0"/>
        <pt x="151" y="-183" on="0"/>
        <pt x="115" y="-145" on="0"/>
        <pt x="100" y="-96" on="0"/>
        <pt x="100" y="-70" on="1"/>
        <pt x="100" y="-44" on="0"/>
        <pt x="114" y="5" on="0"/>
        <pt x="146" y="44" on="0"/>
        <pt x="197" y="68" on="0"/>
        <pt x="234" y="68" on="1"/>
        <pt x="244" y="68" on="0"/>
        <pt x="274" y="64" on="0"/>
        <pt x="301" y="51" on="0"/>
        <pt x="320" y="24" on="0"/>
        <pt x="320" y="1" on="1"/>
        <pt x="320" y="-17" on="0"/>
        <pt x="314" y="-39" on="1"/>
        <pt x="303" y="-23" on="0"/>
        <pt x="269" y="-13" on="0"/>
        <pt x="256" y="-13" on="1"/>
        <pt x="219" y="-13" on="0"/>
        <pt x="184" y="-61" on="0"/>
        <pt x="184" y="-90" on="1"/>
        <pt x="184" y="-116" on="0"/>
        <pt x="215" y="-157" on="0"/>
        <pt x="252" y="-157" on="1"/>
        <pt x="266" y="-157" on="0"/>
        <pt x="293" y="-148" on="0"/>
        <pt x="317" y="-121" on="0"/>
        <pt x="338" y="-73" on="0"/>
        <pt x="347" y="-34" on="1"/>
        <pt x="397" y="187" on="1"/>
        <pt x="366" y="147" on="0"/>
        <pt x="290" y="109" on="0"/>
        <pt x="245" y="109" on="1"/>
        <pt x="202" y="109" on="0"/>
        <pt x="131" y="143" on="0"/>
        <pt x="79" y="206" on="0"/>
        <pt x="50" y="298" on="0"/>
        <pt x="50" y="357" on="1"/>
        <pt x="50" y="433" on="0"/>
        <pt x="100" y="575" on="0"/>
        <pt x="193" y="684" on="0"/>
        <pt x="326" y="750" on="0"/>
        <pt x="409" y="750" on="1"/>
        <pt x="444" y="750" on="0"/>
        <pt x="512" y="736" on="0"/>
        <pt x="565" y="704" on="0"/>
        <pt x="597" y="651" on="0"/>
        <pt x="597" y="612" on="1"/>
        <pt x="597" y="577" on="0"/>
        <pt x="565" y="524" on="0"/>
        <pt x="527" y="524" on="1"/>
        <pt x="521" y="524" on="0"/>
        <pt x="503" y="526" on="0"/>
        <pt x="484" y="532" on="0"/>
        <pt x="465" y="542" on="0"/>
        <pt x="458" y="550" on="1"/>
        <pt x="467" y="553" on="0"/>
        <pt x="483" y="572" on="0"/>
        <pt x="495" y="597" on="0"/>
        <pt x="502" y="624" on="0"/>
        <pt x="502" y="635" on="1"/>
        <pt x="502" y="640" on="0"/>
        <pt x="499" y="660" on="0"/>
        <pt x="485" y="681" on="0"/>
        <pt x="457" y="697" on="0"/>
        <pt x="432" y="697" on="1"/>
        <pt x="385" y="697" on="0"/>
        <pt x="302" y="637" on="0"/>
        <pt x="240" y="540" on="0"/>
        <pt x="204" y="419" on="0"/>
        <pt x="204" y="359" on="1"/>
        <pt x="204" y="281" on="0"/>
        <pt x="260" y="196" on="0"/>
        <pt x="299" y="196" on="1"/>
        <pt x="320" y="196" on="0"/>
        <pt x="364" y="222" on="0"/>
        <pt x="407" y="276" on="0"/>
        <pt x="445" y="360" on="0"/>
        <pt x="459" y="419" on="1"/>
      </contour>
    </TTGlyph>
    <TTGlyph name="Gbreve" xMin="50" yMin="-207" xMax="708" yMax="953">
      <contour>
        <pt x="577" y="418" on="1"/>
        <pt x="495" y="42" on="1"/>
        <pt x="483" y="-15" on="0"/>
        <pt x="444" y="-108" on="0"/>
        <pt x="386" y="-172" on="0"/>
        <pt x="307" y="-207" on="0"/>
        <pt x="255" y="-207" on="1"/>
        <pt x="210" y="-207" on="0"/>
        <pt x="151" y="-183" on="0"/>
        <pt x="115" y="-145" on="0"/>
        <pt x="100" y="-96" on="0"/>
        <pt x="100" y="-70" on="1"/>
        <pt x="100" y="-44" on="0"/>
        <pt x="114" y="5" on="0"/>
        <pt x="146" y="44" on="0"/>
        <pt x="197" y="68" on="0"/>
        <pt x="234" y="68" on="1"/>
        <pt x="244" y="68" on="0"/>
        <pt x="274" y="64" on="0"/>
        <pt x="301" y="51" on="0"/>
        <pt x="320" y="24" on="0"/>
        <pt x="320" y="1" on="1"/>
        <pt x="320" y="-17" on="0"/>
        <pt x="314" y="-39" on="1"/>
        <pt x="303" y="-23" on="0"/>
        <pt x="269" y="-13" on="0"/>
        <pt x="256" y="-13" on="1"/>
        <pt x="219" y="-13" on="0"/>
        <pt x="184" y="-61" on="0"/>
        <pt x="184" y="-90" on="1"/>
        <pt x="184" y="-116" on="0"/>
        <pt x="215" y="-157" on="0"/>
        <pt x="252" y="-157" on="1"/>
        <pt x="266" y="-157" on="0"/>
        <pt x="293" y="-148" on="0"/>
        <pt x="317" y="-121" on="0"/>
        <pt x="338" y="-73" on="0"/>
        <pt x="347" y="-34" on="1"/>
        <pt x="397" y="187" on="1"/>
        <pt x="366" y="147" on="0"/>
        <pt x="290" y="109" on="0"/>
        <pt x="245" y="109" on="1"/>
        <pt x="202" y="109" on="0"/>
        <pt x="131" y="143" on="0"/>
        <pt x="79" y="206" on="0"/>
        <pt x="50" y="298" on="0"/>
        <pt x="50" y="357" on="1"/>
        <pt x="50" y="433" on="0"/>
        <pt x="100" y="575" on="0"/>
        <pt x="193" y="684" on="0"/>
        <pt x="326" y="750" on="0"/>
        <pt x="409" y="750" on="1"/>
        <pt x="444" y="750" on="0"/>
        <pt x="512" y="736" on="0"/>
        <pt x="565" y="704" on="0"/>
        <pt x="597" y="651" on="0"/>
        <pt x="597" y="612" on="1"/>
        <pt x="597" y="577" on="0"/>
        <pt x="565" y="524" on="0"/>
        <pt x="527" y="524" on="1"/>
        <pt x="521" y="524" on="0"/>
        <pt x="503" y="526" on="0"/>
        <pt x="484" y="532" on="0"/>
        <pt x="465" y="542" on="0"/>
        <pt x="458" y="550" on="1"/>
        <pt x="467" y="553" on="0"/>
        <pt x="483" y="572" on="0"/>
        <pt x="495" y="597" on="0"/>
        <pt x="502" y="624" on="0"/>
        <pt x="502" y="635" on="1"/>
        <pt x="502" y="640" on="0"/>
        <pt x="499" y="660" on="0"/>
        <pt x="485" y="681" on="0"/>
        <pt x="457" y="697" on="0"/>
        <pt x="432" y="697" on="1"/>
        <pt x="385" y="697" on="0"/>
        <pt x="302" y="637" on="0"/>
        <pt x="240" y="540" on="0"/>
        <pt x="204" y="419" on="0"/>
        <pt x="204" y="359" on="1"/>
        <pt x="204" y="281" on="0"/>
        <pt x="260" y="196" on="0"/>
        <pt x="299" y="196" on="1"/>
        <pt x="320" y="196" on="0"/>
        <pt x="364" y="222" on="0"/>
        <pt x="407" y="276" on="0"/>
        <pt x="445" y="360" on="0"/>
        <pt x="459" y="419" on="1"/>
      </contour>
      <contour>
        <pt x="708" y="953" on="1"/>
        <pt x="707" y="881" on="0"/>
        <pt x="603" y="815" on="0"/>
        <pt x="498" y="815" on="1"/>
        <pt x="428" y="815" on="0"/>
        <pt x="343" y="867" on="0"/>
        <pt x="343" y="930" on="1"/>
        <pt x="343" y="935" on="0"/>
        <pt x="344" y="947" on="0"/>
        <pt x="345" y="953" on="1"/>
        <pt x="424" y="953" on="1"/>
        <pt x="423" y="948" on="0"/>
        <pt x="422" y="940" on="0"/>
        <pt x="422" y="935" on="1"/>
        <pt x="422" y="893" on="0"/>
        <pt x="475" y="857" on="0"/>
        <pt x="518" y="857" on="1"/>
        <pt x="540" y="857" on="0"/>
        <pt x="579" y="866" on="0"/>
        <pt x="610" y="888" on="0"/>
        <pt x="629" y="925" on="0"/>
        <pt x="632" y="953" on="1"/>
      </contour>
    </TTGlyph>
    <TTGlyph name="H" xMin="56" yMin="0" xMax="738" yMax="750">
      <contour>
        <pt x="383" y="450" on="1"/>
        <pt x="530" y="450" on="1"/>
        <pt x="594" y="748" on="1"/>
        <pt x="738" y="748" on="1"/>
        <pt x="579" y="0" on="1"/>
        <pt x="435" y="0" on="1"/>
        <pt x="515" y="376" on="1"/>
        <pt x="368" y="376" on="1"/>
        <pt x="288" y="0" on="1"/>
        <pt x="144" y="0" on="1"/>
        <pt x="289" y="680" on="1"/>
        <pt x="223" y="653" on="0"/>
        <pt x="149" y="541" on="0"/>
        <pt x="149" y="462" on="1"/>
        <pt x="149" y="444" on="0"/>
        <pt x="153" y="420" on="0"/>
        <pt x="157" y="405" on="0"/>
        <pt x="162" y="396" on="0"/>
        <pt x="163" y="393" on="1"/>
        <pt x="113" y="393" on="0"/>
        <pt x="56" y="434" on="0"/>
        <pt x="56" y="485" on="1"/>
        <pt x="56" y="538" on="0"/>
        <pt x="119" y="634" on="0"/>
        <pt x="219" y="707" on="0"/>
        <pt x="344" y="750" on="0"/>
        <pt x="406" y="750" on="1"/>
        <pt x="417" y="750" on="0"/>
        <pt x="437" y="749" on="0"/>
        <pt x="447" y="748" on="1"/>
      </contour>
    </TTGlyph>
    <TTGlyph name="I" xMin="56" yMin="0" xMax="447" yMax="750">
      <contour>
        <pt x="288" y="0" on="1"/>
        <pt x="144" y="0" on="1"/>
        <pt x="289" y="679" on="1"/>
        <pt x="223" y="652" on="0"/>
        <pt x="149" y="542" on="0"/>
        <pt x="149" y="462" on="1"/>
        <pt x="149" y="444" on="0"/>
        <pt x="153" y="420" on="0"/>
        <pt x="157" y="405" on="0"/>
        <pt x="162" y="396" on="0"/>
        <pt x="163" y="393" on="1"/>
        <pt x="113" y="393" on="0"/>
        <pt x="56" y="434" on="0"/>
        <pt x="56" y="485" on="1"/>
        <pt x="56" y="538" on="0"/>
        <pt x="119" y="634" on="0"/>
        <pt x="219" y="707" on="0"/>
        <pt x="344" y="750" on="0"/>
        <pt x="406" y="750" on="1"/>
        <pt x="417" y="750" on="0"/>
        <pt x="437" y="749" on="0"/>
        <pt x="447" y="748" on="1"/>
      </contour>
    </TTGlyph>
    <TTGlyph name="IJ" xMin="56" yMin="-207" xMax="723" yMax="750">
      <contour>
        <pt x="300" y="58" on="1"/>
        <pt x="331" y="53" on="0"/>
        <pt x="367" y="20" on="0"/>
        <pt x="367" y="-6" on="1"/>
        <pt x="367" y="-20" on="0"/>
        <pt x="360" y="-39" on="1"/>
        <pt x="337" y="-16" on="0"/>
        <pt x="311" y="-16" on="1"/>
        <pt x="284" y="-16" on="0"/>
        <pt x="246" y="-59" on="0"/>
        <pt x="246" y="-89" on="1"/>
        <pt x="246" y="-118" on="0"/>
        <pt x="284" y="-157" on="0"/>
        <pt x="317" y="-157" on="1"/>
        <pt x="332" y="-157" on="0"/>
        <pt x="358" y="-147" on="0"/>
        <pt x="381" y="-119" on="0"/>
        <pt x="401" y="-72" on="0"/>
        <pt x="409" y="-34" on="1"/>
        <pt x="573" y="717" on="1"/>
        <pt x="723" y="750" on="1"/>
        <pt x="573" y="40" on="1"/>
        <pt x="562" y="-12" on="0"/>
        <pt x="525" y="-102" on="0"/>
        <pt x="466" y="-169" on="0"/>
        <pt x="381" y="-207" on="0"/>
        <pt x="323" y="-207" on="1"/>
        <pt x="281" y="-207" on="0"/>
        <pt x="220" y="-186" on="0"/>
        <pt x="181" y="-150" on="0"/>
        <pt x="162" y="-100" on="0"/>
        <pt x="162" y="-70" on="1"/>
        <pt x="162" y="-29" on="0"/>
        <pt x="178" y="0" on="1"/>
        <pt x="144" y="0" on="1"/>
        <pt x="289" y="679" on="1"/>
        <pt x="223" y="652" on="0"/>
        <pt x="149" y="542" on="0"/>
        <pt x="149" y="462" on="1"/>
        <pt x="149" y="444" on="0"/>
        <pt x="153" y="420" on="0"/>
        <pt x="157" y="405" on="0"/>
        <pt x="162" y="396" on="0"/>
        <pt x="163" y="393" on="1"/>
        <pt x="113" y="393" on="0"/>
        <pt x="56" y="434" on="0"/>
        <pt x="56" y="485" on="1"/>
        <pt x="56" y="538" on="0"/>
        <pt x="119" y="634" on="0"/>
        <pt x="219" y="707" on="0"/>
        <pt x="344" y="750" on="0"/>
        <pt x="406" y="750" on="1"/>
        <pt x="417" y="750" on="0"/>
        <pt x="437" y="749" on="0"/>
        <pt x="447" y="748" on="1"/>
      </contour>
    </TTGlyph>
    <TTGlyph name="Iacute" xMin="56" yMin="0" xMax="515" yMax="1000">
      <contour>
        <pt x="288" y="0" on="1"/>
        <pt x="144" y="0" on="1"/>
        <pt x="289" y="679" on="1"/>
        <pt x="223" y="652" on="0"/>
        <pt x="149" y="542" on="0"/>
        <pt x="149" y="462" on="1"/>
        <pt x="149" y="444" on="0"/>
        <pt x="153" y="420" on="0"/>
        <pt x="157" y="405" on="0"/>
        <pt x="162" y="396" on="0"/>
        <pt x="163" y="393" on="1"/>
        <pt x="113" y="393" on="0"/>
        <pt x="56" y="434" on="0"/>
        <pt x="56" y="485" on="1"/>
        <pt x="56" y="538" on="0"/>
        <pt x="119" y="634" on="0"/>
        <pt x="219" y="707" on="0"/>
        <pt x="344" y="750" on="0"/>
        <pt x="406" y="750" on="1"/>
        <pt x="417" y="750" on="0"/>
        <pt x="437" y="749" on="0"/>
        <pt x="447" y="748" on="1"/>
      </contour>
      <contour>
        <pt x="410" y="1000" on="1"/>
        <pt x="515" y="1000" on="1"/>
        <pt x="394" y="811" on="1"/>
        <pt x="319" y="811" on="1"/>
      </contour>
    </TTGlyph>
    <TTGlyph name="Icircumflex" xMin="56" yMin="0" xMax="494" yMax="1000">
      <contour>
        <pt x="288" y="0" on="1"/>
        <pt x="144" y="0" on="1"/>
        <pt x="289" y="679" on="1"/>
        <pt x="223" y="652" on="0"/>
        <pt x="149" y="542" on="0"/>
        <pt x="149" y="462" on="1"/>
        <pt x="149" y="444" on="0"/>
        <pt x="153" y="420" on="0"/>
        <pt x="157" y="405" on="0"/>
        <pt x="162" y="396" on="0"/>
        <pt x="163" y="393" on="1"/>
        <pt x="113" y="393" on="0"/>
        <pt x="56" y="434" on="0"/>
        <pt x="56" y="485" on="1"/>
        <pt x="56" y="538" on="0"/>
        <pt x="119" y="634" on="0"/>
        <pt x="219" y="707" on="0"/>
        <pt x="344" y="750" on="0"/>
        <pt x="406" y="750" on="1"/>
        <pt x="417" y="750" on="0"/>
        <pt x="437" y="749" on="0"/>
        <pt x="447" y="748" on="1"/>
      </contour>
      <contour>
        <pt x="462" y="811" on="1"/>
        <pt x="402" y="891" on="1"/>
        <pt x="245" y="811" on="1"/>
        <pt x="201" y="811" on="1"/>
        <pt x="413" y="1000" on="1"/>
        <pt x="434" y="1000" on="1"/>
        <pt x="494" y="811" on="1"/>
      </contour>
    </TTGlyph>
    <TTGlyph name="Idieresis" xMin="56" yMin="0" xMax="519" yMax="945">
      <contour>
        <pt x="288" y="0" on="1"/>
        <pt x="144" y="0" on="1"/>
        <pt x="289" y="679" on="1"/>
        <pt x="223" y="652" on="0"/>
        <pt x="149" y="542" on="0"/>
        <pt x="149" y="462" on="1"/>
        <pt x="149" y="444" on="0"/>
        <pt x="153" y="420" on="0"/>
        <pt x="157" y="405" on="0"/>
        <pt x="162" y="396" on="0"/>
        <pt x="163" y="393" on="1"/>
        <pt x="113" y="393" on="0"/>
        <pt x="56" y="434" on="0"/>
        <pt x="56" y="485" on="1"/>
        <pt x="56" y="538" on="0"/>
        <pt x="119" y="634" on="0"/>
        <pt x="219" y="707" on="0"/>
        <pt x="344" y="750" on="0"/>
        <pt x="406" y="750" on="1"/>
        <pt x="417" y="750" on="0"/>
        <pt x="437" y="749" on="0"/>
        <pt x="447" y="748" on="1"/>
      </contour>
      <contour>
        <pt x="397" y="884" on="1"/>
        <pt x="397" y="909" on="0"/>
        <pt x="432" y="945" on="0"/>
        <pt x="458" y="945" on="1"/>
        <pt x="483" y="945" on="0"/>
        <pt x="519" y="909" on="0"/>
        <pt x="519" y="884" on="1"/>
        <pt x="519" y="858" on="0"/>
        <pt x="483" y="823" on="0"/>
        <pt x="458" y="823" on="1"/>
        <pt x="432" y="823" on="0"/>
        <pt x="397" y="858" on="0"/>
      </contour>
      <contour>
        <pt x="217" y="884" on="1"/>
        <pt x="217" y="909" on="0"/>
        <pt x="252" y="945" on="0"/>
        <pt x="278" y="945" on="1"/>
        <pt x="303" y="945" on="0"/>
        <pt x="339" y="909" on="0"/>
        <pt x="339" y="884" on="1"/>
        <pt x="339" y="858" on="0"/>
        <pt x="303" y="823" on="0"/>
        <pt x="278" y="823" on="1"/>
        <pt x="252" y="823" on="0"/>
        <pt x="217" y="858" on="0"/>
      </contour>
    </TTGlyph>
    <TTGlyph name="Igrave" xMin="56" yMin="0" xMax="447" yMax="1000">
      <contour>
        <pt x="288" y="0" on="1"/>
        <pt x="144" y="0" on="1"/>
        <pt x="289" y="679" on="1"/>
        <pt x="223" y="652" on="0"/>
        <pt x="149" y="542" on="0"/>
        <pt x="149" y="462" on="1"/>
        <pt x="149" y="444" on="0"/>
        <pt x="153" y="420" on="0"/>
        <pt x="157" y="405" on="0"/>
        <pt x="162" y="396" on="0"/>
        <pt x="163" y="393" on="1"/>
        <pt x="113" y="393" on="0"/>
        <pt x="56" y="434" on="0"/>
        <pt x="56" y="485" on="1"/>
        <pt x="56" y="538" on="0"/>
        <pt x="119" y="634" on="0"/>
        <pt x="219" y="707" on="0"/>
        <pt x="344" y="750" on="0"/>
        <pt x="406" y="750" on="1"/>
        <pt x="417" y="750" on="0"/>
        <pt x="437" y="749" on="0"/>
        <pt x="447" y="748" on="1"/>
      </contour>
      <contour>
        <pt x="221" y="1000" on="1"/>
        <pt x="326" y="1000" on="1"/>
        <pt x="355" y="811" on="1"/>
        <pt x="280" y="811" on="1"/>
      </contour>
    </TTGlyph>
    <TTGlyph name="J" xMin="-73" yMin="-207" xMax="488" yMax="750">
      <contour>
        <pt x="488" y="750" on="1"/>
        <pt x="338" y="40" on="1"/>
        <pt x="326" y="-15" on="0"/>
        <pt x="287" y="-106" on="0"/>
        <pt x="227" y="-171" on="0"/>
        <pt x="144" y="-207" on="0"/>
        <pt x="88" y="-207" on="1"/>
        <pt x="45" y="-207" on="0"/>
        <pt x="-16" y="-186" on="0"/>
        <pt x="-55" y="-149" on="0"/>
        <pt x="-73" y="-98" on="0"/>
        <pt x="-73" y="-68" on="1"/>
        <pt x="-73" y="-42" on="0"/>
        <pt x="-59" y="7" on="0"/>
        <pt x="-27" y="45" on="0"/>
        <pt x="24" y="68" on="0"/>
        <pt x="61" y="68" on="1"/>
        <pt x="71" y="68" on="0"/>
        <pt x="101" y="64" on="0"/>
        <pt x="128" y="51" on="0"/>
        <pt x="147" y="24" on="0"/>
        <pt x="147" y="1" on="1"/>
        <pt x="147" y="-17" on="0"/>
        <pt x="141" y="-39" on="1"/>
        <pt x="131" y="-23" on="0"/>
        <pt x="96" y="-13" on="0"/>
        <pt x="82" y="-13" on="1"/>
        <pt x="46" y="-13" on="0"/>
        <pt x="11" y="-59" on="0"/>
        <pt x="11" y="-88" on="1"/>
        <pt x="11" y="-121" on="0"/>
        <pt x="52" y="-157" on="0"/>
        <pt x="84" y="-157" on="1"/>
        <pt x="98" y="-157" on="0"/>
        <pt x="123" y="-148" on="0"/>
        <pt x="146" y="-121" on="0"/>
        <pt x="165" y="-73" on="0"/>
        <pt x="174" y="-34" on="1"/>
        <pt x="331" y="680" on="1"/>
        <pt x="265" y="653" on="0"/>
        <pt x="190" y="542" on="0"/>
        <pt x="190" y="461" on="1"/>
        <pt x="190" y="443" on="0"/>
        <pt x="194" y="420" on="0"/>
        <pt x="198" y="405" on="0"/>
        <pt x="203" y="396" on="0"/>
        <pt x="204" y="393" on="1"/>
        <pt x="154" y="393" on="0"/>
        <pt x="97" y="434" on="0"/>
        <pt x="97" y="485" on="1"/>
        <pt x="97" y="538" on="0"/>
        <pt x="160" y="634" on="0"/>
        <pt x="260" y="707" on="0"/>
        <pt x="385" y="750" on="0"/>
        <pt x="448" y="750" on="1"/>
      </contour>
    </TTGlyph>
    <TTGlyph name="K" xMin="56" yMin="-17" xMax="714" yMax="750">
      <contour>
        <pt x="379" y="429" on="1"/>
        <pt x="621" y="745" on="1"/>
        <pt x="714" y="745" on="1"/>
        <pt x="432" y="425" on="1"/>
        <pt x="442" y="425" on="0"/>
        <pt x="458" y="426" on="0"/>
        <pt x="465" y="426" on="1"/>
        <pt x="504" y="426" on="0"/>
        <pt x="554" y="410" on="0"/>
        <pt x="583" y="382" on="0"/>
        <pt x="595" y="343" on="0"/>
        <pt x="595" y="320" on="1"/>
        <pt x="595" y="289" on="0"/>
        <pt x="580" y="219" on="0"/>
        <pt x="561" y="152" on="0"/>
        <pt x="546" y="90" on="0"/>
        <pt x="546" y="68" on="1"/>
        <pt x="546" y="43" on="0"/>
        <pt x="567" y="7" on="0"/>
        <pt x="585" y="0" on="1"/>
        <pt x="553" y="-9" on="0"/>
        <pt x="504" y="-17" on="0"/>
        <pt x="486" y="-17" on="1"/>
        <pt x="462" y="-17" on="0"/>
        <pt x="431" y="-5" on="0"/>
        <pt x="414" y="14" on="0"/>
        <pt x="408" y="38" on="0"/>
        <pt x="408" y="50" on="1"/>
        <pt x="408" y="75" on="0"/>
        <pt x="425" y="142" on="0"/>
        <pt x="444" y="214" on="0"/>
        <pt x="461" y="284" on="0"/>
        <pt x="461" y="313" on="1"/>
        <pt x="461" y="343" on="0"/>
        <pt x="435" y="381" on="0"/>
        <pt x="402" y="381" on="1"/>
        <pt x="394" y="381" on="0"/>
        <pt x="377" y="379" on="0"/>
        <pt x="368" y="377" on="1"/>
        <pt x="288" y="0" on="1"/>
        <pt x="144" y="0" on="1"/>
        <pt x="289" y="680" on="1"/>
        <pt x="223" y="653" on="0"/>
        <pt x="149" y="541" on="0"/>
        <pt x="149" y="462" on="1"/>
        <pt x="149" y="444" on="0"/>
        <pt x="153" y="420" on="0"/>
        <pt x="157" y="405" on="0"/>
        <pt x="162" y="396" on="0"/>
        <pt x="163" y="393" on="1"/>
        <pt x="113" y="393" on="0"/>
        <pt x="56" y="434" on="0"/>
        <pt x="56" y="485" on="1"/>
        <pt x="56" y="538" on="0"/>
        <pt x="119" y="634" on="0"/>
        <pt x="219" y="707" on="0"/>
        <pt x="344" y="750" on="0"/>
        <pt x="406" y="750" on="1"/>
        <pt x="417" y="750" on="0"/>
        <pt x="437" y="749" on="0"/>
        <pt x="447" y="748" on="1"/>
      </contour>
    </TTGlyph>
    <TTGlyph name="L" xMin="54" yMin="-250" xMax="711" yMax="740">
      <contour>
        <pt x="291" y="20" on="1"/>
        <pt x="330" y="11" on="0"/>
        <pt x="408" y="-31" on="0"/>
        <pt x="491" y="-75" on="0"/>
        <pt x="579" y="-109" on="0"/>
        <pt x="628" y="-109" on="1"/>
        <pt x="647" y="-109" on="0"/>
        <pt x="689" y="-102" on="0"/>
        <pt x="711" y="-93" on="1"/>
        <pt x="703" y="-165" on="0"/>
        <pt x="650" y="-250" on="0"/>
        <pt x="600" y="-250" on="1"/>
        <pt x="568" y="-250" on="0"/>
        <pt x="502" y="-216" on="0"/>
        <pt x="434" y="-166" on="0"/>
        <pt x="362" y="-107" on="0"/>
        <pt x="286" y="-57" on="0"/>
        <pt x="204" y="-23" on="0"/>
        <pt x="161" y="-23" on="1"/>
        <pt x="155" y="-23" on="0"/>
        <pt x="144" y="-23" on="0"/>
        <pt x="138" y="-24" on="1"/>
        <pt x="287" y="669" on="1"/>
        <pt x="221" y="642" on="0"/>
        <pt x="147" y="532" on="0"/>
        <pt x="147" y="452" on="1"/>
        <pt x="147" y="417" on="0"/>
        <pt x="158" y="390" on="0"/>
        <pt x="161" y="383" on="1"/>
        <pt x="111" y="383" on="0"/>
        <pt x="54" y="424" on="0"/>
        <pt x="54" y="475" on="1"/>
        <pt x="54" y="528" on="0"/>
        <pt x="117" y="624" on="0"/>
        <pt x="217" y="697" on="0"/>
        <pt x="342" y="740" on="0"/>
        <pt x="404" y="740" on="1"/>
        <pt x="415" y="740" on="0"/>
        <pt x="435" y="739" on="0"/>
        <pt x="445" y="738" on="1"/>
      </contour>
    </TTGlyph>
    <TTGlyph name="Lslash" xMin="54" yMin="-250" xMax="711" yMax="740">
      <contour>
        <pt x="711" y="-93" on="1"/>
        <pt x="703" y="-165" on="0"/>
        <pt x="648" y="-250" on="0"/>
        <pt x="607" y="-250" on="1"/>
        <pt x="571" y="-250" on="0"/>
        <pt x="502" y="-216" on="0"/>
        <pt x="432" y="-166" on="0"/>
        <pt x="361" y="-107" on="0"/>
        <pt x="286" y="-57" on="0"/>
        <pt x="205" y="-23" on="0"/>
        <pt x="161" y="-23" on="1"/>
        <pt x="155" y="-23" on="0"/>
        <pt x="144" y="-23" on="0"/>
        <pt x="138" y="-24" on="1"/>
        <pt x="208" y="295" on="1"/>
        <pt x="143" y="256" on="1"/>
        <pt x="145" y="309" on="1"/>
        <pt x="221" y="358" on="1"/>
        <pt x="287" y="669" on="1"/>
        <pt x="221" y="642" on="0"/>
        <pt x="147" y="532" on="0"/>
        <pt x="147" y="451" on="1"/>
        <pt x="147" y="432" on="0"/>
        <pt x="151" y="408" on="0"/>
        <pt x="156" y="394" on="0"/>
        <pt x="161" y="386" on="0"/>
        <pt x="161" y="383" on="1"/>
        <pt x="109" y="383" on="0"/>
        <pt x="54" y="426" on="0"/>
        <pt x="54" y="480" on="1"/>
        <pt x="54" y="530" on="0"/>
        <pt x="117" y="624" on="0"/>
        <pt x="217" y="696" on="0"/>
        <pt x="342" y="740" on="0"/>
        <pt x="405" y="740" on="1"/>
        <pt x="416" y="740" on="0"/>
        <pt x="435" y="739" on="0"/>
        <pt x="445" y="738" on="1"/>
        <pt x="390" y="475" on="1"/>
        <pt x="506" y="544" on="1"/>
        <pt x="502" y="483" on="1"/>
        <pt x="375" y="405" on="1"/>
        <pt x="291" y="20" on="1"/>
        <pt x="330" y="11" on="0"/>
        <pt x="409" y="-31" on="0"/>
        <pt x="491" y="-75" on="0"/>
        <pt x="579" y="-109" on="0"/>
        <pt x="627" y="-109" on="1"/>
        <pt x="647" y="-109" on="0"/>
        <pt x="689" y="-102" on="0"/>
      </contour>
    </TTGlyph>
    <TTGlyph name="M" xMin="57" yMin="0" xMax="794" yMax="750">
      <contour>
        <pt x="545" y="0" on="1"/>
        <pt x="609" y="449" on="1"/>
        <pt x="421" y="0" on="1"/>
        <pt x="284" y="0" on="1"/>
        <pt x="304" y="451" on="1"/>
        <pt x="137" y="0" on="1"/>
        <pt x="57" y="0" on="1"/>
        <pt x="311" y="687" on="1"/>
        <pt x="236" y="662" on="0"/>
        <pt x="152" y="548" on="0"/>
        <pt x="152" y="462" on="1"/>
        <pt x="152" y="444" on="0"/>
        <pt x="156" y="421" on="0"/>
        <pt x="160" y="406" on="0"/>
        <pt x="165" y="396" on="0"/>
        <pt x="166" y="393" on="1"/>
        <pt x="118" y="393" on="0"/>
        <pt x="59" y="434" on="0"/>
        <pt x="59" y="483" on="1"/>
        <pt x="59" y="531" on="0"/>
        <pt x="116" y="627" on="0"/>
        <pt x="206" y="703" on="0"/>
        <pt x="319" y="750" on="0"/>
        <pt x="375" y="750" on="1"/>
        <pt x="416" y="750" on="0"/>
        <pt x="453" y="736" on="1"/>
        <pt x="430" y="209" on="1"/>
        <pt x="650" y="736" on="1"/>
        <pt x="794" y="736" on="1"/>
        <pt x="689" y="0" on="1"/>
      </contour>
    </TTGlyph>
    <TTGlyph name="N" xMin="61" yMin="0" xMax="770" yMax="750">
      <contour>
        <pt x="770" y="748" on="1"/>
        <pt x="600" y="0" on="1"/>
        <pt x="462" y="0" on="1"/>
        <pt x="346" y="496" on="1"/>
        <pt x="232" y="0" on="1"/>
        <pt x="137" y="0" on="1"/>
        <pt x="291" y="681" on="1"/>
        <pt x="226" y="655" on="0"/>
        <pt x="154" y="548" on="0"/>
        <pt x="154" y="464" on="1"/>
        <pt x="154" y="445" on="0"/>
        <pt x="157" y="421" on="0"/>
        <pt x="162" y="406" on="0"/>
        <pt x="166" y="397" on="0"/>
        <pt x="168" y="393" on="1"/>
        <pt x="116" y="393" on="0"/>
        <pt x="61" y="436" on="0"/>
        <pt x="61" y="490" on="1"/>
        <pt x="61" y="535" on="0"/>
        <pt x="102" y="628" on="0"/>
        <pt x="180" y="703" on="0"/>
        <pt x="294" y="750" on="0"/>
        <pt x="367" y="750" on="1"/>
        <pt x="379" y="750" on="0"/>
        <pt x="416" y="746" on="0"/>
        <pt x="437" y="736" on="1"/>
        <pt x="554" y="205" on="1"/>
        <pt x="673" y="748" on="1"/>
      </contour>
    </TTGlyph>
    <TTGlyph name="N.salt" xMin="57" yMin="-6" xMax="762" yMax="750">
      <contour>
        <pt x="407" y="750" on="1"/>
        <pt x="415" y="750" on="0"/>
        <pt x="437" y="749" on="0"/>
        <pt x="448" y="748" on="1"/>
        <pt x="429" y="662" on="1"/>
        <pt x="457" y="704" on="0"/>
        <pt x="534" y="750" on="0"/>
        <pt x="576" y="750" on="1"/>
        <pt x="605" y="750" on="0"/>
        <pt x="650" y="729" on="0"/>
        <pt x="681" y="693" on="0"/>
        <pt x="697" y="645" on="0"/>
        <pt x="697" y="618" on="1"/>
        <pt x="697" y="591" on="0"/>
        <pt x="682" y="507" on="0"/>
        <pt x="660" y="410" on="0"/>
        <pt x="633" y="308" on="0"/>
        <pt x="611" y="218" on="0"/>
        <pt x="596" y="147" on="0"/>
        <pt x="596" y="130" on="1"/>
        <pt x="596" y="114" on="0"/>
        <pt x="613" y="91" on="0"/>
        <pt x="636" y="91" on="1"/>
        <pt x="652" y="91" on="0"/>
        <pt x="677" y="104" on="0"/>
        <pt x="696" y="127" on="0"/>
        <pt x="712" y="159" on="0"/>
        <pt x="720" y="179" on="1"/>
        <pt x="762" y="179" on="1"/>
        <pt x="741" y="117" on="0"/>
        <pt x="693" y="44" on="0"/>
        <pt x="643" y="6" on="0"/>
        <pt x="596" y="-6" on="0"/>
        <pt x="576" y="-6" on="1"/>
        <pt x="543" y="-6" on="0"/>
        <pt x="498" y="14" on="0"/>
        <pt x="470" y="45" on="0"/>
        <pt x="458" y="83" on="0"/>
        <pt x="458" y="101" on="1"/>
        <pt x="458" y="122" on="0"/>
        <pt x="473" y="200" on="0"/>
        <pt x="494" y="295" on="0"/>
        <pt x="520" y="398" on="0"/>
        <pt x="541" y="494" on="0"/>
        <pt x="556" y="572" on="0"/>
        <pt x="556" y="595" on="1"/>
        <pt x="556" y="614" on="0"/>
        <pt x="546" y="638" on="0"/>
        <pt x="531" y="653" on="0"/>
        <pt x="514" y="659" on="0"/>
        <pt x="507" y="659" on="1"/>
        <pt x="491" y="659" on="0"/>
        <pt x="458" y="637" on="0"/>
        <pt x="430" y="602" on="0"/>
        <pt x="408" y="561" on="0"/>
        <pt x="404" y="542" on="1"/>
        <pt x="289" y="0" on="1"/>
        <pt x="132" y="0" on="1"/>
        <pt x="276" y="674" on="1"/>
        <pt x="216" y="645" on="0"/>
        <pt x="150" y="537" on="0"/>
        <pt x="150" y="462" on="1"/>
        <pt x="150" y="442" on="0"/>
        <pt x="154" y="418" on="0"/>
        <pt x="159" y="404" on="0"/>
        <pt x="164" y="396" on="0"/>
        <pt x="164" y="393" on="1"/>
        <pt x="114" y="393" on="0"/>
        <pt x="57" y="434" on="0"/>
        <pt x="57" y="485" on="1"/>
        <pt x="57" y="538" on="0"/>
        <pt x="120" y="634" on="0"/>
        <pt x="220" y="707" on="0"/>
        <pt x="345" y="750" on="0"/>
      </contour>
    </TTGlyph>
    <TTGlyph name="Nacute" xMin="61" yMin="0" xMax="770" yMax="1000">
      <contour>
        <pt x="770" y="748" on="1"/>
        <pt x="600" y="0" on="1"/>
        <pt x="462" y="0" on="1"/>
        <pt x="346" y="496" on="1"/>
        <pt x="232" y="0" on="1"/>
        <pt x="137" y="0" on="1"/>
        <pt x="291" y="681" on="1"/>
        <pt x="226" y="655" on="0"/>
        <pt x="154" y="548" on="0"/>
        <pt x="154" y="464" on="1"/>
        <pt x="154" y="445" on="0"/>
        <pt x="157" y="421" on="0"/>
        <pt x="162" y="406" on="0"/>
        <pt x="166" y="397" on="0"/>
        <pt x="168" y="393" on="1"/>
        <pt x="116" y="393" on="0"/>
        <pt x="61" y="436" on="0"/>
        <pt x="61" y="490" on="1"/>
        <pt x="61" y="535" on="0"/>
        <pt x="102" y="628" on="0"/>
        <pt x="180" y="703" on="0"/>
        <pt x="294" y="750" on="0"/>
        <pt x="367" y="750" on="1"/>
        <pt x="379" y="750" on="0"/>
        <pt x="416" y="746" on="0"/>
        <pt x="437" y="736" on="1"/>
        <pt x="554" y="205" on="1"/>
        <pt x="673" y="748" on="1"/>
      </contour>
      <contour>
        <pt x="642" y="1000" on="1"/>
        <pt x="747" y="1000" on="1"/>
        <pt x="626" y="811" on="1"/>
        <pt x="551" y="811" on="1"/>
      </contour>
    </TTGlyph>
    <TTGlyph name="Ntilde" xMin="61" yMin="0" xMax="770" yMax="930">
      <contour>
        <pt x="770" y="748" on="1"/>
        <pt x="600" y="0" on="1"/>
        <pt x="462" y="0" on="1"/>
        <pt x="346" y="496" on="1"/>
        <pt x="232" y="0" on="1"/>
        <pt x="137" y="0" on="1"/>
        <pt x="291" y="681" on="1"/>
        <pt x="226" y="655" on="0"/>
        <pt x="154" y="548" on="0"/>
        <pt x="154" y="464" on="1"/>
        <pt x="154" y="445" on="0"/>
        <pt x="157" y="421" on="0"/>
        <pt x="162" y="406" on="0"/>
        <pt x="166" y="397" on="0"/>
        <pt x="168" y="393" on="1"/>
        <pt x="116" y="393" on="0"/>
        <pt x="61" y="436" on="0"/>
        <pt x="61" y="490" on="1"/>
        <pt x="61" y="535" on="0"/>
        <pt x="102" y="628" on="0"/>
        <pt x="180" y="703" on="0"/>
        <pt x="294" y="750" on="0"/>
        <pt x="367" y="750" on="1"/>
        <pt x="379" y="750" on="0"/>
        <pt x="416" y="746" on="0"/>
        <pt x="437" y="736" on="1"/>
        <pt x="554" y="205" on="1"/>
        <pt x="673" y="748" on="1"/>
      </contour>
      <contour>
        <pt x="764" y="919" on="1"/>
        <pt x="760" y="901" on="0"/>
        <pt x="730" y="866" on="0"/>
        <pt x="686" y="837" on="0"/>
        <pt x="631" y="819" on="0"/>
        <pt x="603" y="819" on="1"/>
        <pt x="578" y="819" on="0"/>
        <pt x="535" y="831" on="0"/>
        <pt x="495" y="844" on="0"/>
        <pt x="456" y="856" on="0"/>
        <pt x="435" y="856" on="1"/>
        <pt x="397" y="856" on="0"/>
        <pt x="369" y="830" on="1"/>
        <pt x="363" y="832" on="1"/>
        <pt x="387" y="880" on="0"/>
        <pt x="473" y="930" on="0"/>
        <pt x="530" y="930" on="1"/>
        <pt x="557" y="930" on="0"/>
        <pt x="599" y="920" on="0"/>
        <pt x="637" y="907" on="0"/>
        <pt x="673" y="897" on="0"/>
        <pt x="695" y="897" on="1"/>
        <pt x="714" y="897" on="0"/>
        <pt x="747" y="909" on="0"/>
        <pt x="758" y="920" on="1"/>
      </contour>
    </TTGlyph>
    <TTGlyph name="O" xMin="54" yMin="-6" xMax="694" yMax="750">
      <contour>
        <pt x="469" y="656" on="1"/>
        <pt x="446" y="642" on="0"/>
        <pt x="403" y="584" on="0"/>
        <pt x="364" y="506" on="0"/>
        <pt x="331" y="415" on="0"/>
        <pt x="307" y="321" on="0"/>
        <pt x="294" y="229" on="0"/>
        <pt x="294" y="191" on="1"/>
        <pt x="294" y="140" on="0"/>
        <pt x="321" y="83" on="0"/>
        <pt x="354" y="83" on="1"/>
        <pt x="391" y="83" on="0"/>
        <pt x="465" y="165" on="0"/>
        <pt x="524" y="295" on="0"/>
        <pt x="561" y="458" on="0"/>
        <pt x="561" y="539" on="1"/>
        <pt x="561" y="583" on="0"/>
        <pt x="548" y="645" on="0"/>
        <pt x="517" y="685" on="0"/>
        <pt x="466" y="704" on="0"/>
        <pt x="428" y="704" on="1"/>
        <pt x="374" y="704" on="0"/>
        <pt x="272" y="668" on="0"/>
        <pt x="193" y="602" on="0"/>
        <pt x="145" y="507" on="0"/>
        <pt x="145" y="448" on="1"/>
        <pt x="145" y="420" on="0"/>
        <pt x="151" y="400" on="0"/>
        <pt x="155" y="393" on="1"/>
        <pt x="107" y="393" on="0"/>
        <pt x="54" y="431" on="0"/>
        <pt x="54" y="477" on="1"/>
        <pt x="54" y="529" on="0"/>
        <pt x="121" y="628" on="0"/>
        <pt x="232" y="704" on="0"/>
        <pt x="376" y="750" on="0"/>
        <pt x="452" y="750" on="1"/>
        <pt x="519" y="750" on="0"/>
        <pt x="612" y="713" on="0"/>
        <pt x="669" y="645" on="0"/>
        <pt x="694" y="552" on="0"/>
        <pt x="694" y="497" on="1"/>
        <pt x="694" y="448" on="0"/>
        <pt x="676" y="335" on="0"/>
        <pt x="637" y="224" on="0"/>
        <pt x="578" y="120" on="0"/>
        <pt x="497" y="41" on="0"/>
        <pt x="392" y="-6" on="0"/>
        <pt x="328" y="-6" on="1"/>
        <pt x="287" y="-6" on="0"/>
        <pt x="220" y="16" on="0"/>
        <pt x="172" y="64" on="0"/>
        <pt x="146" y="140" on="0"/>
        <pt x="146" y="195" on="1"/>
        <pt x="146" y="235" on="0"/>
        <pt x="161" y="336" on="0"/>
        <pt x="191" y="441" on="0"/>
        <pt x="236" y="540" on="0"/>
        <pt x="297" y="617" on="0"/>
        <pt x="372" y="664" on="0"/>
        <pt x="418" y="664" on="1"/>
        <pt x="429" y="664" on="0"/>
        <pt x="455" y="661" on="0"/>
      </contour>
    </TTGlyph>
    <TTGlyph name="OE" xMin="54" yMin="-6" xMax="952" yMax="750">
      <contour>
        <pt x="822" y="419" on="1"/>
        <pt x="802" y="345" on="1"/>
        <pt x="675" y="345" on="1"/>
        <pt x="659" y="280" on="0"/>
        <pt x="603" y="156" on="0"/>
        <pt x="561" y="106" on="1"/>
        <pt x="804" y="106" on="1"/>
        <pt x="783" y="0" on="1"/>
        <pt x="396" y="0" on="1"/>
        <pt x="380" y="-2" on="0"/>
        <pt x="346" y="-6" on="0"/>
        <pt x="328" y="-6" on="1"/>
        <pt x="287" y="-6" on="0"/>
        <pt x="220" y="16" on="0"/>
        <pt x="172" y="64" on="0"/>
        <pt x="146" y="140" on="0"/>
        <pt x="146" y="195" on="1"/>
        <pt x="146" y="235" on="0"/>
        <pt x="161" y="336" on="0"/>
        <pt x="191" y="441" on="0"/>
        <pt x="236" y="540" on="0"/>
        <pt x="297" y="617" on="0"/>
        <pt x="372" y="664" on="0"/>
        <pt x="418" y="664" on="1"/>
        <pt x="429" y="664" on="0"/>
        <pt x="455" y="661" on="0"/>
        <pt x="469" y="656" on="1"/>
        <pt x="446" y="642" on="0"/>
        <pt x="403" y="584" on="0"/>
        <pt x="364" y="506" on="0"/>
        <pt x="331" y="415" on="0"/>
        <pt x="307" y="321" on="0"/>
        <pt x="294" y="229" on="0"/>
        <pt x="294" y="191" on="1"/>
        <pt x="294" y="140" on="0"/>
        <pt x="321" y="83" on="0"/>
        <pt x="354" y="83" on="1"/>
        <pt x="391" y="83" on="0"/>
        <pt x="465" y="165" on="0"/>
        <pt x="524" y="295" on="0"/>
        <pt x="561" y="458" on="0"/>
        <pt x="561" y="539" on="1"/>
        <pt x="561" y="583" on="0"/>
        <pt x="548" y="645" on="0"/>
        <pt x="517" y="685" on="0"/>
        <pt x="466" y="704" on="0"/>
        <pt x="428" y="704" on="1"/>
        <pt x="374" y="704" on="0"/>
        <pt x="272" y="668" on="0"/>
        <pt x="193" y="602" on="0"/>
        <pt x="145" y="507" on="0"/>
        <pt x="145" y="448" on="1"/>
        <pt x="145" y="420" on="0"/>
        <pt x="151" y="400" on="0"/>
        <pt x="155" y="393" on="1"/>
        <pt x="107" y="393" on="0"/>
        <pt x="54" y="431" on="0"/>
        <pt x="54" y="477" on="1"/>
        <pt x="54" y="529" on="0"/>
        <pt x="121" y="628" on="0"/>
        <pt x="232" y="704" on="0"/>
        <pt x="376" y="750" on="0"/>
        <pt x="452" y="750" on="1"/>
        <pt x="521" y="750" on="0"/>
        <pt x="566" y="731" on="1"/>
        <pt x="592" y="740" on="0"/>
        <pt x="652" y="750" on="0"/>
        <pt x="696" y="750" on="1"/>
        <pt x="726" y="750" on="0"/>
        <pt x="814" y="738" on="0"/>
        <pt x="862" y="738" on="1"/>
        <pt x="885" y="738" on="0"/>
        <pt x="931" y="743" on="0"/>
        <pt x="952" y="750" on="1"/>
        <pt x="947" y="734" on="0"/>
        <pt x="938" y="698" on="0"/>
        <pt x="919" y="664" on="0"/>
        <pt x="886" y="636" on="0"/>
        <pt x="857" y="630" on="1"/>
        <pt x="828" y="630" on="0"/>
        <pt x="774" y="639" on="0"/>
        <pt x="724" y="651" on="0"/>
        <pt x="675" y="663" on="0"/>
        <pt x="650" y="666" on="1"/>
        <pt x="673" y="633" on="0"/>
        <pt x="694" y="548" on="0"/>
        <pt x="694" y="497" on="1"/>
        <pt x="694" y="478" on="0"/>
        <pt x="691" y="439" on="0"/>
        <pt x="689" y="419" on="1"/>
      </contour>
    </TTGlyph>
    <TTGlyph name="Oacute" xMin="54" yMin="-6" xMax="694" yMax="1000">
      <contour>
        <pt x="469" y="656" on="1"/>
        <pt x="446" y="642" on="0"/>
        <pt x="403" y="584" on="0"/>
        <pt x="364" y="506" on="0"/>
        <pt x="331" y="415" on="0"/>
        <pt x="307" y="321" on="0"/>
        <pt x="294" y="229" on="0"/>
        <pt x="294" y="191" on="1"/>
        <pt x="294" y="140" on="0"/>
        <pt x="321" y="83" on="0"/>
        <pt x="354" y="83" on="1"/>
        <pt x="391" y="83" on="0"/>
        <pt x="465" y="165" on="0"/>
        <pt x="524" y="295" on="0"/>
        <pt x="561" y="458" on="0"/>
        <pt x="561" y="539" on="1"/>
        <pt x="561" y="583" on="0"/>
        <pt x="548" y="645" on="0"/>
        <pt x="517" y="685" on="0"/>
        <pt x="466" y="704" on="0"/>
        <pt x="428" y="704" on="1"/>
        <pt x="374" y="704" on="0"/>
        <pt x="272" y="668" on="0"/>
        <pt x="193" y="602" on="0"/>
        <pt x="145" y="507" on="0"/>
        <pt x="145" y="448" on="1"/>
        <pt x="145" y="420" on="0"/>
        <pt x="151" y="400" on="0"/>
        <pt x="155" y="393" on="1"/>
        <pt x="107" y="393" on="0"/>
        <pt x="54" y="431" on="0"/>
        <pt x="54" y="477" on="1"/>
        <pt x="54" y="529" on="0"/>
        <pt x="121" y="628" on="0"/>
        <pt x="232" y="704" on="0"/>
        <pt x="376" y="750" on="0"/>
        <pt x="452" y="750" on="1"/>
        <pt x="519" y="750" on="0"/>
        <pt x="612" y="713" on="0"/>
        <pt x="669" y="645" on="0"/>
        <pt x="694" y="552" on="0"/>
        <pt x="694" y="497" on="1"/>
        <pt x="694" y="448" on="0"/>
        <pt x="676" y="335" on="0"/>
        <pt x="637" y="224" on="0"/>
        <pt x="578" y="120" on="0"/>
        <pt x="497" y="41" on="0"/>
        <pt x="392" y="-6" on="0"/>
        <pt x="328" y="-6" on="1"/>
        <pt x="287" y="-6" on="0"/>
        <pt x="220" y="16" on="0"/>
        <pt x="172" y="64" on="0"/>
        <pt x="146" y="140" on="0"/>
        <pt x="146" y="195" on="1"/>
        <pt x="146" y="235" on="0"/>
        <pt x="161" y="336" on="0"/>
        <pt x="191" y="441" on="0"/>
        <pt x="236" y="540" on="0"/>
        <pt x="297" y="617" on="0"/>
        <pt x="372" y="664" on="0"/>
        <pt x="418" y="664" on="1"/>
        <pt x="429" y="664" on="0"/>
        <pt x="455" y="661" on="0"/>
      </contour>
      <contour>
        <pt x="526" y="1000" on="1"/>
        <pt x="631" y="1000" on="1"/>
        <pt x="510" y="811" on="1"/>
        <pt x="435" y="811" on="1"/>
      </contour>
    </TTGlyph>
    <TTGlyph name="Ocircumflex" xMin="54" yMin="-6" xMax="694" yMax="1000">
      <contour>
        <pt x="469" y="656" on="1"/>
        <pt x="446" y="642" on="0"/>
        <pt x="403" y="584" on="0"/>
        <pt x="364" y="506" on="0"/>
        <pt x="331" y="415" on="0"/>
        <pt x="307" y="321" on="0"/>
        <pt x="294" y="229" on="0"/>
        <pt x="294" y="191" on="1"/>
        <pt x="294" y="140" on="0"/>
        <pt x="321" y="83" on="0"/>
        <pt x="354" y="83" on="1"/>
        <pt x="391" y="83" on="0"/>
        <pt x="465" y="165" on="0"/>
        <pt x="524" y="295" on="0"/>
        <pt x="561" y="458" on="0"/>
        <pt x="561" y="539" on="1"/>
        <pt x="561" y="583" on="0"/>
        <pt x="548" y="645" on="0"/>
        <pt x="517" y="685" on="0"/>
        <pt x="466" y="704" on="0"/>
        <pt x="428" y="704" on="1"/>
        <pt x="374" y="704" on="0"/>
        <pt x="272" y="668" on="0"/>
        <pt x="193" y="602" on="0"/>
        <pt x="145" y="507" on="0"/>
        <pt x="145" y="448" on="1"/>
        <pt x="145" y="420" on="0"/>
        <pt x="151" y="400" on="0"/>
        <pt x="155" y="393" on="1"/>
        <pt x="107" y="393" on="0"/>
        <pt x="54" y="431" on="0"/>
        <pt x="54" y="477" on="1"/>
        <pt x="54" y="529" on="0"/>
        <pt x="121" y="628" on="0"/>
        <pt x="232" y="704" on="0"/>
        <pt x="376" y="750" on="0"/>
        <pt x="452" y="750" on="1"/>
        <pt x="519" y="750" on="0"/>
        <pt x="612" y="713" on="0"/>
        <pt x="669" y="645" on="0"/>
        <pt x="694" y="552" on="0"/>
        <pt x="694" y="497" on="1"/>
        <pt x="694" y="448" on="0"/>
        <pt x="676" y="335" on="0"/>
        <pt x="637" y="224" on="0"/>
        <pt x="578" y="120" on="0"/>
        <pt x="497" y="41" on="0"/>
        <pt x="392" y="-6" on="0"/>
        <pt x="328" y="-6" on="1"/>
        <pt x="287" y="-6" on="0"/>
        <pt x="220" y="16" on="0"/>
        <pt x="172" y="64" on="0"/>
        <pt x="146" y="140" on="0"/>
        <pt x="146" y="195" on="1"/>
        <pt x="146" y="235" on="0"/>
        <pt x="161" y="336" on="0"/>
        <pt x="191" y="441" on="0"/>
        <pt x="236" y="540" on="0"/>
        <pt x="297" y="617" on="0"/>
        <pt x="372" y="664" on="0"/>
        <pt x="418" y="664" on="1"/>
        <pt x="429" y="664" on="0"/>
        <pt x="455" y="661" on="0"/>
      </contour>
      <contour>
        <pt x="571" y="811" on="1"/>
        <pt x="511" y="891" on="1"/>
        <pt x="354" y="811" on="1"/>
        <pt x="310" y="811" on="1"/>
        <pt x="522" y="1000" on="1"/>
        <pt x="543" y="1000" on="1"/>
        <pt x="603" y="811" on="1"/>
      </contour>
    </TTGlyph>
    <TTGlyph name="Odieresis" xMin="54" yMin="-6" xMax="694" yMax="945">
      <contour>
        <pt x="469" y="656" on="1"/>
        <pt x="446" y="642" on="0"/>
        <pt x="403" y="584" on="0"/>
        <pt x="364" y="506" on="0"/>
        <pt x="331" y="415" on="0"/>
        <pt x="307" y="321" on="0"/>
        <pt x="294" y="229" on="0"/>
        <pt x="294" y="191" on="1"/>
        <pt x="294" y="140" on="0"/>
        <pt x="321" y="83" on="0"/>
        <pt x="354" y="83" on="1"/>
        <pt x="391" y="83" on="0"/>
        <pt x="465" y="165" on="0"/>
        <pt x="524" y="295" on="0"/>
        <pt x="561" y="458" on="0"/>
        <pt x="561" y="539" on="1"/>
        <pt x="561" y="583" on="0"/>
        <pt x="548" y="645" on="0"/>
        <pt x="517" y="685" on="0"/>
        <pt x="466" y="704" on="0"/>
        <pt x="428" y="704" on="1"/>
        <pt x="374" y="704" on="0"/>
        <pt x="272" y="668" on="0"/>
        <pt x="193" y="602" on="0"/>
        <pt x="145" y="507" on="0"/>
        <pt x="145" y="448" on="1"/>
        <pt x="145" y="420" on="0"/>
        <pt x="151" y="400" on="0"/>
        <pt x="155" y="393" on="1"/>
        <pt x="107" y="393" on="0"/>
        <pt x="54" y="431" on="0"/>
        <pt x="54" y="477" on="1"/>
        <pt x="54" y="529" on="0"/>
        <pt x="121" y="628" on="0"/>
        <pt x="232" y="704" on="0"/>
        <pt x="376" y="750" on="0"/>
        <pt x="452" y="750" on="1"/>
        <pt x="519" y="750" on="0"/>
        <pt x="612" y="713" on="0"/>
        <pt x="669" y="645" on="0"/>
        <pt x="694" y="552" on="0"/>
        <pt x="694" y="497" on="1"/>
        <pt x="694" y="448" on="0"/>
        <pt x="676" y="335" on="0"/>
        <pt x="637" y="224" on="0"/>
        <pt x="578" y="120" on="0"/>
        <pt x="497" y="41" on="0"/>
        <pt x="392" y="-6" on="0"/>
        <pt x="328" y="-6" on="1"/>
        <pt x="287" y="-6" on="0"/>
        <pt x="220" y="16" on="0"/>
        <pt x="172" y="64" on="0"/>
        <pt x="146" y="140" on="0"/>
        <pt x="146" y="195" on="1"/>
        <pt x="146" y="235" on="0"/>
        <pt x="161" y="336" on="0"/>
        <pt x="191" y="441" on="0"/>
        <pt x="236" y="540" on="0"/>
        <pt x="297" y="617" on="0"/>
        <pt x="372" y="664" on="0"/>
        <pt x="418" y="664" on="1"/>
        <pt x="429" y="664" on="0"/>
        <pt x="455" y="661" on="0"/>
      </contour>
      <contour>
        <pt x="326" y="884" on="1"/>
        <pt x="326" y="909" on="0"/>
        <pt x="361" y="945" on="0"/>
        <pt x="387" y="945" on="1"/>
        <pt x="412" y="945" on="0"/>
        <pt x="448" y="909" on="0"/>
        <pt x="448" y="884" on="1"/>
        <pt x="448" y="858" on="0"/>
        <pt x="412" y="823" on="0"/>
        <pt x="387" y="823" on="1"/>
        <pt x="361" y="823" on="0"/>
        <pt x="326" y="858" on="0"/>
      </contour>
      <contour>
        <pt x="506" y="884" on="1"/>
        <pt x="506" y="909" on="0"/>
        <pt x="541" y="945" on="0"/>
        <pt x="567" y="945" on="1"/>
        <pt x="592" y="945" on="0"/>
        <pt x="628" y="909" on="0"/>
        <pt x="628" y="884" on="1"/>
        <pt x="628" y="858" on="0"/>
        <pt x="592" y="823" on="0"/>
        <pt x="567" y="823" on="1"/>
        <pt x="541" y="823" on="0"/>
        <pt x="506" y="858" on="0"/>
      </contour>
    </TTGlyph>
    <TTGlyph name="Ograve" xMin="54" yMin="-6" xMax="694" yMax="1000">
      <contour>
        <pt x="469" y="656" on="1"/>
        <pt x="446" y="642" on="0"/>
        <pt x="403" y="584" on="0"/>
        <pt x="364" y="506" on="0"/>
        <pt x="331" y="415" on="0"/>
        <pt x="307" y="321" on="0"/>
        <pt x="294" y="229" on="0"/>
        <pt x="294" y="191" on="1"/>
        <pt x="294" y="140" on="0"/>
        <pt x="321" y="83" on="0"/>
        <pt x="354" y="83" on="1"/>
        <pt x="391" y="83" on="0"/>
        <pt x="465" y="165" on="0"/>
        <pt x="524" y="295" on="0"/>
        <pt x="561" y="458" on="0"/>
        <pt x="561" y="539" on="1"/>
        <pt x="561" y="583" on="0"/>
        <pt x="548" y="645" on="0"/>
        <pt x="517" y="685" on="0"/>
        <pt x="466" y="704" on="0"/>
        <pt x="428" y="704" on="1"/>
        <pt x="374" y="704" on="0"/>
        <pt x="272" y="668" on="0"/>
        <pt x="193" y="602" on="0"/>
        <pt x="145" y="507" on="0"/>
        <pt x="145" y="448" on="1"/>
        <pt x="145" y="420" on="0"/>
        <pt x="151" y="400" on="0"/>
        <pt x="155" y="393" on="1"/>
        <pt x="107" y="393" on="0"/>
        <pt x="54" y="431" on="0"/>
        <pt x="54" y="477" on="1"/>
        <pt x="54" y="529" on="0"/>
        <pt x="121" y="628" on="0"/>
        <pt x="232" y="704" on="0"/>
        <pt x="376" y="750" on="0"/>
        <pt x="452" y="750" on="1"/>
        <pt x="519" y="750" on="0"/>
        <pt x="612" y="713" on="0"/>
        <pt x="669" y="645" on="0"/>
        <pt x="694" y="552" on="0"/>
        <pt x="694" y="497" on="1"/>
        <pt x="694" y="448" on="0"/>
        <pt x="676" y="335" on="0"/>
        <pt x="637" y="224" on="0"/>
        <pt x="578" y="120" on="0"/>
        <pt x="497" y="41" on="0"/>
        <pt x="392" y="-6" on="0"/>
        <pt x="328" y="-6" on="1"/>
        <pt x="287" y="-6" on="0"/>
        <pt x="220" y="16" on="0"/>
        <pt x="172" y="64" on="0"/>
        <pt x="146" y="140" on="0"/>
        <pt x="146" y="195" on="1"/>
        <pt x="146" y="235" on="0"/>
        <pt x="161" y="336" on="0"/>
        <pt x="191" y="441" on="0"/>
        <pt x="236" y="540" on="0"/>
        <pt x="297" y="617" on="0"/>
        <pt x="372" y="664" on="0"/>
        <pt x="418" y="664" on="1"/>
        <pt x="429" y="664" on="0"/>
        <pt x="455" y="661" on="0"/>
      </contour>
      <contour>
        <pt x="330" y="1000" on="1"/>
        <pt x="435" y="1000" on="1"/>
        <pt x="464" y="811" on="1"/>
        <pt x="389" y="811" on="1"/>
      </contour>
    </TTGlyph>
    <TTGlyph name="Ohungarumlaut" xMin="54" yMin="-6" xMax="748" yMax="1000">
      <contour>
        <pt x="469" y="656" on="1"/>
        <pt x="446" y="642" on="0"/>
        <pt x="403" y="584" on="0"/>
        <pt x="364" y="506" on="0"/>
        <pt x="331" y="415" on="0"/>
        <pt x="307" y="321" on="0"/>
        <pt x="294" y="229" on="0"/>
        <pt x="294" y="191" on="1"/>
        <pt x="294" y="140" on="0"/>
        <pt x="321" y="83" on="0"/>
        <pt x="354" y="83" on="1"/>
        <pt x="391" y="83" on="0"/>
        <pt x="465" y="165" on="0"/>
        <pt x="524" y="295" on="0"/>
        <pt x="561" y="458" on="0"/>
        <pt x="561" y="539" on="1"/>
        <pt x="561" y="583" on="0"/>
        <pt x="548" y="645" on="0"/>
        <pt x="517" y="685" on="0"/>
        <pt x="466" y="704" on="0"/>
        <pt x="428" y="704" on="1"/>
        <pt x="374" y="704" on="0"/>
        <pt x="272" y="668" on="0"/>
        <pt x="193" y="602" on="0"/>
        <pt x="145" y="507" on="0"/>
        <pt x="145" y="448" on="1"/>
        <pt x="145" y="420" on="0"/>
        <pt x="151" y="400" on="0"/>
        <pt x="155" y="393" on="1"/>
        <pt x="107" y="393" on="0"/>
        <pt x="54" y="431" on="0"/>
        <pt x="54" y="477" on="1"/>
        <pt x="54" y="529" on="0"/>
        <pt x="121" y="628" on="0"/>
        <pt x="232" y="704" on="0"/>
        <pt x="376" y="750" on="0"/>
        <pt x="452" y="750" on="1"/>
        <pt x="519" y="750" on="0"/>
        <pt x="612" y="713" on="0"/>
        <pt x="669" y="645" on="0"/>
        <pt x="694" y="552" on="0"/>
        <pt x="694" y="497" on="1"/>
        <pt x="694" y="448" on="0"/>
        <pt x="676" y="335" on="0"/>
        <pt x="637" y="224" on="0"/>
        <pt x="578" y="120" on="0"/>
        <pt x="497" y="41" on="0"/>
        <pt x="392" y="-6" on="0"/>
        <pt x="328" y="-6" on="1"/>
        <pt x="287" y="-6" on="0"/>
        <pt x="220" y="16" on="0"/>
        <pt x="172" y="64" on="0"/>
        <pt x="146" y="140" on="0"/>
        <pt x="146" y="195" on="1"/>
        <pt x="146" y="235" on="0"/>
        <pt x="161" y="336" on="0"/>
        <pt x="191" y="441" on="0"/>
        <pt x="236" y="540" on="0"/>
        <pt x="297" y="617" on="0"/>
        <pt x="372" y="664" on="0"/>
        <pt x="418" y="664" on="1"/>
        <pt x="429" y="664" on="0"/>
        <pt x="455" y="661" on="0"/>
      </contour>
      <contour>
        <pt x="523" y="1000" on="1"/>
        <pt x="618" y="1000" on="1"/>
        <pt x="497" y="811" on="1"/>
        <pt x="432" y="811" on="1"/>
      </contour>
      <contour>
        <pt x="653" y="1000" on="1"/>
        <pt x="748" y="1000" on="1"/>
        <pt x="627" y="811" on="1"/>
        <pt x="562" y="811" on="1"/>
      </contour>
    </TTGlyph>
    <TTGlyph name="Oslash" xMin="46" yMin="-71" xMax="663" yMax="750">
      <contour>
        <pt x="296" y="-71" on="1"/>
        <pt x="310" y="-6" on="1"/>
        <pt x="271" y="-6" on="0"/>
        <pt x="207" y="15" on="0"/>
        <pt x="160" y="60" on="0"/>
        <pt x="135" y="132" on="0"/>
        <pt x="135" y="183" on="1"/>
        <pt x="135" y="221" on="0"/>
        <pt x="150" y="315" on="0"/>
        <pt x="179" y="413" on="0"/>
        <pt x="222" y="506" on="0"/>
        <pt x="280" y="578" on="0"/>
        <pt x="353" y="622" on="0"/>
        <pt x="396" y="622" on="1"/>
        <pt x="420" y="622" on="0"/>
        <pt x="441" y="615" on="1"/>
        <pt x="450" y="656" on="1"/>
        <pt x="433" y="659" on="0"/>
        <pt x="412" y="659" on="1"/>
        <pt x="356" y="659" on="0"/>
        <pt x="256" y="626" on="0"/>
        <pt x="179" y="563" on="0"/>
        <pt x="134" y="474" on="0"/>
        <pt x="134" y="418" on="1"/>
        <pt x="134" y="391" on="0"/>
        <pt x="144" y="373" on="0"/>
        <pt x="144" y="368" on="1"/>
        <pt x="98" y="368" on="0"/>
        <pt x="46" y="403" on="0"/>
        <pt x="46" y="446" on="1"/>
        <pt x="46" y="495" on="0"/>
        <pt x="110" y="588" on="0"/>
        <pt x="218" y="659" on="0"/>
        <pt x="359" y="702" on="0"/>
        <pt x="435" y="702" on="1"/>
        <pt x="441" y="702" on="0"/>
        <pt x="453" y="702" on="0"/>
        <pt x="459" y="701" on="1"/>
        <pt x="470" y="750" on="1"/>
        <pt x="522" y="750" on="1"/>
        <pt x="510" y="694" on="1"/>
        <pt x="594" y="674" on="0"/>
        <pt x="663" y="550" on="0"/>
        <pt x="663" y="462" on="1"/>
        <pt x="663" y="400" on="0"/>
        <pt x="629" y="250" on="0"/>
        <pt x="556" y="115" on="0"/>
        <pt x="442" y="13" on="0"/>
        <pt x="363" y="-1" on="1"/>
        <pt x="348" y="-71" on="1"/>
      </contour>
      <contour>
        <pt x="278" y="179" on="1"/>
        <pt x="278" y="134" on="0"/>
        <pt x="300" y="75" on="0"/>
        <pt x="326" y="70" on="1"/>
        <pt x="440" y="610" on="1"/>
        <pt x="408" y="589" on="0"/>
        <pt x="350" y="488" on="0"/>
        <pt x="305" y="364" on="0"/>
        <pt x="278" y="232" on="0"/>
      </contour>
      <contour>
        <pt x="535" y="495" on="1"/>
        <pt x="535" y="545" on="0"/>
        <pt x="520" y="614" on="0"/>
        <pt x="497" y="634" on="1"/>
        <pt x="382" y="88" on="1"/>
        <pt x="412" y="110" on="0"/>
        <pt x="467" y="198" on="0"/>
        <pt x="510" y="310" on="0"/>
        <pt x="535" y="436" on="0"/>
      </contour>
    </TTGlyph>
    <TTGlyph name="Otilde" xMin="54" yMin="-6" xMax="713" yMax="930">
      <contour>
        <pt x="469" y="656" on="1"/>
        <pt x="446" y="642" on="0"/>
        <pt x="403" y="584" on="0"/>
        <pt x="364" y="506" on="0"/>
        <pt x="331" y="415" on="0"/>
        <pt x="307" y="321" on="0"/>
        <pt x="294" y="229" on="0"/>
        <pt x="294" y="191" on="1"/>
        <pt x="294" y="140" on="0"/>
        <pt x="321" y="83" on="0"/>
        <pt x="354" y="83" on="1"/>
        <pt x="391" y="83" on="0"/>
        <pt x="465" y="165" on="0"/>
        <pt x="524" y="295" on="0"/>
        <pt x="561" y="458" on="0"/>
        <pt x="561" y="539" on="1"/>
        <pt x="561" y="583" on="0"/>
        <pt x="548" y="645" on="0"/>
        <pt x="517" y="685" on="0"/>
        <pt x="466" y="704" on="0"/>
        <pt x="428" y="704" on="1"/>
        <pt x="374" y="704" on="0"/>
        <pt x="272" y="668" on="0"/>
        <pt x="193" y="602" on="0"/>
        <pt x="145" y="507" on="0"/>
        <pt x="145" y="448" on="1"/>
        <pt x="145" y="420" on="0"/>
        <pt x="151" y="400" on="0"/>
        <pt x="155" y="393" on="1"/>
        <pt x="107" y="393" on="0"/>
        <pt x="54" y="431" on="0"/>
        <pt x="54" y="477" on="1"/>
        <pt x="54" y="529" on="0"/>
        <pt x="121" y="628" on="0"/>
        <pt x="232" y="704" on="0"/>
        <pt x="376" y="750" on="0"/>
        <pt x="452" y="750" on="1"/>
        <pt x="519" y="750" on="0"/>
        <pt x="612" y="713" on="0"/>
        <pt x="669" y="645" on="0"/>
        <pt x="694" y="552" on="0"/>
        <pt x="694" y="497" on="1"/>
        <pt x="694" y="448" on="0"/>
        <pt x="676" y="335" on="0"/>
        <pt x="637" y="224" on="0"/>
        <pt x="578" y="120" on="0"/>
        <pt x="497" y="41" on="0"/>
        <pt x="392" y="-6" on="0"/>
        <pt x="328" y="-6" on="1"/>
        <pt x="287" y="-6" on="0"/>
        <pt x="220" y="16" on="0"/>
        <pt x="172" y="64" on="0"/>
        <pt x="146" y="140" on="0"/>
        <pt x="146" y="195" on="1"/>
        <pt x="146" y="235" on="0"/>
        <pt x="161" y="336" on="0"/>
        <pt x="191" y="441" on="0"/>
        <pt x="236" y="540" on="0"/>
        <pt x="297" y="617" on="0"/>
        <pt x="372" y="664" on="0"/>
        <pt x="418" y="664" on="1"/>
        <pt x="429" y="664" on="0"/>
        <pt x="455" y="661" on="0"/>
      </contour>
      <contour>
        <pt x="713" y="919" on="1"/>
        <pt x="709" y="901" on="0"/>
        <pt x="679" y="866" on="0"/>
        <pt x="635" y="837" on="0"/>
        <pt x="580" y="819" on="0"/>
        <pt x="552" y="819" on="1"/>
        <pt x="527" y="819" on="0"/>
        <pt x="484" y="831" on="0"/>
        <pt x="444" y="844" on="0"/>
        <pt x="405" y="856" on="0"/>
        <pt x="384" y="856" on="1"/>
        <pt x="346" y="856" on="0"/>
        <pt x="318" y="830" on="1"/>
        <pt x="312" y="832" on="1"/>
        <pt x="336" y="880" on="0"/>
        <pt x="422" y="930" on="0"/>
        <pt x="479" y="930" on="1"/>
        <pt x="506" y="930" on="0"/>
        <pt x="548" y="920" on="0"/>
        <pt x="586" y="907" on="0"/>
        <pt x="622" y="897" on="0"/>
        <pt x="644" y="897" on="1"/>
        <pt x="663" y="897" on="0"/>
        <pt x="696" y="909" on="0"/>
        <pt x="707" y="920" on="1"/>
      </contour>
    </TTGlyph>
    <TTGlyph name="P" xMin="57" yMin="0" xMax="644" yMax="750">
      <contour>
        <pt x="429" y="656" on="1"/>
        <pt x="358" y="322" on="1"/>
        <pt x="396" y="325" on="0"/>
        <pt x="460" y="372" on="0"/>
        <pt x="507" y="443" on="0"/>
        <pt x="533" y="530" on="0"/>
        <pt x="533" y="572" on="1"/>
        <pt x="533" y="598" on="0"/>
        <pt x="520" y="646" on="0"/>
        <pt x="489" y="682" on="0"/>
        <pt x="434" y="704" on="0"/>
        <pt x="392" y="704" on="1"/>
        <pt x="343" y="704" on="0"/>
        <pt x="255" y="672" on="0"/>
        <pt x="189" y="611" on="0"/>
        <pt x="150" y="520" on="0"/>
        <pt x="150" y="462" on="1"/>
        <pt x="150" y="443" on="0"/>
        <pt x="153" y="420" on="0"/>
        <pt x="157" y="405" on="0"/>
        <pt x="162" y="397" on="0"/>
        <pt x="164" y="393" on="1"/>
        <pt x="114" y="393" on="0"/>
        <pt x="57" y="434" on="0"/>
        <pt x="57" y="485" on="1"/>
        <pt x="57" y="538" on="0"/>
        <pt x="119" y="634" on="0"/>
        <pt x="220" y="707" on="0"/>
        <pt x="349" y="750" on="0"/>
        <pt x="415" y="750" on="1"/>
        <pt x="473" y="750" on="0"/>
        <pt x="559" y="717" on="0"/>
        <pt x="616" y="663" on="0"/>
        <pt x="644" y="591" on="0"/>
        <pt x="644" y="552" on="1"/>
        <pt x="644" y="505" on="0"/>
        <pt x="604" y="410" on="0"/>
        <pt x="530" y="333" on="0"/>
        <pt x="422" y="285" on="0"/>
        <pt x="355" y="285" on="1"/>
        <pt x="350" y="285" on="1"/>
        <pt x="289" y="0" on="1"/>
        <pt x="145" y="0" on="1"/>
        <pt x="281" y="636" on="1"/>
      </contour>
    </TTGlyph>
    <TTGlyph name="Q" xMin="54" yMin="-113" xMax="694" yMax="750">
      <contour>
        <pt x="469" y="656" on="1"/>
        <pt x="446" y="642" on="0"/>
        <pt x="403" y="584" on="0"/>
        <pt x="364" y="506" on="0"/>
        <pt x="331" y="415" on="0"/>
        <pt x="307" y="321" on="0"/>
        <pt x="294" y="229" on="0"/>
        <pt x="294" y="191" on="1"/>
        <pt x="294" y="179" on="0"/>
        <pt x="294" y="158" on="0"/>
        <pt x="296" y="148" on="1"/>
        <pt x="332" y="157" on="0"/>
        <pt x="358" y="157" on="1"/>
        <pt x="384" y="157" on="0"/>
        <pt x="423" y="142" on="0"/>
        <pt x="439" y="130" on="1"/>
        <pt x="464" y="162" on="0"/>
        <pt x="509" y="254" on="0"/>
        <pt x="542" y="363" on="0"/>
        <pt x="561" y="481" on="0"/>
        <pt x="561" y="539" on="1"/>
        <pt x="561" y="583" on="0"/>
        <pt x="548" y="645" on="0"/>
        <pt x="517" y="685" on="0"/>
        <pt x="466" y="704" on="0"/>
        <pt x="428" y="704" on="1"/>
        <pt x="374" y="704" on="0"/>
        <pt x="272" y="668" on="0"/>
        <pt x="193" y="602" on="0"/>
        <pt x="145" y="507" on="0"/>
        <pt x="145" y="448" on="1"/>
        <pt x="145" y="419" on="0"/>
        <pt x="153" y="400" on="0"/>
        <pt x="155" y="393" on="1"/>
        <pt x="107" y="393" on="0"/>
        <pt x="54" y="431" on="0"/>
        <pt x="54" y="477" on="1"/>
        <pt x="54" y="529" on="0"/>
        <pt x="121" y="628" on="0"/>
        <pt x="232" y="704" on="0"/>
        <pt x="376" y="750" on="0"/>
        <pt x="452" y="750" on="1"/>
        <pt x="519" y="750" on="0"/>
        <pt x="612" y="713" on="0"/>
        <pt x="669" y="645" on="0"/>
        <pt x="694" y="552" on="0"/>
        <pt x="694" y="497" on="1"/>
        <pt x="694" y="443" on="0"/>
        <pt x="672" y="318" on="0"/>
        <pt x="625" y="197" on="0"/>
        <pt x="553" y="89" on="0"/>
        <pt x="504" y="52" on="1"/>
        <pt x="515" y="36" on="0"/>
        <pt x="538" y="7" on="0"/>
        <pt x="567" y="-16" on="0"/>
        <pt x="603" y="-29" on="0"/>
        <pt x="626" y="-29" on="1"/>
        <pt x="634" y="-29" on="0"/>
        <pt x="644" y="-28" on="0"/>
        <pt x="650" y="-27" on="1"/>
        <pt x="630" y="-78" on="0"/>
        <pt x="580" y="-113" on="0"/>
        <pt x="545" y="-113" on="1"/>
        <pt x="513" y="-113" on="0"/>
        <pt x="470" y="-92" on="0"/>
        <pt x="442" y="-58" on="0"/>
        <pt x="425" y="-15" on="0"/>
        <pt x="419" y="8" on="1"/>
        <pt x="375" y="-6" on="0"/>
        <pt x="328" y="-6" on="1"/>
        <pt x="287" y="-6" on="0"/>
        <pt x="220" y="16" on="0"/>
        <pt x="172" y="64" on="0"/>
        <pt x="146" y="140" on="0"/>
        <pt x="146" y="195" on="1"/>
        <pt x="146" y="235" on="0"/>
        <pt x="161" y="336" on="0"/>
        <pt x="191" y="441" on="0"/>
        <pt x="236" y="540" on="0"/>
        <pt x="297" y="617" on="0"/>
        <pt x="372" y="664" on="0"/>
        <pt x="418" y="664" on="1"/>
        <pt x="429" y="664" on="0"/>
        <pt x="455" y="661" on="0"/>
      </contour>
      <contour>
        <pt x="354" y="75" on="1"/>
        <pt x="373" y="75" on="0"/>
        <pt x="390" y="85" on="1"/>
        <pt x="381" y="101" on="0"/>
        <pt x="354" y="120" on="0"/>
        <pt x="333" y="120" on="1"/>
        <pt x="319" y="120" on="0"/>
        <pt x="304" y="116" on="1"/>
        <pt x="318" y="75" on="0"/>
      </contour>
    </TTGlyph>
    <TTGlyph name="R" xMin="57" yMin="-17" xMax="635" yMax="750">
      <contour>
        <pt x="429" y="656" on="1"/>
        <pt x="380" y="425" on="1"/>
        <pt x="388" y="425" on="1"/>
        <pt x="419" y="425" on="0"/>
        <pt x="471" y="458" on="0"/>
        <pt x="509" y="509" on="0"/>
        <pt x="530" y="572" on="0"/>
        <pt x="530" y="602" on="1"/>
        <pt x="530" y="622" on="0"/>
        <pt x="519" y="659" on="0"/>
        <pt x="491" y="687" on="0"/>
        <pt x="442" y="704" on="0"/>
        <pt x="404" y="704" on="1"/>
        <pt x="352" y="704" on="0"/>
        <pt x="260" y="671" on="0"/>
        <pt x="191" y="608" on="0"/>
        <pt x="150" y="518" on="0"/>
        <pt x="150" y="461" on="1"/>
        <pt x="150" y="443" on="0"/>
        <pt x="154" y="420" on="0"/>
        <pt x="158" y="405" on="0"/>
        <pt x="163" y="396" on="0"/>
        <pt x="164" y="393" on="1"/>
        <pt x="114" y="393" on="0"/>
        <pt x="57" y="434" on="0"/>
        <pt x="57" y="485" on="1"/>
        <pt x="57" y="537" on="0"/>
        <pt x="117" y="632" on="0"/>
        <pt x="218" y="706" on="0"/>
        <pt x="348" y="750" on="0"/>
        <pt x="417" y="750" on="1"/>
        <pt x="471" y="750" on="0"/>
        <pt x="553" y="723" on="0"/>
        <pt x="608" y="678" on="0"/>
        <pt x="635" y="620" on="0"/>
        <pt x="635" y="589" on="1"/>
        <pt x="635" y="544" on="0"/>
        <pt x="579" y="449" on="0"/>
        <pt x="526" y="419" on="1"/>
        <pt x="567" y="408" on="0"/>
        <pt x="596" y="355" on="0"/>
        <pt x="596" y="320" on="1"/>
        <pt x="596" y="289" on="0"/>
        <pt x="581" y="219" on="0"/>
        <pt x="562" y="152" on="0"/>
        <pt x="547" y="90" on="0"/>
        <pt x="547" y="68" on="1"/>
        <pt x="547" y="43" on="0"/>
        <pt x="568" y="7" on="0"/>
        <pt x="586" y="0" on="1"/>
        <pt x="554" y="-9" on="0"/>
        <pt x="505" y="-17" on="0"/>
        <pt x="487" y="-17" on="1"/>
        <pt x="463" y="-17" on="0"/>
        <pt x="432" y="-5" on="0"/>
        <pt x="415" y="14" on="0"/>
        <pt x="409" y="38" on="0"/>
        <pt x="409" y="50" on="1"/>
        <pt x="409" y="75" on="0"/>
        <pt x="426" y="142" on="0"/>
        <pt x="445" y="214" on="0"/>
        <pt x="462" y="284" on="0"/>
        <pt x="462" y="313" on="1"/>
        <pt x="462" y="343" on="0"/>
        <pt x="436" y="381" on="0"/>
        <pt x="403" y="381" on="1"/>
        <pt x="395" y="381" on="0"/>
        <pt x="379" y="379" on="0"/>
        <pt x="369" y="377" on="1"/>
        <pt x="289" y="0" on="1"/>
        <pt x="145" y="0" on="1"/>
        <pt x="281" y="636" on="1"/>
      </contour>
    </TTGlyph>
    <TTGlyph name="S" xMin="-1" yMin="-18" xMax="516" yMax="750">
      <contour>
        <pt x="516" y="630" on="1"/>
        <pt x="516" y="586" on="0"/>
        <pt x="472" y="529" on="0"/>
        <pt x="434" y="529" on="1"/>
        <pt x="406" y="529" on="0"/>
        <pt x="388" y="550" on="1"/>
        <pt x="408" y="562" on="0"/>
        <pt x="433" y="611" on="0"/>
        <pt x="433" y="636" on="1"/>
        <pt x="433" y="662" on="0"/>
        <pt x="401" y="702" on="0"/>
        <pt x="359" y="702" on="1"/>
        <pt x="317" y="702" on="0"/>
        <pt x="267" y="657" on="0"/>
        <pt x="267" y="612" on="1"/>
        <pt x="267" y="575" on="0"/>
        <pt x="300" y="520" on="0"/>
        <pt x="350" y="471" on="0"/>
        <pt x="409" y="422" on="0"/>
        <pt x="459" y="361" on="0"/>
        <pt x="492" y="283" on="0"/>
        <pt x="492" y="229" on="1"/>
        <pt x="492" y="166" on="0"/>
        <pt x="445" y="73" on="0"/>
        <pt x="367" y="12" on="0"/>
        <pt x="265" y="-18" on="0"/>
        <pt x="211" y="-18" on="1"/>
        <pt x="168" y="-18" on="0"/>
        <pt x="91" y="0" on="0"/>
        <pt x="33" y="41" on="0"/>
        <pt x="-1" y="105" on="0"/>
        <pt x="-1" y="151" on="1"/>
        <pt x="-1" y="191" on="0"/>
        <pt x="25" y="253" on="0"/>
        <pt x="67" y="294" on="0"/>
        <pt x="120" y="315" on="0"/>
        <pt x="146" y="315" on="1"/>
        <pt x="159" y="315" on="0"/>
        <pt x="188" y="309" on="0"/>
        <pt x="213" y="294" on="0"/>
        <pt x="231" y="268" on="0"/>
        <pt x="234" y="249" on="1"/>
        <pt x="213" y="249" on="0"/>
        <pt x="171" y="238" on="0"/>
        <pt x="137" y="215" on="0"/>
        <pt x="115" y="178" on="0"/>
        <pt x="115" y="152" on="1"/>
        <pt x="115" y="114" on="0"/>
        <pt x="166" y="62" on="0"/>
        <pt x="214" y="62" on="1"/>
        <pt x="265" y="62" on="0"/>
        <pt x="329" y="129" on="0"/>
        <pt x="329" y="192" on="1"/>
        <pt x="329" y="235" on="0"/>
        <pt x="299" y="304" on="0"/>
        <pt x="253" y="363" on="0"/>
        <pt x="200" y="418" on="0"/>
        <pt x="154" y="473" on="0"/>
        <pt x="124" y="534" on="0"/>
        <pt x="124" y="571" on="1"/>
        <pt x="124" y="610" on="0"/>
        <pt x="160" y="676" on="0"/>
        <pt x="222" y="723" on="0"/>
        <pt x="307" y="750" on="0"/>
        <pt x="355" y="750" on="1"/>
        <pt x="373" y="750" on="0"/>
        <pt x="427" y="743" on="0"/>
        <pt x="479" y="719" on="0"/>
        <pt x="516" y="671" on="0"/>
      </contour>
    </TTGlyph>
    <TTGlyph name="Sacute" xMin="-1" yMin="-18" xMax="526" yMax="1000">
      <contour>
        <pt x="516" y="630" on="1"/>
        <pt x="516" y="586" on="0"/>
        <pt x="472" y="529" on="0"/>
        <pt x="434" y="529" on="1"/>
        <pt x="406" y="529" on="0"/>
        <pt x="388" y="550" on="1"/>
        <pt x="408" y="562" on="0"/>
        <pt x="433" y="611" on="0"/>
        <pt x="433" y="636" on="1"/>
        <pt x="433" y="662" on="0"/>
        <pt x="401" y="702" on="0"/>
        <pt x="359" y="702" on="1"/>
        <pt x="317" y="702" on="0"/>
        <pt x="267" y="657" on="0"/>
        <pt x="267" y="612" on="1"/>
        <pt x="267" y="575" on="0"/>
        <pt x="300" y="520" on="0"/>
        <pt x="350" y="471" on="0"/>
        <pt x="409" y="422" on="0"/>
        <pt x="459" y="361" on="0"/>
        <pt x="492" y="283" on="0"/>
        <pt x="492" y="229" on="1"/>
        <pt x="492" y="166" on="0"/>
        <pt x="445" y="73" on="0"/>
        <pt x="367" y="12" on="0"/>
        <pt x="265" y="-18" on="0"/>
        <pt x="211" y="-18" on="1"/>
        <pt x="168" y="-18" on="0"/>
        <pt x="91" y="0" on="0"/>
        <pt x="33" y="41" on="0"/>
        <pt x="-1" y="105" on="0"/>
        <pt x="-1" y="151" on="1"/>
        <pt x="-1" y="191" on="0"/>
        <pt x="25" y="253" on="0"/>
        <pt x="67" y="294" on="0"/>
        <pt x="120" y="315" on="0"/>
        <pt x="146" y="315" on="1"/>
        <pt x="159" y="315" on="0"/>
        <pt x="188" y="309" on="0"/>
        <pt x="213" y="294" on="0"/>
        <pt x="231" y="268" on="0"/>
        <pt x="234" y="249" on="1"/>
        <pt x="213" y="249" on="0"/>
        <pt x="171" y="238" on="0"/>
        <pt x="137" y="215" on="0"/>
        <pt x="115" y="178" on="0"/>
        <pt x="115" y="152" on="1"/>
        <pt x="115" y="114" on="0"/>
        <pt x="166" y="62" on="0"/>
        <pt x="214" y="62" on="1"/>
        <pt x="265" y="62" on="0"/>
        <pt x="329" y="129" on="0"/>
        <pt x="329" y="192" on="1"/>
        <pt x="329" y="235" on="0"/>
        <pt x="299" y="304" on="0"/>
        <pt x="253" y="363" on="0"/>
        <pt x="200" y="418" on="0"/>
        <pt x="154" y="473" on="0"/>
        <pt x="124" y="534" on="0"/>
        <pt x="124" y="571" on="1"/>
        <pt x="124" y="610" on="0"/>
        <pt x="160" y="676" on="0"/>
        <pt x="222" y="723" on="0"/>
        <pt x="307" y="750" on="0"/>
        <pt x="355" y="750" on="1"/>
        <pt x="373" y="750" on="0"/>
        <pt x="427" y="743" on="0"/>
        <pt x="479" y="719" on="0"/>
        <pt x="516" y="671" on="0"/>
      </contour>
      <contour>
        <pt x="421" y="1000" on="1"/>
        <pt x="526" y="1000" on="1"/>
        <pt x="405" y="811" on="1"/>
        <pt x="330" y="811" on="1"/>
      </contour>
    </TTGlyph>
    <TTGlyph name="Scaron" xMin="-1" yMin="-18" xMax="563" yMax="1000">
      <contour>
        <pt x="516" y="630" on="1"/>
        <pt x="516" y="586" on="0"/>
        <pt x="472" y="529" on="0"/>
        <pt x="434" y="529" on="1"/>
        <pt x="406" y="529" on="0"/>
        <pt x="388" y="550" on="1"/>
        <pt x="408" y="562" on="0"/>
        <pt x="433" y="611" on="0"/>
        <pt x="433" y="636" on="1"/>
        <pt x="433" y="662" on="0"/>
        <pt x="401" y="702" on="0"/>
        <pt x="359" y="702" on="1"/>
        <pt x="317" y="702" on="0"/>
        <pt x="267" y="657" on="0"/>
        <pt x="267" y="612" on="1"/>
        <pt x="267" y="575" on="0"/>
        <pt x="300" y="520" on="0"/>
        <pt x="350" y="471" on="0"/>
        <pt x="409" y="422" on="0"/>
        <pt x="459" y="361" on="0"/>
        <pt x="492" y="283" on="0"/>
        <pt x="492" y="229" on="1"/>
        <pt x="492" y="166" on="0"/>
        <pt x="445" y="73" on="0"/>
        <pt x="367" y="12" on="0"/>
        <pt x="265" y="-18" on="0"/>
        <pt x="211" y="-18" on="1"/>
        <pt x="168" y="-18" on="0"/>
        <pt x="91" y="0" on="0"/>
        <pt x="33" y="41" on="0"/>
        <pt x="-1" y="105" on="0"/>
        <pt x="-1" y="151" on="1"/>
        <pt x="-1" y="191" on="0"/>
        <pt x="25" y="253" on="0"/>
        <pt x="67" y="294" on="0"/>
        <pt x="120" y="315" on="0"/>
        <pt x="146" y="315" on="1"/>
        <pt x="159" y="315" on="0"/>
        <pt x="188" y="309" on="0"/>
        <pt x="213" y="294" on="0"/>
        <pt x="231" y="268" on="0"/>
        <pt x="234" y="249" on="1"/>
        <pt x="213" y="249" on="0"/>
        <pt x="171" y="238" on="0"/>
        <pt x="137" y="215" on="0"/>
        <pt x="115" y="178" on="0"/>
        <pt x="115" y="152" on="1"/>
        <pt x="115" y="114" on="0"/>
        <pt x="166" y="62" on="0"/>
        <pt x="214" y="62" on="1"/>
        <pt x="265" y="62" on="0"/>
        <pt x="329" y="129" on="0"/>
        <pt x="329" y="192" on="1"/>
        <pt x="329" y="235" on="0"/>
        <pt x="299" y="304" on="0"/>
        <pt x="253" y="363" on="0"/>
        <pt x="200" y="418" on="0"/>
        <pt x="154" y="473" on="0"/>
        <pt x="124" y="534" on="0"/>
        <pt x="124" y="571" on="1"/>
        <pt x="124" y="610" on="0"/>
        <pt x="160" y="676" on="0"/>
        <pt x="222" y="723" on="0"/>
        <pt x="307" y="750" on="0"/>
        <pt x="355" y="750" on="1"/>
        <pt x="373" y="750" on="0"/>
        <pt x="427" y="743" on="0"/>
        <pt x="479" y="719" on="0"/>
        <pt x="516" y="671" on="0"/>
      </contour>
      <contour>
        <pt x="302" y="1000" on="1"/>
        <pt x="362" y="920" on="1"/>
        <pt x="519" y="1000" on="1"/>
        <pt x="563" y="1000" on="1"/>
        <pt x="351" y="811" on="1"/>
        <pt x="330" y="811" on="1"/>
        <pt x="270" y="1000" on="1"/>
      </contour>
    </TTGlyph>
    <TTGlyph name="T" xMin="62" yMin="0" xMax="775" yMax="749">
      <contour>
        <pt x="647" y="620" on="1"/>
        <pt x="612" y="620" on="0"/>
        <pt x="536" y="633" on="0"/>
        <pt x="495" y="642" on="1"/>
        <pt x="357" y="0" on="1"/>
        <pt x="213" y="0" on="1"/>
        <pt x="355" y="662" on="1"/>
        <pt x="344" y="662" on="1"/>
        <pt x="305" y="662" on="0"/>
        <pt x="236" y="644" on="0"/>
        <pt x="185" y="600" on="0"/>
        <pt x="155" y="523" on="0"/>
        <pt x="155" y="465" on="1"/>
        <pt x="155" y="444" on="0"/>
        <pt x="158" y="420" on="0"/>
        <pt x="163" y="405" on="0"/>
        <pt x="167" y="396" on="0"/>
        <pt x="169" y="392" on="1"/>
        <pt x="115" y="392" on="0"/>
        <pt x="62" y="436" on="0"/>
        <pt x="62" y="495" on="1"/>
        <pt x="62" y="543" on="0"/>
        <pt x="99" y="634" on="0"/>
        <pt x="182" y="705" on="0"/>
        <pt x="313" y="749" on="0"/>
        <pt x="408" y="749" on="1"/>
        <pt x="448" y="749" on="0"/>
        <pt x="511" y="742" on="0"/>
        <pt x="568" y="733" on="0"/>
        <pt x="622" y="726" on="0"/>
        <pt x="653" y="726" on="1"/>
        <pt x="695" y="726" on="0"/>
        <pt x="755" y="739" on="0"/>
        <pt x="775" y="747" on="1"/>
        <pt x="773" y="681" on="0"/>
        <pt x="710" y="620" on="0"/>
      </contour>
    </TTGlyph>
    <TTGlyph name="T_h" xMin="60" yMin="-6" xMax="1067" yMax="749">
      <contour>
        <pt x="153" y="460" on="1"/>
        <pt x="153" y="441" on="0"/>
        <pt x="157" y="417" on="0"/>
        <pt x="162" y="403" on="0"/>
        <pt x="167" y="395" on="0"/>
        <pt x="167" y="392" on="1"/>
        <pt x="115" y="392" on="0"/>
        <pt x="60" y="435" on="0"/>
        <pt x="60" y="489" on="1"/>
        <pt x="60" y="539" on="0"/>
        <pt x="101" y="633" on="0"/>
        <pt x="186" y="705" on="0"/>
        <pt x="319" y="749" on="0"/>
        <pt x="412" y="749" on="1"/>
        <pt x="429" y="749" on="0"/>
        <pt x="489" y="741" on="0"/>
        <pt x="563" y="731" on="0"/>
        <pt x="644" y="723" on="0"/>
        <pt x="682" y="723" on="1"/>
        <pt x="719" y="723" on="0"/>
        <pt x="782" y="733" on="0"/>
        <pt x="803" y="747" on="1"/>
        <pt x="794" y="730" on="0"/>
        <pt x="778" y="696" on="0"/>
        <pt x="760" y="635" on="0"/>
        <pt x="736" y="531" on="0"/>
        <pt x="719" y="446" on="1"/>
        <pt x="751" y="483" on="0"/>
        <pt x="814" y="504" on="0"/>
        <pt x="838" y="504" on="1"/>
        <pt x="886" y="504" on="0"/>
        <pt x="949" y="451" on="0"/>
        <pt x="949" y="391" on="1"/>
        <pt x="949" y="361" on="0"/>
        <pt x="934" y="288" on="0"/>
        <pt x="916" y="217" on="0"/>
        <pt x="901" y="154" on="0"/>
        <pt x="901" y="133" on="1"/>
        <pt x="901" y="114" on="0"/>
        <pt x="918" y="91" on="0"/>
        <pt x="941" y="91" on="1"/>
        <pt x="957" y="91" on="0"/>
        <pt x="982" y="104" on="0"/>
        <pt x="1001" y="127" on="0"/>
        <pt x="1017" y="159" on="0"/>
        <pt x="1025" y="179" on="1"/>
        <pt x="1067" y="179" on="1"/>
        <pt x="1046" y="117" on="0"/>
        <pt x="998" y="44" on="0"/>
        <pt x="948" y="6" on="0"/>
        <pt x="901" y="-6" on="0"/>
        <pt x="881" y="-6" on="1"/>
        <pt x="848" y="-6" on="0"/>
        <pt x="803" y="13" on="0"/>
        <pt x="775" y="45" on="0"/>
        <pt x="763" y="86" on="0"/>
        <pt x="763" y="107" on="1"/>
        <pt x="763" y="132" on="0"/>
        <pt x="777" y="201" on="0"/>
        <pt x="794" y="271" on="0"/>
        <pt x="808" y="338" on="0"/>
        <pt x="808" y="362" on="1"/>
        <pt x="808" y="413" on="0"/>
        <pt x="772" y="413" on="1"/>
        <pt x="746" y="413" on="0"/>
        <pt x="707" y="362" on="0"/>
        <pt x="696" y="327" on="1"/>
        <pt x="683" y="261" on="0"/>
        <pt x="653" y="100" on="0"/>
        <pt x="635" y="0" on="1"/>
        <pt x="491" y="0" on="1"/>
        <pt x="628" y="638" on="1"/>
        <pt x="597" y="640" on="0"/>
        <pt x="531" y="650" on="0"/>
        <pt x="496" y="655" on="1"/>
        <pt x="355" y="0" on="1"/>
        <pt x="211" y="0" on="1"/>
        <pt x="354" y="664" on="1"/>
        <pt x="312" y="662" on="0"/>
        <pt x="239" y="643" on="0"/>
        <pt x="184" y="596" on="0"/>
        <pt x="153" y="519" on="0"/>
      </contour>
    </TTGlyph>
    <TTGlyph name="T_i" xMin="62" yMin="-6" xMax="842" yMax="749">
      <contour>
        <pt x="357" y="671" on="1"/>
        <pt x="336" y="674" on="0"/>
        <pt x="317" y="674" on="1"/>
        <pt x="282" y="674" on="0"/>
        <pt x="223" y="654" on="0"/>
        <pt x="180" y="604" on="0"/>
        <pt x="155" y="522" on="0"/>
        <pt x="155" y="460" on="1"/>
        <pt x="155" y="441" on="0"/>
        <pt x="159" y="417" on="0"/>
        <pt x="164" y="403" on="0"/>
        <pt x="169" y="395" on="0"/>
        <pt x="169" y="392" on="1"/>
        <pt x="117" y="392" on="0"/>
        <pt x="62" y="435" on="0"/>
        <pt x="62" y="489" on="1"/>
        <pt x="62" y="539" on="0"/>
        <pt x="99" y="633" on="0"/>
        <pt x="181" y="705" on="0"/>
        <pt x="310" y="749" on="0"/>
        <pt x="403" y="749" on="1"/>
        <pt x="418" y="749" on="0"/>
        <pt x="475" y="744" on="0"/>
        <pt x="545" y="738" on="0"/>
        <pt x="623" y="733" on="0"/>
        <pt x="660" y="733" on="1"/>
        <pt x="695" y="733" on="0"/>
        <pt x="755" y="739" on="0"/>
        <pt x="775" y="747" on="1"/>
        <pt x="781" y="728" on="0"/>
        <pt x="786" y="695" on="0"/>
        <pt x="786" y="681" on="1"/>
        <pt x="786" y="651" on="0"/>
        <pt x="764" y="612" on="0"/>
        <pt x="732" y="589" on="0"/>
        <pt x="696" y="581" on="0"/>
        <pt x="683" y="581" on="1"/>
        <pt x="648" y="581" on="0"/>
        <pt x="558" y="615" on="0"/>
        <pt x="494" y="637" on="1"/>
        <pt x="357" y="0" on="1"/>
        <pt x="213" y="0" on="1"/>
      </contour>
      <contour>
        <pt x="745" y="500" on="1"/>
        <pt x="673" y="160" on="1"/>
        <pt x="669" y="143" on="0"/>
        <pt x="669" y="128" on="1"/>
        <pt x="669" y="107" on="0"/>
        <pt x="689" y="91" on="0"/>
        <pt x="710" y="91" on="1"/>
        <pt x="739" y="91" on="0"/>
        <pt x="789" y="141" on="0"/>
        <pt x="800" y="179" on="1"/>
        <pt x="842" y="179" on="1"/>
        <pt x="821" y="118" on="0"/>
        <pt x="765" y="45" on="0"/>
        <pt x="707" y="6" on="0"/>
        <pt x="652" y="-6" on="0"/>
        <pt x="632" y="-6" on="1"/>
        <pt x="587" y="-6" on="0"/>
        <pt x="525" y="51" on="0"/>
        <pt x="525" y="114" on="1"/>
        <pt x="525" y="141" on="0"/>
        <pt x="533" y="179" on="1"/>
        <pt x="601" y="500" on="1"/>
      </contour>
    </TTGlyph>
    <TTGlyph name="Thorn" xMin="34" yMin="0" xMax="621" yMax="750">
      <contour>
        <pt x="426" y="750" on="1"/>
        <pt x="402" y="640" on="1"/>
        <pt x="459" y="637" on="0"/>
        <pt x="542" y="603" on="0"/>
        <pt x="595" y="549" on="0"/>
        <pt x="621" y="480" on="0"/>
        <pt x="621" y="443" on="1"/>
        <pt x="621" y="395" on="0"/>
        <pt x="581" y="300" on="0"/>
        <pt x="507" y="223" on="0"/>
        <pt x="399" y="175" on="0"/>
        <pt x="332" y="175" on="1"/>
        <pt x="303" y="175" on="1"/>
        <pt x="266" y="0" on="1"/>
        <pt x="122" y="0" on="1"/>
        <pt x="242" y="562" on="1"/>
        <pt x="186" y="533" on="0"/>
        <pt x="127" y="426" on="0"/>
        <pt x="127" y="351" on="1"/>
        <pt x="127" y="332" on="0"/>
        <pt x="131" y="308" on="0"/>
        <pt x="136" y="294" on="0"/>
        <pt x="141" y="286" on="0"/>
        <pt x="141" y="283" on="1"/>
        <pt x="89" y="283" on="0"/>
        <pt x="34" y="326" on="0"/>
        <pt x="34" y="380" on="1"/>
        <pt x="34" y="417" on="0"/>
        <pt x="69" y="488" on="0"/>
        <pt x="129" y="550" on="0"/>
        <pt x="208" y="600" on="0"/>
        <pt x="253" y="616" on="1"/>
        <pt x="278" y="730" on="1"/>
      </contour>
      <contour>
        <pt x="325" y="212" on="1"/>
        <pt x="365" y="212" on="0"/>
        <pt x="432" y="258" on="0"/>
        <pt x="482" y="330" on="0"/>
        <pt x="510" y="417" on="0"/>
        <pt x="510" y="458" on="1"/>
        <pt x="510" y="485" on="0"/>
        <pt x="497" y="533" on="0"/>
        <pt x="468" y="570" on="0"/>
        <pt x="424" y="593" on="0"/>
        <pt x="393" y="594" on="1"/>
        <pt x="311" y="212" on="1"/>
      </contour>
    </TTGlyph>
    <TTGlyph name="U" xMin="55" yMin="-7" xMax="816" yMax="750">
      <contour>
        <pt x="816" y="748" on="1"/>
        <pt x="750" y="436" on="1"/>
        <pt x="726" y="322" on="0"/>
        <pt x="675" y="155" on="0"/>
        <pt x="599" y="46" on="0"/>
        <pt x="487" y="-7" on="0"/>
        <pt x="403" y="-7" on="1"/>
        <pt x="349" y="-7" on="0"/>
        <pt x="275" y="14" on="0"/>
        <pt x="230" y="56" on="0"/>
        <pt x="210" y="116" on="0"/>
        <pt x="210" y="155" on="1"/>
        <pt x="210" y="227" on="0"/>
        <pt x="260" y="432" on="0"/>
        <pt x="292" y="560" on="1"/>
        <pt x="325" y="692" on="1"/>
        <pt x="243" y="670" on="0"/>
        <pt x="148" y="553" on="0"/>
        <pt x="148" y="462" on="1"/>
        <pt x="148" y="425" on="0"/>
        <pt x="159" y="400" on="0"/>
        <pt x="162" y="393" on="1"/>
        <pt x="112" y="393" on="0"/>
        <pt x="55" y="434" on="0"/>
        <pt x="55" y="485" on="1"/>
        <pt x="55" y="538" on="0"/>
        <pt x="119" y="634" on="0"/>
        <pt x="224" y="707" on="0"/>
        <pt x="360" y="750" on="0"/>
        <pt x="433" y="750" on="1"/>
        <pt x="446" y="750" on="0"/>
        <pt x="465" y="748" on="0"/>
        <pt x="481" y="745" on="1"/>
        <pt x="446" y="616" on="0"/>
        <pt x="395" y="431" on="0"/>
        <pt x="362" y="300" on="0"/>
        <pt x="346" y="212" on="0"/>
        <pt x="346" y="179" on="1"/>
        <pt x="346" y="153" on="0"/>
        <pt x="349" y="117" on="0"/>
        <pt x="364" y="95" on="0"/>
        <pt x="396" y="84" on="0"/>
        <pt x="425" y="84" on="1"/>
        <pt x="444" y="84" on="0"/>
        <pt x="476" y="91" on="0"/>
        <pt x="505" y="116" on="0"/>
        <pt x="532" y="162" on="0"/>
        <pt x="560" y="241" on="0"/>
        <pt x="590" y="357" on="0"/>
        <pt x="608" y="439" on="1"/>
        <pt x="675" y="748" on="1"/>
      </contour>
    </TTGlyph>
    <TTGlyph name="Uacute" xMin="55" yMin="-7" xMax="816" yMax="1000">
      <contour>
        <pt x="816" y="748" on="1"/>
        <pt x="750" y="436" on="1"/>
        <pt x="726" y="322" on="0"/>
        <pt x="675" y="155" on="0"/>
        <pt x="599" y="46" on="0"/>
        <pt x="487" y="-7" on="0"/>
        <pt x="403" y="-7" on="1"/>
        <pt x="349" y="-7" on="0"/>
        <pt x="275" y="14" on="0"/>
        <pt x="230" y="56" on="0"/>
        <pt x="210" y="116" on="0"/>
        <pt x="210" y="155" on="1"/>
        <pt x="210" y="227" on="0"/>
        <pt x="260" y="432" on="0"/>
        <pt x="292" y="560" on="1"/>
        <pt x="325" y="692" on="1"/>
        <pt x="243" y="670" on="0"/>
        <pt x="148" y="553" on="0"/>
        <pt x="148" y="462" on="1"/>
        <pt x="148" y="425" on="0"/>
        <pt x="159" y="400" on="0"/>
        <pt x="162" y="393" on="1"/>
        <pt x="112" y="393" on="0"/>
        <pt x="55" y="434" on="0"/>
        <pt x="55" y="485" on="1"/>
        <pt x="55" y="538" on="0"/>
        <pt x="119" y="634" on="0"/>
        <pt x="224" y="707" on="0"/>
        <pt x="360" y="750" on="0"/>
        <pt x="433" y="750" on="1"/>
        <pt x="446" y="750" on="0"/>
        <pt x="465" y="748" on="0"/>
        <pt x="481" y="745" on="1"/>
        <pt x="446" y="616" on="0"/>
        <pt x="395" y="431" on="0"/>
        <pt x="362" y="300" on="0"/>
        <pt x="346" y="212" on="0"/>
        <pt x="346" y="179" on="1"/>
        <pt x="346" y="153" on="0"/>
        <pt x="349" y="117" on="0"/>
        <pt x="364" y="95" on="0"/>
        <pt x="396" y="84" on="0"/>
        <pt x="425" y="84" on="1"/>
        <pt x="444" y="84" on="0"/>
        <pt x="476" y="91" on="0"/>
        <pt x="505" y="116" on="0"/>
        <pt x="532" y="162" on="0"/>
        <pt x="560" y="241" on="0"/>
        <pt x="590" y="357" on="0"/>
        <pt x="608" y="439" on="1"/>
        <pt x="675" y="748" on="1"/>
      </contour>
      <contour>
        <pt x="597" y="1000" on="1"/>
        <pt x="702" y="1000" on="1"/>
        <pt x="581" y="811" on="1"/>
        <pt x="506" y="811" on="1"/>
      </contour>
    </TTGlyph>
    <TTGlyph name="Ucircumflex" xMin="55" yMin="-7" xMax="816" yMax="1000">
      <contour>
        <pt x="816" y="748" on="1"/>
        <pt x="750" y="436" on="1"/>
        <pt x="726" y="322" on="0"/>
        <pt x="675" y="155" on="0"/>
        <pt x="599" y="46" on="0"/>
        <pt x="487" y="-7" on="0"/>
        <pt x="403" y="-7" on="1"/>
        <pt x="349" y="-7" on="0"/>
        <pt x="275" y="14" on="0"/>
        <pt x="230" y="56" on="0"/>
        <pt x="210" y="116" on="0"/>
        <pt x="210" y="155" on="1"/>
        <pt x="210" y="227" on="0"/>
        <pt x="260" y="432" on="0"/>
        <pt x="292" y="560" on="1"/>
        <pt x="325" y="692" on="1"/>
        <pt x="243" y="670" on="0"/>
        <pt x="148" y="553" on="0"/>
        <pt x="148" y="462" on="1"/>
        <pt x="148" y="425" on="0"/>
        <pt x="159" y="400" on="0"/>
        <pt x="162" y="393" on="1"/>
        <pt x="112" y="393" on="0"/>
        <pt x="55" y="434" on="0"/>
        <pt x="55" y="485" on="1"/>
        <pt x="55" y="538" on="0"/>
        <pt x="119" y="634" on="0"/>
        <pt x="224" y="707" on="0"/>
        <pt x="360" y="750" on="0"/>
        <pt x="433" y="750" on="1"/>
        <pt x="446" y="750" on="0"/>
        <pt x="465" y="748" on="0"/>
        <pt x="481" y="745" on="1"/>
        <pt x="446" y="616" on="0"/>
        <pt x="395" y="431" on="0"/>
        <pt x="362" y="300" on="0"/>
        <pt x="346" y="212" on="0"/>
        <pt x="346" y="179" on="1"/>
        <pt x="346" y="153" on="0"/>
        <pt x="349" y="117" on="0"/>
        <pt x="364" y="95" on="0"/>
        <pt x="396" y="84" on="0"/>
        <pt x="425" y="84" on="1"/>
        <pt x="444" y="84" on="0"/>
        <pt x="476" y="91" on="0"/>
        <pt x="505" y="116" on="0"/>
        <pt x="532" y="162" on="0"/>
        <pt x="560" y="241" on="0"/>
        <pt x="590" y="357" on="0"/>
        <pt x="608" y="439" on="1"/>
        <pt x="675" y="748" on="1"/>
      </contour>
      <contour>
        <pt x="679" y="811" on="1"/>
        <pt x="619" y="891" on="1"/>
        <pt x="462" y="811" on="1"/>
        <pt x="418" y="811" on="1"/>
        <pt x="630" y="1000" on="1"/>
        <pt x="651" y="1000" on="1"/>
        <pt x="711" y="811" on="1"/>
      </contour>
    </TTGlyph>
    <TTGlyph name="Udieresis" xMin="55" yMin="-7" xMax="816" yMax="945">
      <contour>
        <pt x="816" y="748" on="1"/>
        <pt x="750" y="436" on="1"/>
        <pt x="726" y="322" on="0"/>
        <pt x="675" y="155" on="0"/>
        <pt x="599" y="46" on="0"/>
        <pt x="487" y="-7" on="0"/>
        <pt x="403" y="-7" on="1"/>
        <pt x="349" y="-7" on="0"/>
        <pt x="275" y="14" on="0"/>
        <pt x="230" y="56" on="0"/>
        <pt x="210" y="116" on="0"/>
        <pt x="210" y="155" on="1"/>
        <pt x="210" y="227" on="0"/>
        <pt x="260" y="432" on="0"/>
        <pt x="292" y="560" on="1"/>
        <pt x="325" y="692" on="1"/>
        <pt x="243" y="670" on="0"/>
        <pt x="148" y="553" on="0"/>
        <pt x="148" y="462" on="1"/>
        <pt x="148" y="425" on="0"/>
        <pt x="159" y="400" on="0"/>
        <pt x="162" y="393" on="1"/>
        <pt x="112" y="393" on="0"/>
        <pt x="55" y="434" on="0"/>
        <pt x="55" y="485" on="1"/>
        <pt x="55" y="538" on="0"/>
        <pt x="119" y="634" on="0"/>
        <pt x="224" y="707" on="0"/>
        <pt x="360" y="750" on="0"/>
        <pt x="433" y="750" on="1"/>
        <pt x="446" y="750" on="0"/>
        <pt x="465" y="748" on="0"/>
        <pt x="481" y="745" on="1"/>
        <pt x="446" y="616" on="0"/>
        <pt x="395" y="431" on="0"/>
        <pt x="362" y="300" on="0"/>
        <pt x="346" y="212" on="0"/>
        <pt x="346" y="179" on="1"/>
        <pt x="346" y="153" on="0"/>
        <pt x="349" y="117" on="0"/>
        <pt x="364" y="95" on="0"/>
        <pt x="396" y="84" on="0"/>
        <pt x="425" y="84" on="1"/>
        <pt x="444" y="84" on="0"/>
        <pt x="476" y="91" on="0"/>
        <pt x="505" y="116" on="0"/>
        <pt x="532" y="162" on="0"/>
        <pt x="560" y="241" on="0"/>
        <pt x="590" y="357" on="0"/>
        <pt x="608" y="439" on="1"/>
        <pt x="675" y="748" on="1"/>
      </contour>
      <contour>
        <pt x="608" y="884" on="1"/>
        <pt x="608" y="909" on="0"/>
        <pt x="643" y="945" on="0"/>
        <pt x="669" y="945" on="1"/>
        <pt x="694" y="945" on="0"/>
        <pt x="730" y="909" on="0"/>
        <pt x="730" y="884" on="1"/>
        <pt x="730" y="858" on="0"/>
        <pt x="694" y="823" on="0"/>
        <pt x="669" y="823" on="1"/>
        <pt x="643" y="823" on="0"/>
        <pt x="608" y="858" on="0"/>
      </contour>
      <contour>
        <pt x="428" y="884" on="1"/>
        <pt x="428" y="909" on="0"/>
        <pt x="463" y="945" on="0"/>
        <pt x="489" y="945" on="1"/>
        <pt x="514" y="945" on="0"/>
        <pt x="550" y="909" on="0"/>
        <pt x="550" y="884" on="1"/>
        <pt x="550" y="858" on="0"/>
        <pt x="514" y="823" on="0"/>
        <pt x="489" y="823" on="1"/>
        <pt x="463" y="823" on="0"/>
        <pt x="428" y="858" on="0"/>
      </contour>
    </TTGlyph>
    <TTGlyph name="Ugrave" xMin="55" yMin="-7" xMax="816" yMax="1000">
      <contour>
        <pt x="816" y="748" on="1"/>
        <pt x="750" y="436" on="1"/>
        <pt x="726" y="322" on="0"/>
        <pt x="675" y="155" on="0"/>
        <pt x="599" y="46" on="0"/>
        <pt x="487" y="-7" on="0"/>
        <pt x="403" y="-7" on="1"/>
        <pt x="349" y="-7" on="0"/>
        <pt x="275" y="14" on="0"/>
        <pt x="230" y="56" on="0"/>
        <pt x="210" y="116" on="0"/>
        <pt x="210" y="155" on="1"/>
        <pt x="210" y="227" on="0"/>
        <pt x="260" y="432" on="0"/>
        <pt x="292" y="560" on="1"/>
        <pt x="325" y="692" on="1"/>
        <pt x="243" y="670" on="0"/>
        <pt x="148" y="553" on="0"/>
        <pt x="148" y="462" on="1"/>
        <pt x="148" y="425" on="0"/>
        <pt x="159" y="400" on="0"/>
        <pt x="162" y="393" on="1"/>
        <pt x="112" y="393" on="0"/>
        <pt x="55" y="434" on="0"/>
        <pt x="55" y="485" on="1"/>
        <pt x="55" y="538" on="0"/>
        <pt x="119" y="634" on="0"/>
        <pt x="224" y="707" on="0"/>
        <pt x="360" y="750" on="0"/>
        <pt x="433" y="750" on="1"/>
        <pt x="446" y="750" on="0"/>
        <pt x="465" y="748" on="0"/>
        <pt x="481" y="745" on="1"/>
        <pt x="446" y="616" on="0"/>
        <pt x="395" y="431" on="0"/>
        <pt x="362" y="300" on="0"/>
        <pt x="346" y="212" on="0"/>
        <pt x="346" y="179" on="1"/>
        <pt x="346" y="153" on="0"/>
        <pt x="349" y="117" on="0"/>
        <pt x="364" y="95" on="0"/>
        <pt x="396" y="84" on="0"/>
        <pt x="425" y="84" on="1"/>
        <pt x="444" y="84" on="0"/>
        <pt x="476" y="91" on="0"/>
        <pt x="505" y="116" on="0"/>
        <pt x="532" y="162" on="0"/>
        <pt x="560" y="241" on="0"/>
        <pt x="590" y="357" on="0"/>
        <pt x="608" y="439" on="1"/>
        <pt x="675" y="748" on="1"/>
      </contour>
      <contour>
        <pt x="465" y="1000" on="1"/>
        <pt x="570" y="1000" on="1"/>
        <pt x="599" y="811" on="1"/>
        <pt x="524" y="811" on="1"/>
      </contour>
    </TTGlyph>
    <TTGlyph name="Uhungarumlaut" xMin="55" yMin="-7" xMax="820" yMax="1000">
      <contour>
        <pt x="816" y="748" on="1"/>
        <pt x="750" y="436" on="1"/>
        <pt x="726" y="322" on="0"/>
        <pt x="675" y="155" on="0"/>
        <pt x="599" y="46" on="0"/>
        <pt x="487" y="-7" on="0"/>
        <pt x="403" y="-7" on="1"/>
        <pt x="349" y="-7" on="0"/>
        <pt x="275" y="14" on="0"/>
        <pt x="230" y="56" on="0"/>
        <pt x="210" y="116" on="0"/>
        <pt x="210" y="155" on="1"/>
        <pt x="210" y="227" on="0"/>
        <pt x="260" y="432" on="0"/>
        <pt x="292" y="560" on="1"/>
        <pt x="325" y="692" on="1"/>
        <pt x="243" y="670" on="0"/>
        <pt x="148" y="553" on="0"/>
        <pt x="148" y="462" on="1"/>
        <pt x="148" y="425" on="0"/>
        <pt x="159" y="400" on="0"/>
        <pt x="162" y="393" on="1"/>
        <pt x="112" y="393" on="0"/>
        <pt x="55" y="434" on="0"/>
        <pt x="55" y="485" on="1"/>
        <pt x="55" y="538" on="0"/>
        <pt x="119" y="634" on="0"/>
        <pt x="224" y="707" on="0"/>
        <pt x="360" y="750" on="0"/>
        <pt x="433" y="750" on="1"/>
        <pt x="446" y="750" on="0"/>
        <pt x="465" y="748" on="0"/>
        <pt x="481" y="745" on="1"/>
        <pt x="446" y="616" on="0"/>
        <pt x="395" y="431" on="0"/>
        <pt x="362" y="300" on="0"/>
        <pt x="346" y="212" on="0"/>
        <pt x="346" y="179" on="1"/>
        <pt x="346" y="153" on="0"/>
        <pt x="349" y="117" on="0"/>
        <pt x="364" y="95" on="0"/>
        <pt x="396" y="84" on="0"/>
        <pt x="425" y="84" on="1"/>
        <pt x="444" y="84" on="0"/>
        <pt x="476" y="91" on="0"/>
        <pt x="505" y="116" on="0"/>
        <pt x="532" y="162" on="0"/>
        <pt x="560" y="241" on="0"/>
        <pt x="590" y="357" on="0"/>
        <pt x="608" y="439" on="1"/>
        <pt x="675" y="748" on="1"/>
      </contour>
      <contour>
        <pt x="725" y="1000" on="1"/>
        <pt x="820" y="1000" on="1"/>
        <pt x="699" y="811" on="1"/>
        <pt x="634" y="811" on="1"/>
      </contour>
      <contour>
        <pt x="595" y="1000" on="1"/>
        <pt x="690" y="1000" on="1"/>
        <pt x="569" y="811" on="1"/>
        <pt x="504" y="811" on="1"/>
      </contour>
    </TTGlyph>
    <TTGlyph name="V" xMin="55" yMin="0" xMax="735" yMax="750">
      <contour>
        <pt x="455" y="133" on="1"/>
        <pt x="665" y="745" on="1"/>
        <pt x="735" y="745" on="1"/>
        <pt x="457" y="0" on="1"/>
        <pt x="313" y="0" on="1"/>
        <pt x="297" y="683" on="1"/>
        <pt x="227" y="657" on="0"/>
        <pt x="148" y="544" on="0"/>
        <pt x="148" y="462" on="1"/>
        <pt x="148" y="444" on="0"/>
        <pt x="152" y="421" on="0"/>
        <pt x="156" y="406" on="0"/>
        <pt x="161" y="396" on="0"/>
        <pt x="162" y="393" on="1"/>
        <pt x="112" y="393" on="0"/>
        <pt x="55" y="434" on="0"/>
        <pt x="55" y="485" on="1"/>
        <pt x="55" y="538" on="0"/>
        <pt x="118" y="634" on="0"/>
        <pt x="218" y="707" on="0"/>
        <pt x="343" y="750" on="0"/>
        <pt x="405" y="750" on="1"/>
        <pt x="416" y="750" on="0"/>
        <pt x="436" y="749" on="0"/>
        <pt x="446" y="748" on="1"/>
      </contour>
    </TTGlyph>
    <TTGlyph name="W" xMin="55" yMin="0" xMax="1081" yMax="750">
      <contour>
        <pt x="455" y="133" on="1"/>
        <pt x="665" y="745" on="1"/>
        <pt x="792" y="745" on="1"/>
        <pt x="801" y="133" on="1"/>
        <pt x="1011" y="745" on="1"/>
        <pt x="1081" y="745" on="1"/>
        <pt x="803" y="0" on="1"/>
        <pt x="659" y="0" on="1"/>
        <pt x="647" y="509" on="1"/>
        <pt x="457" y="0" on="1"/>
        <pt x="313" y="0" on="1"/>
        <pt x="297" y="683" on="1"/>
        <pt x="227" y="657" on="0"/>
        <pt x="148" y="544" on="0"/>
        <pt x="148" y="462" on="1"/>
        <pt x="148" y="444" on="0"/>
        <pt x="152" y="420" on="0"/>
        <pt x="156" y="405" on="0"/>
        <pt x="161" y="396" on="0"/>
        <pt x="162" y="393" on="1"/>
        <pt x="112" y="393" on="0"/>
        <pt x="55" y="434" on="0"/>
        <pt x="55" y="485" on="1"/>
        <pt x="55" y="538" on="0"/>
        <pt x="118" y="634" on="0"/>
        <pt x="218" y="707" on="0"/>
        <pt x="343" y="750" on="0"/>
        <pt x="405" y="750" on="1"/>
        <pt x="416" y="750" on="0"/>
        <pt x="436" y="749" on="0"/>
        <pt x="446" y="748" on="1"/>
      </contour>
    </TTGlyph>
    <TTGlyph name="X" xMin="55" yMin="0" xMax="705" yMax="750">
      <contour>
        <pt x="469" y="0" on="1"/>
        <pt x="399" y="276" on="1"/>
        <pt x="252" y="0" on="1"/>
        <pt x="185" y="0" on="1"/>
        <pt x="377" y="364" on="1"/>
        <pt x="297" y="683" on="1"/>
        <pt x="227" y="657" on="0"/>
        <pt x="148" y="544" on="0"/>
        <pt x="148" y="462" on="1"/>
        <pt x="148" y="444" on="0"/>
        <pt x="152" y="420" on="0"/>
        <pt x="156" y="405" on="0"/>
        <pt x="161" y="396" on="0"/>
        <pt x="162" y="393" on="1"/>
        <pt x="112" y="393" on="0"/>
        <pt x="55" y="434" on="0"/>
        <pt x="55" y="485" on="1"/>
        <pt x="55" y="538" on="0"/>
        <pt x="118" y="634" on="0"/>
        <pt x="218" y="707" on="0"/>
        <pt x="343" y="750" on="0"/>
        <pt x="405" y="750" on="1"/>
        <pt x="416" y="750" on="0"/>
        <pt x="436" y="749" on="0"/>
        <pt x="446" y="748" on="1"/>
        <pt x="512" y="477" on="1"/>
        <pt x="640" y="745" on="1"/>
        <pt x="705" y="745" on="1"/>
        <pt x="532" y="392" on="1"/>
        <pt x="628" y="0" on="1"/>
      </contour>
    </TTGlyph>
    <TTGlyph name="Y" xMin="55" yMin="0" xMax="747" yMax="750">
      <contour>
        <pt x="327" y="0" on="1"/>
        <pt x="393" y="308" on="1"/>
        <pt x="297" y="683" on="1"/>
        <pt x="227" y="657" on="0"/>
        <pt x="148" y="544" on="0"/>
        <pt x="148" y="462" on="1"/>
        <pt x="148" y="444" on="0"/>
        <pt x="152" y="420" on="0"/>
        <pt x="156" y="405" on="0"/>
        <pt x="161" y="396" on="0"/>
        <pt x="162" y="393" on="1"/>
        <pt x="112" y="393" on="0"/>
        <pt x="55" y="434" on="0"/>
        <pt x="55" y="485" on="1"/>
        <pt x="55" y="538" on="0"/>
        <pt x="118" y="634" on="0"/>
        <pt x="218" y="707" on="0"/>
        <pt x="343" y="750" on="0"/>
        <pt x="405" y="750" on="1"/>
        <pt x="416" y="750" on="0"/>
        <pt x="436" y="749" on="0"/>
        <pt x="446" y="748" on="1"/>
        <pt x="533" y="390" on="1"/>
        <pt x="681" y="745" on="1"/>
        <pt x="747" y="745" on="1"/>
        <pt x="553" y="308" on="1"/>
        <pt x="487" y="0" on="1"/>
      </contour>
    </TTGlyph>
    <TTGlyph name="Yacute" xMin="55" yMin="0" xMax="747" yMax="1000">
      <contour>
        <pt x="327" y="0" on="1"/>
        <pt x="393" y="308" on="1"/>
        <pt x="297" y="683" on="1"/>
        <pt x="227" y="657" on="0"/>
        <pt x="148" y="544" on="0"/>
        <pt x="148" y="462" on="1"/>
        <pt x="148" y="444" on="0"/>
        <pt x="152" y="420" on="0"/>
        <pt x="156" y="405" on="0"/>
        <pt x="161" y="396" on="0"/>
        <pt x="162" y="393" on="1"/>
        <pt x="112" y="393" on="0"/>
        <pt x="55" y="434" on="0"/>
        <pt x="55" y="485" on="1"/>
        <pt x="55" y="538" on="0"/>
        <pt x="118" y="634" on="0"/>
        <pt x="218" y="707" on="0"/>
        <pt x="343" y="750" on="0"/>
        <pt x="405" y="750" on="1"/>
        <pt x="416" y="750" on="0"/>
        <pt x="436" y="749" on="0"/>
        <pt x="446" y="748" on="1"/>
        <pt x="533" y="390" on="1"/>
        <pt x="681" y="745" on="1"/>
        <pt x="747" y="745" on="1"/>
        <pt x="553" y="308" on="1"/>
        <pt x="487" y="0" on="1"/>
      </contour>
      <contour>
        <pt x="593" y="1000" on="1"/>
        <pt x="698" y="1000" on="1"/>
        <pt x="577" y="811" on="1"/>
        <pt x="502" y="811" on="1"/>
      </contour>
    </TTGlyph>
    <TTGlyph name="Ydieresis" xMin="55" yMin="0" xMax="747" yMax="945">
      <contour>
        <pt x="327" y="0" on="1"/>
        <pt x="393" y="308" on="1"/>
        <pt x="297" y="683" on="1"/>
        <pt x="227" y="657" on="0"/>
        <pt x="148" y="544" on="0"/>
        <pt x="148" y="462" on="1"/>
        <pt x="148" y="444" on="0"/>
        <pt x="152" y="420" on="0"/>
        <pt x="156" y="405" on="0"/>
        <pt x="161" y="396" on="0"/>
        <pt x="162" y="393" on="1"/>
        <pt x="112" y="393" on="0"/>
        <pt x="55" y="434" on="0"/>
        <pt x="55" y="485" on="1"/>
        <pt x="55" y="538" on="0"/>
        <pt x="118" y="634" on="0"/>
        <pt x="218" y="707" on="0"/>
        <pt x="343" y="750" on="0"/>
        <pt x="405" y="750" on="1"/>
        <pt x="416" y="750" on="0"/>
        <pt x="436" y="749" on="0"/>
        <pt x="446" y="748" on="1"/>
        <pt x="533" y="390" on="1"/>
        <pt x="681" y="745" on="1"/>
        <pt x="747" y="745" on="1"/>
        <pt x="553" y="308" on="1"/>
        <pt x="487" y="0" on="1"/>
      </contour>
      <contour>
        <pt x="608" y="884" on="1"/>
        <pt x="608" y="909" on="0"/>
        <pt x="643" y="945" on="0"/>
        <pt x="669" y="945" on="1"/>
        <pt x="694" y="945" on="0"/>
        <pt x="730" y="909" on="0"/>
        <pt x="730" y="884" on="1"/>
        <pt x="730" y="858" on="0"/>
        <pt x="694" y="823" on="0"/>
        <pt x="669" y="823" on="1"/>
        <pt x="643" y="823" on="0"/>
        <pt x="608" y="858" on="0"/>
      </contour>
      <contour>
        <pt x="428" y="884" on="1"/>
        <pt x="428" y="909" on="0"/>
        <pt x="463" y="945" on="0"/>
        <pt x="489" y="945" on="1"/>
        <pt x="514" y="945" on="0"/>
        <pt x="550" y="909" on="0"/>
        <pt x="550" y="884" on="1"/>
        <pt x="550" y="858" on="0"/>
        <pt x="514" y="823" on="0"/>
        <pt x="489" y="823" on="1"/>
        <pt x="463" y="823" on="0"/>
        <pt x="428" y="858" on="0"/>
      </contour>
    </TTGlyph>
    <TTGlyph name="Z" xMin="8" yMin="0" xMax="549" yMax="750">
      <contour>
        <pt x="404" y="85" on="1"/>
        <pt x="399" y="85" on="0"/>
        <pt x="386" y="98" on="0"/>
        <pt x="386" y="116" on="1"/>
        <pt x="386" y="132" on="0"/>
        <pt x="397" y="154" on="0"/>
        <pt x="415" y="168" on="0"/>
        <pt x="436" y="174" on="0"/>
        <pt x="446" y="174" on="1"/>
        <pt x="474" y="174" on="0"/>
        <pt x="497" y="137" on="0"/>
        <pt x="497" y="116" on="1"/>
        <pt x="497" y="97" on="0"/>
        <pt x="479" y="56" on="0"/>
        <pt x="446" y="22" on="0"/>
        <pt x="399" y="0" on="0"/>
        <pt x="369" y="0" on="1"/>
        <pt x="8" y="0" on="1"/>
        <pt x="358" y="696" on="1"/>
        <pt x="342" y="696" on="0"/>
        <pt x="294" y="698" on="0"/>
        <pt x="268" y="698" on="1"/>
        <pt x="250" y="698" on="0"/>
        <pt x="217" y="696" on="0"/>
        <pt x="192" y="691" on="0"/>
        <pt x="176" y="683" on="0"/>
        <pt x="176" y="676" on="1"/>
        <pt x="181" y="676" on="0"/>
        <pt x="193" y="662" on="0"/>
        <pt x="193" y="644" on="1"/>
        <pt x="193" y="627" on="0"/>
        <pt x="181" y="606" on="0"/>
        <pt x="164" y="592" on="0"/>
        <pt x="143" y="587" on="0"/>
        <pt x="134" y="587" on="1"/>
        <pt x="105" y="587" on="0"/>
        <pt x="83" y="625" on="0"/>
        <pt x="83" y="646" on="1"/>
        <pt x="83" y="665" on="0"/>
        <pt x="99" y="702" on="0"/>
        <pt x="130" y="732" on="0"/>
        <pt x="176" y="750" on="0"/>
        <pt x="206" y="750" on="1"/>
        <pt x="549" y="750" on="1"/>
        <pt x="204" y="65" on="1"/>
        <pt x="224" y="65" on="0"/>
        <pt x="275" y="63" on="0"/>
        <pt x="300" y="63" on="1"/>
        <pt x="335" y="63" on="0"/>
        <pt x="394" y="71" on="0"/>
      </contour>
    </TTGlyph>
    <TTGlyph name="Zacute" xMin="8" yMin="0" xMax="556" yMax="1000">
      <contour>
        <pt x="404" y="85" on="1"/>
        <pt x="399" y="85" on="0"/>
        <pt x="386" y="98" on="0"/>
        <pt x="386" y="116" on="1"/>
        <pt x="386" y="132" on="0"/>
        <pt x="397" y="154" on="0"/>
        <pt x="415" y="168" on="0"/>
        <pt x="436" y="174" on="0"/>
        <pt x="446" y="174" on="1"/>
        <pt x="474" y="174" on="0"/>
        <pt x="497" y="137" on="0"/>
        <pt x="497" y="116" on="1"/>
        <pt x="497" y="97" on="0"/>
        <pt x="479" y="56" on="0"/>
        <pt x="446" y="22" on="0"/>
        <pt x="399" y="0" on="0"/>
        <pt x="369" y="0" on="1"/>
        <pt x="8" y="0" on="1"/>
        <pt x="358" y="696" on="1"/>
        <pt x="342" y="696" on="0"/>
        <pt x="294" y="698" on="0"/>
        <pt x="268" y="698" on="1"/>
        <pt x="250" y="698" on="0"/>
        <pt x="217" y="696" on="0"/>
        <pt x="192" y="691" on="0"/>
        <pt x="176" y="683" on="0"/>
        <pt x="176" y="676" on="1"/>
        <pt x="181" y="676" on="0"/>
        <pt x="193" y="662" on="0"/>
        <pt x="193" y="644" on="1"/>
        <pt x="193" y="627" on="0"/>
        <pt x="181" y="606" on="0"/>
        <pt x="164" y="592" on="0"/>
        <pt x="143" y="587" on="0"/>
        <pt x="134" y="587" on="1"/>
        <pt x="105" y="587" on="0"/>
        <pt x="83" y="625" on="0"/>
        <pt x="83" y="646" on="1"/>
        <pt x="83" y="665" on="0"/>
        <pt x="99" y="702" on="0"/>
        <pt x="130" y="732" on="0"/>
        <pt x="176" y="750" on="0"/>
        <pt x="206" y="750" on="1"/>
        <pt x="549" y="750" on="1"/>
        <pt x="204" y="65" on="1"/>
        <pt x="224" y="65" on="0"/>
        <pt x="275" y="63" on="0"/>
        <pt x="300" y="63" on="1"/>
        <pt x="335" y="63" on="0"/>
        <pt x="394" y="71" on="0"/>
      </contour>
      <contour>
        <pt x="451" y="1000" on="1"/>
        <pt x="556" y="1000" on="1"/>
        <pt x="435" y="811" on="1"/>
        <pt x="360" y="811" on="1"/>
      </contour>
    </TTGlyph>
    <TTGlyph name="Zcaron" xMin="8" yMin="0" xMax="594" yMax="1000">
      <contour>
        <pt x="404" y="85" on="1"/>
        <pt x="399" y="85" on="0"/>
        <pt x="386" y="98" on="0"/>
        <pt x="386" y="116" on="1"/>
        <pt x="386" y="132" on="0"/>
        <pt x="397" y="154" on="0"/>
        <pt x="415" y="168" on="0"/>
        <pt x="436" y="174" on="0"/>
        <pt x="446" y="174" on="1"/>
        <pt x="474" y="174" on="0"/>
        <pt x="497" y="137" on="0"/>
        <pt x="497" y="116" on="1"/>
        <pt x="497" y="97" on="0"/>
        <pt x="479" y="56" on="0"/>
        <pt x="446" y="22" on="0"/>
        <pt x="399" y="0" on="0"/>
        <pt x="369" y="0" on="1"/>
        <pt x="8" y="0" on="1"/>
        <pt x="358" y="696" on="1"/>
        <pt x="342" y="696" on="0"/>
        <pt x="294" y="698" on="0"/>
        <pt x="268" y="698" on="1"/>
        <pt x="250" y="698" on="0"/>
        <pt x="217" y="696" on="0"/>
        <pt x="192" y="691" on="0"/>
        <pt x="176" y="683" on="0"/>
        <pt x="176" y="676" on="1"/>
        <pt x="181" y="676" on="0"/>
        <pt x="193" y="662" on="0"/>
        <pt x="193" y="644" on="1"/>
        <pt x="193" y="627" on="0"/>
        <pt x="181" y="606" on="0"/>
        <pt x="164" y="592" on="0"/>
        <pt x="143" y="587" on="0"/>
        <pt x="134" y="587" on="1"/>
        <pt x="105" y="587" on="0"/>
        <pt x="83" y="625" on="0"/>
        <pt x="83" y="646" on="1"/>
        <pt x="83" y="665" on="0"/>
        <pt x="99" y="702" on="0"/>
        <pt x="130" y="732" on="0"/>
        <pt x="176" y="750" on="0"/>
        <pt x="206" y="750" on="1"/>
        <pt x="549" y="750" on="1"/>
        <pt x="204" y="65" on="1"/>
        <pt x="224" y="65" on="0"/>
        <pt x="275" y="63" on="0"/>
        <pt x="300" y="63" on="1"/>
        <pt x="335" y="63" on="0"/>
        <pt x="394" y="71" on="0"/>
      </contour>
      <contour>
        <pt x="333" y="1000" on="1"/>
        <pt x="393" y="920" on="1"/>
        <pt x="550" y="1000" on="1"/>
        <pt x="594" y="1000" on="1"/>
        <pt x="382" y="811" on="1"/>
        <pt x="361" y="811" on="1"/>
        <pt x="301" y="1000" on="1"/>
      </contour>
    </TTGlyph>
    <TTGlyph name="Zdotaccent" xMin="8" yMin="0" xMax="549" yMax="945">
      <contour>
        <pt x="418" y="884" on="1"/>
        <pt x="418" y="858" on="0"/>
        <pt x="382" y="823" on="0"/>
        <pt x="357" y="823" on="1"/>
        <pt x="331" y="823" on="0"/>
        <pt x="296" y="858" on="0"/>
        <pt x="296" y="884" on="1"/>
        <pt x="296" y="909" on="0"/>
        <pt x="331" y="945" on="0"/>
        <pt x="357" y="945" on="1"/>
        <pt x="382" y="945" on="0"/>
        <pt x="418" y="909" on="0"/>
      </contour>
      <contour>
        <pt x="404" y="85" on="1"/>
        <pt x="399" y="85" on="0"/>
        <pt x="386" y="98" on="0"/>
        <pt x="386" y="116" on="1"/>
        <pt x="386" y="132" on="0"/>
        <pt x="397" y="154" on="0"/>
        <pt x="415" y="168" on="0"/>
        <pt x="436" y="174" on="0"/>
        <pt x="446" y="174" on="1"/>
        <pt x="474" y="174" on="0"/>
        <pt x="497" y="137" on="0"/>
        <pt x="497" y="116" on="1"/>
        <pt x="497" y="97" on="0"/>
        <pt x="479" y="56" on="0"/>
        <pt x="446" y="22" on="0"/>
        <pt x="399" y="0" on="0"/>
        <pt x="369" y="0" on="1"/>
        <pt x="8" y="0" on="1"/>
        <pt x="358" y="696" on="1"/>
        <pt x="342" y="696" on="0"/>
        <pt x="294" y="698" on="0"/>
        <pt x="268" y="698" on="1"/>
        <pt x="250" y="698" on="0"/>
        <pt x="217" y="696" on="0"/>
        <pt x="192" y="691" on="0"/>
        <pt x="176" y="683" on="0"/>
        <pt x="176" y="676" on="1"/>
        <pt x="181" y="676" on="0"/>
        <pt x="193" y="662" on="0"/>
        <pt x="193" y="644" on="1"/>
        <pt x="193" y="627" on="0"/>
        <pt x="181" y="606" on="0"/>
        <pt x="164" y="592" on="0"/>
        <pt x="143" y="587" on="0"/>
        <pt x="134" y="587" on="1"/>
        <pt x="105" y="587" on="0"/>
        <pt x="83" y="625" on="0"/>
        <pt x="83" y="646" on="1"/>
        <pt x="83" y="665" on="0"/>
        <pt x="99" y="702" on="0"/>
        <pt x="130" y="732" on="0"/>
        <pt x="176" y="750" on="0"/>
        <pt x="206" y="750" on="1"/>
        <pt x="549" y="750" on="1"/>
        <pt x="204" y="65" on="1"/>
        <pt x="224" y="65" on="0"/>
        <pt x="275" y="63" on="0"/>
        <pt x="300" y="63" on="1"/>
        <pt x="335" y="63" on="0"/>
        <pt x="394" y="71" on="0"/>
      </contour>
    </TTGlyph>
    <TTGlyph name="a" xMin="4" yMin="-6" xMax="585" yMax="505">
      <contour>
        <pt x="498" y="500" on="1"/>
        <pt x="425" y="160" on="1"/>
        <pt x="421" y="143" on="0"/>
        <pt x="421" y="128" on="1"/>
        <pt x="421" y="107" on="0"/>
        <pt x="441" y="91" on="0"/>
        <pt x="462" y="91" on="1"/>
        <pt x="491" y="91" on="0"/>
        <pt x="532" y="141" on="0"/>
        <pt x="543" y="179" on="1"/>
        <pt x="585" y="179" on="1"/>
        <pt x="564" y="118" on="0"/>
        <pt x="511" y="47" on="0"/>
        <pt x="456" y="10" on="0"/>
        <pt x="404" y="0" on="0"/>
        <pt x="384" y="0" on="1"/>
        <pt x="343" y="0" on="0"/>
        <pt x="292" y="44" on="0"/>
        <pt x="286" y="87" on="1"/>
        <pt x="275" y="70" on="0"/>
        <pt x="245" y="36" on="0"/>
        <pt x="208" y="10" on="0"/>
        <pt x="164" y="-6" on="0"/>
        <pt x="137" y="-6" on="1"/>
        <pt x="111" y="-6" on="0"/>
        <pt x="64" y="11" on="0"/>
        <pt x="26" y="49" on="0"/>
        <pt x="4" y="110" on="0"/>
        <pt x="4" y="155" on="1"/>
        <pt x="4" y="189" on="0"/>
        <pt x="18" y="267" on="0"/>
        <pt x="46" y="345" on="0"/>
        <pt x="88" y="417" on="0"/>
        <pt x="146" y="472" on="0"/>
        <pt x="217" y="505" on="0"/>
        <pt x="261" y="505" on="1"/>
        <pt x="273" y="505" on="0"/>
        <pt x="300" y="502" on="0"/>
        <pt x="323" y="491" on="0"/>
        <pt x="340" y="470" on="0"/>
        <pt x="343" y="453" on="1"/>
        <pt x="353" y="500" on="1"/>
      </contour>
      <contour>
        <pt x="292" y="443" on="1"/>
        <pt x="260" y="443" on="0"/>
        <pt x="208" y="384" on="0"/>
        <pt x="172" y="299" on="0"/>
        <pt x="152" y="204" on="0"/>
        <pt x="152" y="169" on="1"/>
        <pt x="152" y="140" on="0"/>
        <pt x="163" y="109" on="0"/>
        <pt x="178" y="94" on="0"/>
        <pt x="195" y="91" on="0"/>
        <pt x="202" y="91" on="1"/>
        <pt x="213" y="91" on="0"/>
        <pt x="238" y="102" on="0"/>
        <pt x="262" y="124" on="0"/>
        <pt x="280" y="157" on="0"/>
        <pt x="285" y="179" on="1"/>
        <pt x="333" y="405" on="1"/>
        <pt x="333" y="409" on="0"/>
        <pt x="328" y="422" on="0"/>
        <pt x="319" y="434" on="0"/>
        <pt x="304" y="443" on="0"/>
      </contour>
    </TTGlyph>
    <TTGlyph name="a.end" xMin="4" yMin="-6" xMax="497" yMax="505">
      <contour>
        <pt x="497" y="500" on="1"/>
        <pt x="425" y="160" on="1"/>
        <pt x="421" y="143" on="0"/>
        <pt x="421" y="128" on="1"/>
        <pt x="421" y="107" on="0"/>
        <pt x="441" y="91" on="0"/>
        <pt x="462" y="91" on="1"/>
        <pt x="475" y="91" on="0"/>
        <pt x="484" y="95" on="1"/>
        <pt x="474" y="69" on="0"/>
        <pt x="455" y="31" on="0"/>
        <pt x="433" y="6" on="0"/>
        <pt x="404" y="-6" on="0"/>
        <pt x="384" y="-6" on="1"/>
        <pt x="343" y="-6" on="0"/>
        <pt x="292" y="43" on="0"/>
        <pt x="286" y="87" on="1"/>
        <pt x="275" y="70" on="0"/>
        <pt x="245" y="36" on="0"/>
        <pt x="208" y="10" on="0"/>
        <pt x="164" y="-6" on="0"/>
        <pt x="137" y="-6" on="1"/>
        <pt x="111" y="-6" on="0"/>
        <pt x="64" y="11" on="0"/>
        <pt x="26" y="49" on="0"/>
        <pt x="4" y="110" on="0"/>
        <pt x="4" y="155" on="1"/>
        <pt x="4" y="189" on="0"/>
        <pt x="18" y="267" on="0"/>
        <pt x="46" y="345" on="0"/>
        <pt x="88" y="417" on="0"/>
        <pt x="146" y="472" on="0"/>
        <pt x="217" y="505" on="0"/>
        <pt x="261" y="505" on="1"/>
        <pt x="273" y="505" on="0"/>
        <pt x="300" y="502" on="0"/>
        <pt x="323" y="491" on="0"/>
        <pt x="340" y="470" on="0"/>
        <pt x="343" y="453" on="1"/>
        <pt x="353" y="500" on="1"/>
      </contour>
      <contour>
        <pt x="292" y="443" on="1"/>
        <pt x="260" y="443" on="0"/>
        <pt x="208" y="384" on="0"/>
        <pt x="172" y="299" on="0"/>
        <pt x="152" y="204" on="0"/>
        <pt x="152" y="169" on="1"/>
        <pt x="152" y="140" on="0"/>
        <pt x="163" y="109" on="0"/>
        <pt x="178" y="94" on="0"/>
        <pt x="195" y="91" on="0"/>
        <pt x="202" y="91" on="1"/>
        <pt x="213" y="91" on="0"/>
        <pt x="238" y="102" on="0"/>
        <pt x="262" y="124" on="0"/>
        <pt x="280" y="157" on="0"/>
        <pt x="285" y="179" on="1"/>
        <pt x="333" y="405" on="1"/>
        <pt x="333" y="409" on="0"/>
        <pt x="328" y="422" on="0"/>
        <pt x="319" y="434" on="0"/>
        <pt x="304" y="443" on="0"/>
      </contour>
    </TTGlyph>
</ttFont>
